<svg width="87" height="12" viewBox="0 0 87 12" fill="none" xmlns="http://www.w3.org/2000/svg">
<g clip-path="url(#clip0_6001_8076)">
<path fill-rule="evenodd" clip-rule="evenodd" d="M21.5513 2.52555H19.4362C19.3219 2.52555 19.231 2.6108 19.231 2.7135V3.35679C19.231 3.35679 19.231 3.37423 19.2268 3.38198C19.212 3.42654 19.1612 3.45367 19.1104 3.4401L19.0829 3.42848C19.0829 3.42848 19.0702 3.41492 19.0639 3.40716C18.2855 2.63987 17.175 2.22522 16.0328 2.2756C14.7468 2.26591 13.5221 2.76775 12.6697 3.64937C10.8041 5.56955 10.8041 8.46435 12.6697 10.3845C13.5221 11.2661 14.7489 11.768 16.035 11.7583C17.1772 11.8087 18.2876 11.396 19.066 10.6267C19.0724 10.617 19.0787 10.6093 19.0893 10.6015C19.1125 10.588 19.1422 10.5822 19.1697 10.5899C19.2077 10.5996 19.2331 10.6325 19.2331 10.6674V11.3165C19.2331 11.4212 19.3241 11.5045 19.4383 11.5045H21.5556C21.6677 11.5064 21.7586 11.425 21.7608 11.3223C21.7608 11.3204 21.7608 11.3185 21.7608 11.3146V2.71737C21.7629 2.61274 21.674 2.52749 21.5598 2.52555C21.5577 2.52555 21.5535 2.52555 21.5513 2.52555ZM16.5151 9.50291C15.0154 9.50291 13.7992 8.38878 13.7992 7.01501C13.7992 5.64124 15.0154 4.52711 16.5151 4.52711C18.0148 4.52711 19.231 5.64124 19.231 7.01501C19.231 8.38878 18.0148 9.50291 16.5151 9.50291Z" fill="#F9FAFB"/>
<path fill-rule="evenodd" clip-rule="evenodd" d="M33.2761 0.0263672H31.1609C31.0488 0.0263672 30.9558 0.111622 30.9558 0.214316V3.3552C30.9558 3.3552 30.9558 3.37263 30.9515 3.38038C30.9367 3.42689 30.8838 3.45208 30.8352 3.43851L30.8077 3.42689C30.8077 3.42689 30.795 3.41332 30.7887 3.40557C30.0103 2.63828 28.8998 2.22363 27.7576 2.274C26.4716 2.26432 25.2448 2.76616 24.3924 3.64778C22.5268 5.56796 22.5268 8.46276 24.3924 10.3829C25.2448 11.2646 26.4716 11.7645 27.7576 11.7567C28.8998 11.8071 30.0103 11.3944 30.7887 10.6251C30.795 10.6154 30.8014 10.6077 30.8119 10.5999C30.8352 10.5864 30.8648 10.5806 30.8923 10.5883C30.9304 10.598 30.9558 10.631 30.9558 10.6658V11.3149C30.9558 11.4196 31.0467 11.5029 31.1609 11.5029H33.2782C33.3903 11.5048 33.4813 11.4234 33.4834 11.3207C33.4834 11.3188 33.4834 11.3169 33.4834 11.313V0.216254C33.4834 0.111622 33.3925 0.0283048 33.2782 0.0283048H33.274L33.2761 0.0263672ZM28.2399 9.50326C26.7402 9.50326 25.524 8.38913 25.524 7.01536C25.524 5.64158 26.7402 4.52745 28.2399 4.52745C29.7395 4.52745 30.9558 5.64158 30.9558 7.01536C30.9537 8.38719 29.7395 9.49938 28.2399 9.49938V9.50326Z" fill="#F9FAFB"/>
<path d="M50.1851 11.7626C52.3489 11.7626 53.7957 10.9623 54.168 9.56917C54.4726 8.57324 54.0707 7.50949 53.159 6.89914C52.4462 6.49805 51.6784 6.18609 50.8747 5.97489C49.9271 5.70169 49.301 5.52149 49.301 4.99252C49.301 4.52749 49.8044 4.28335 50.3036 4.28335C50.5362 4.27948 50.7647 4.34148 50.9593 4.45968C51.0841 4.53718 51.1771 4.64762 51.2279 4.77551C51.2638 4.86657 51.3569 4.92858 51.4648 4.92858H53.7767C53.8951 4.92858 53.9945 4.84139 53.9945 4.73288C53.9945 4.729 53.9945 4.72513 53.9945 4.71932C53.6963 1.52418 46.547 1.3033 46.547 5.22891C46.5428 5.29285 46.4603 6.65693 48.3534 7.35641C48.366 7.36223 49.7282 7.85826 50.3057 8.05589C50.7774 8.15859 51.1919 8.41823 51.4711 8.78056C51.5452 8.93364 51.5452 9.10802 51.4711 9.26109C51.2977 9.65637 50.5616 9.82106 50.0095 9.72418C49.6225 9.68737 49.301 9.43742 49.1952 9.0964C49.1656 9.00726 49.0746 8.9472 48.9731 8.94914H46.6337C46.5089 8.94914 46.4053 9.0402 46.4053 9.15452C46.4053 9.16227 46.4053 9.17196 46.4053 9.17971C46.5258 10.0051 47.2979 11.7626 50.1914 11.7626H50.1851Z" fill="#F9FAFB"/>
<path d="M59.9551 9.60983C59.9551 9.50326 59.8578 9.41606 59.7414 9.418C59.7414 9.418 59.7393 9.418 59.7372 9.418C59.4643 9.42381 59.2211 9.42188 59.0138 9.41025C58.7431 9.41025 58.4787 9.325 58.2693 9.16805C58.081 8.98398 57.9879 8.73596 58.0112 8.48601V4.83747C58.0112 4.78903 58.0535 4.75222 58.1064 4.75028H59.752C59.8641 4.75028 59.9551 4.66696 59.9551 4.56621V2.70997C59.9551 2.60727 59.8641 2.52396 59.752 2.52396H58.1064C58.0535 2.52396 58.0112 2.4852 58.0112 2.43676V0.218191C58.0112 0.111622 57.916 0.0263672 57.8018 0.0263672H55.693C55.5766 0.0263672 55.4814 0.111622 55.4814 0.218191V8.48795C55.4814 9.72027 55.8368 10.5767 56.5496 11.0553C57.1947 11.4893 58.2671 11.6482 59.7541 11.5416C59.8641 11.5339 59.9508 11.4486 59.9529 11.3479L59.9572 9.60983H59.9551Z" fill="#F9FAFB"/>
<path fill-rule="evenodd" clip-rule="evenodd" d="M44.9626 2.52555H42.8475C42.7354 2.52555 42.6423 2.6108 42.6423 2.7135V3.35679C42.6423 3.35679 42.6423 3.37423 42.6381 3.38198C42.6233 3.42848 42.5704 3.45367 42.5217 3.4401L42.4942 3.42848C42.4942 3.42848 42.4815 3.41492 42.4752 3.40716C41.6968 2.63987 40.5863 2.22522 39.4441 2.2756C38.1581 2.26591 36.9313 2.76775 36.0789 3.64937C34.2133 5.56955 34.2133 8.46435 36.0789 10.3845C36.9313 11.2661 38.1581 11.7661 39.4441 11.7583C40.5863 11.8087 41.6968 11.396 42.4752 10.6267C42.4815 10.617 42.49 10.6093 42.4985 10.6015C42.5217 10.588 42.5513 10.5822 42.5788 10.5899C42.6169 10.5996 42.6423 10.6325 42.6423 10.6674V11.3165C42.6423 11.4212 42.7332 11.5045 42.8475 11.5045H44.9648C45.0769 11.5045 45.1678 11.425 45.1699 11.3223V2.71543C45.1699 2.6108 45.0811 2.52555 44.969 2.52555C44.969 2.52555 44.9648 2.52555 44.9626 2.52555ZM39.9264 9.50291C38.4267 9.50291 37.2105 8.38878 37.2105 7.01501C37.2105 5.64124 38.4267 4.52711 39.9264 4.52711C41.4261 4.52711 42.6423 5.64124 42.6423 7.01501C42.6423 8.38878 41.4261 9.50097 39.9264 9.50291Z" fill="#F9FAFB"/>
<path fill-rule="evenodd" clip-rule="evenodd" d="M77.9254 2.52262H75.8102C75.696 2.52262 75.605 2.60787 75.605 2.71057V3.35386C75.605 3.35386 75.605 3.3713 75.6008 3.37905C75.586 3.42555 75.5352 3.45074 75.4844 3.43717L75.457 3.42555C75.457 3.42555 75.4443 3.41199 75.4379 3.40423C74.6595 2.63694 73.5491 2.22229 72.4069 2.27267C71.1208 2.26298 69.8961 2.76482 69.0437 3.64644C67.1781 5.56662 67.1781 8.46142 69.0437 10.3816C69.8961 11.2632 71.1229 11.7631 72.4069 11.7554C73.5491 11.8057 74.6595 11.393 75.4379 10.6238C75.4443 10.6141 75.4527 10.6064 75.4612 10.5986C75.4845 10.585 75.5141 10.5792 75.5416 10.587C75.5796 10.5967 75.605 10.6296 75.605 10.6645V11.3136C75.605 11.4182 75.696 11.5015 75.8102 11.5015H77.9275C78.0396 11.5015 78.1305 11.4221 78.1327 11.3194V2.71251C78.1327 2.60787 78.0438 2.52262 77.9317 2.52262C77.9317 2.52262 77.9275 2.52262 77.9254 2.52262ZM72.8891 9.49998C71.3895 9.49998 70.1753 8.38585 70.1753 7.01208C70.1753 5.63831 71.3916 4.52612 72.8912 4.52612C74.3909 4.52612 75.605 5.64025 75.605 7.01402C75.605 8.38779 74.3888 9.50192 72.8891 9.50192V9.49998Z" fill="#F9FAFB"/>
<path d="M66.886 2.75108C66.886 2.6232 66.7739 2.52051 66.6343 2.52051H64.5423C62.956 2.52051 61.6699 3.69858 61.6699 5.14986V11.2437C61.6699 11.3715 61.782 11.4742 61.9216 11.4742H63.9395C64.0791 11.4742 64.1912 11.3715 64.1912 11.2437V5.42112C64.1912 5.06266 64.5064 4.77202 64.8977 4.77202H66.6321C66.7717 4.77202 66.8838 4.66933 66.8838 4.54144V2.75108H66.886Z" fill="#F9FAFB"/>
<path d="M8.97498 8.57452C7.38013 9.88435 4.92864 9.76228 3.49877 8.30325C2.42638 7.2085 2.20217 5.62159 2.9319 4.31176C3.56646 3.09687 4.90325 2.32376 6.3733 2.32182C7.32514 2.32182 8.24524 2.63959 8.96017 3.217C9.05747 3.29838 9.20553 3.29645 9.30072 3.21313L10.7094 1.92268C10.8067 1.83354 10.8088 1.69016 10.7115 1.60103C10.7094 1.59909 10.7073 1.59716 10.7052 1.59522C9.39378 0.481087 7.63184 -0.0730716 5.85297 0.0606241C2.33331 0.337703 -0.276826 3.17438 0.0235295 6.39857C0.304849 9.42319 3.06093 11.7483 6.37542 11.76C7.98507 11.7619 9.53762 11.2058 10.7179 10.2021C10.8173 10.1149 10.8215 9.97154 10.7263 9.88047C10.7263 9.87854 10.7221 9.8766 10.72 9.87466L9.40859 8.67334C9.21399 8.49508 9.07228 8.49701 8.97498 8.57452Z" fill="#F9FAFB"/>
<path d="M83.5645 4.9758C85.0645 4.9758 86.2804 3.86193 86.2804 2.4879C86.2804 1.11387 85.0645 0 83.5645 0C82.0646 0 80.8486 1.11387 80.8486 2.4879C80.8486 3.86193 82.0646 4.9758 83.5645 4.9758Z" fill="#F9FAFB"/>
</g>
<defs>
<clipPath id="clip0_6001_8076">
<rect width="86.2783" height="11.7652" fill="white"/>
</clipPath>
</defs>
</svg>
