<svg width="153" height="78" viewBox="0 0 153 78" fill="none" xmlns="http://www.w3.org/2000/svg">
<rect width="2.50725" height="2.50725" fill="#0E121D"/>
<rect x="12.5361" width="2.50725" height="2.50725" fill="#0E121D"/>
<rect x="25.0723" width="2.50725" height="2.50725" fill="#0E121D"/>
<rect x="37.6084" width="2.50725" height="2.50725" fill="#0E121D"/>
<rect x="50.145" width="2.50725" height="2.50725" fill="#0E121D"/>
<rect x="62.6812" width="2.50725" height="2.50725" fill="#0E121D"/>
<rect x="75.2173" width="2.50725" height="2.50725" fill="#0E121D"/>
<rect x="87.7534" width="2.50725" height="2.50725" fill="#0E121D"/>
<rect x="100.29" width="2.50725" height="2.50725" fill="#0E121D"/>
<rect x="112.826" width="2.50725" height="2.50725" fill="#0E121D"/>
<rect x="125.362" width="2.50725" height="2.50725" fill="#0E121D"/>
<rect x="137.898" width="2.50725" height="2.50725" fill="#0E121D"/>
<rect x="150.435" width="2.50725" height="2.50725" fill="#0E121D"/>
<rect y="12.5361" width="2.50725" height="2.50725" fill="#0E121D"/>
<rect y="25.0723" width="2.50725" height="2.50725" fill="#0E121D"/>
<rect y="37.6089" width="2.50725" height="2.50725" fill="#0E121D"/>
<rect y="50.145" width="2.50725" height="2.50725" fill="#0E121D"/>
<rect y="62.6812" width="2.50725" height="2.50725" fill="#0E121D"/>
<rect y="75.2173" width="2.50725" height="2.50725" fill="#0E121D"/>
<rect x="12.5361" y="12.5361" width="2.50725" height="2.50725" fill="#0E121D"/>
<rect x="12.5361" y="25.0723" width="2.50725" height="2.50725" fill="#0E121D"/>
<rect x="12.5361" y="37.6089" width="2.50725" height="2.50725" fill="#0E121D"/>
<rect x="12.5361" y="50.145" width="2.50725" height="2.50725" fill="#0E121D"/>
<rect x="12.5361" y="62.6812" width="2.50725" height="2.50725" fill="#0E121D"/>
<rect x="12.5361" y="75.2173" width="2.50725" height="2.50725" fill="#0E121D"/>
<rect x="25.0723" y="12.5361" width="2.50725" height="2.50725" fill="#0E121D"/>
<rect x="25.0723" y="25.0723" width="2.50725" height="2.50725" fill="#0E121D"/>
<rect x="25.0723" y="37.6089" width="2.50725" height="2.50725" fill="#0E121D"/>
<rect x="25.0723" y="50.145" width="2.50725" height="2.50725" fill="#0E121D"/>
<rect x="25.0723" y="62.6812" width="2.50725" height="2.50725" fill="#0E121D"/>
<rect x="25.0723" y="75.2173" width="2.50725" height="2.50725" fill="#0E121D"/>
<rect x="37.6084" y="12.5361" width="2.50725" height="2.50725" fill="#0E121D"/>
<rect x="37.6084" y="25.0723" width="2.50725" height="2.50725" fill="#0E121D"/>
<rect x="37.6084" y="37.6089" width="2.50725" height="2.50725" fill="#0E121D"/>
<rect x="37.6084" y="50.145" width="2.50725" height="2.50725" fill="#0E121D"/>
<rect x="37.6084" y="62.6812" width="2.50725" height="2.50725" fill="#0E121D"/>
<rect x="37.6084" y="75.2173" width="2.50725" height="2.50725" fill="#0E121D"/>
<rect x="50.145" y="12.5361" width="2.50725" height="2.50725" fill="#0E121D"/>
<rect x="50.145" y="25.0723" width="2.50725" height="2.50725" fill="#0E121D"/>
<rect x="50.145" y="37.6089" width="2.50725" height="2.50725" fill="#0E121D"/>
<rect x="50.145" y="50.145" width="2.50725" height="2.50725" fill="#0E121D"/>
<rect x="50.145" y="62.6812" width="2.50725" height="2.50725" fill="#0E121D"/>
<rect x="50.145" y="75.2173" width="2.50725" height="2.50725" fill="#0E121D"/>
<rect x="62.6812" y="12.5361" width="2.50725" height="2.50725" fill="#0E121D"/>
<rect x="62.6812" y="25.0723" width="2.50725" height="2.50725" fill="#0E121D"/>
<rect x="62.6812" y="37.6089" width="2.50725" height="2.50725" fill="#0E121D"/>
<rect x="62.6812" y="50.145" width="2.50725" height="2.50725" fill="#0E121D"/>
<rect x="62.6812" y="62.6812" width="2.50725" height="2.50725" fill="#0E121D"/>
<rect x="62.6812" y="75.2173" width="2.50725" height="2.50725" fill="#0E121D"/>
<rect x="75.2173" y="12.5361" width="2.50725" height="2.50725" fill="#0E121D"/>
<rect x="75.2173" y="25.0723" width="2.50725" height="2.50725" fill="#0E121D"/>
<rect x="75.2173" y="37.6089" width="2.50725" height="2.50725" fill="#0E121D"/>
<rect x="75.2173" y="50.145" width="2.50725" height="2.50725" fill="#0E121D"/>
<rect x="75.2173" y="62.6812" width="2.50725" height="2.50725" fill="#0E121D"/>
<rect x="75.2173" y="75.2173" width="2.50725" height="2.50725" fill="#0E121D"/>
<rect x="87.7534" y="12.5361" width="2.50725" height="2.50725" fill="#0E121D"/>
<rect x="87.7534" y="25.0723" width="2.50725" height="2.50725" fill="#0E121D"/>
<rect x="87.7534" y="37.6089" width="2.50725" height="2.50725" fill="#0E121D"/>
<rect x="87.7534" y="50.145" width="2.50725" height="2.50725" fill="#0E121D"/>
<rect x="87.7534" y="62.6812" width="2.50725" height="2.50725" fill="#0E121D"/>
<rect x="87.7534" y="75.2173" width="2.50725" height="2.50725" fill="#0E121D"/>
<rect x="100.29" y="12.5361" width="2.50725" height="2.50725" fill="#0E121D"/>
<rect x="100.29" y="25.0723" width="2.50725" height="2.50725" fill="#0E121D"/>
<rect x="100.29" y="37.6089" width="2.50725" height="2.50725" fill="#0E121D"/>
<rect x="100.29" y="50.145" width="2.50725" height="2.50725" fill="#0E121D"/>
<rect x="100.29" y="62.6812" width="2.50725" height="2.50725" fill="#0E121D"/>
<rect x="100.29" y="75.2173" width="2.50725" height="2.50725" fill="#0E121D"/>
<rect x="112.826" y="12.5361" width="2.50725" height="2.50725" fill="#0E121D"/>
<rect x="112.826" y="25.0723" width="2.50725" height="2.50725" fill="#0E121D"/>
<rect x="112.826" y="37.6089" width="2.50725" height="2.50725" fill="#0E121D"/>
<rect x="112.826" y="50.145" width="2.50725" height="2.50725" fill="#0E121D"/>
<rect x="112.826" y="62.6812" width="2.50725" height="2.50725" fill="#0E121D"/>
<rect x="112.826" y="75.2173" width="2.50725" height="2.50725" fill="#0E121D"/>
<rect x="125.362" y="12.5361" width="2.50725" height="2.50725" fill="#0E121D"/>
<rect x="125.362" y="25.0723" width="2.50725" height="2.50725" fill="#0E121D"/>
<rect x="125.362" y="37.6089" width="2.50725" height="2.50725" fill="#0E121D"/>
<rect x="125.362" y="50.145" width="2.50725" height="2.50725" fill="#0E121D"/>
<rect x="125.362" y="62.6812" width="2.50725" height="2.50725" fill="#0E121D"/>
<rect x="125.362" y="75.2173" width="2.50725" height="2.50725" fill="#0E121D"/>
<rect x="137.898" y="12.5361" width="2.50725" height="2.50725" fill="#0E121D"/>
<rect x="137.898" y="25.0723" width="2.50725" height="2.50725" fill="#0E121D"/>
<rect x="137.898" y="37.6089" width="2.50725" height="2.50725" fill="#0E121D"/>
<rect x="137.898" y="50.145" width="2.50725" height="2.50725" fill="#0E121D"/>
<rect x="137.898" y="62.6812" width="2.50725" height="2.50725" fill="#0E121D"/>
<rect x="137.898" y="75.2173" width="2.50725" height="2.50725" fill="#0E121D"/>
<rect x="150.435" y="12.5361" width="2.50725" height="2.50725" fill="#0E121D"/>
<rect x="150.435" y="25.0723" width="2.50725" height="2.50725" fill="#0E121D"/>
<rect x="150.435" y="37.6089" width="2.50725" height="2.50725" fill="#0E121D"/>
<rect x="150.435" y="50.145" width="2.50725" height="2.50725" fill="#0E121D"/>
<rect x="150.435" y="62.6812" width="2.50725" height="2.50725" fill="#0E121D"/>
<rect x="150.435" y="75.2173" width="2.50725" height="2.50725" fill="#0E121D"/>
</svg>
