<?xml version="1.0" encoding="UTF-8"?> <svg xmlns="http://www.w3.org/2000/svg" width="14" height="14" viewBox="0 0 14 14" fill="none"><g clip-path="url(#clip0_2143_15)"><path d="M7 0.400391C8.28572 0.402242 9.51858 0.913111 10.4277 1.82227C11.2801 2.67463 11.7827 3.81157 11.8438 5.00977L11.8496 5.25098C11.8494 6.11119 11.5693 7.05208 11.1211 7.99902C10.6743 8.94288 10.0727 9.8693 9.45801 10.6943C8.42164 12.0854 7.3643 13.1637 7 13.5244C6.6357 13.1637 5.57836 12.0854 4.54199 10.6943C3.92733 9.8693 3.32567 8.94288 2.87891 7.99902C2.43071 7.05208 2.1506 6.11119 2.15039 5.25098C2.1521 3.96506 2.66298 2.73155 3.57227 1.82227C4.48142 0.913111 5.71428 0.402242 7 0.400391ZM8.07422 2.65723C7.56144 2.44483 6.99651 2.38977 6.45215 2.49805C5.90796 2.60638 5.40798 2.87327 5.01562 3.26562C4.62327 3.65798 4.35638 4.15796 4.24805 4.70215C4.13977 5.24651 4.19483 5.81144 4.40723 6.32422C4.61964 6.8369 4.97999 7.2747 5.44141 7.58301C5.90285 7.89128 6.44505 8.05664 7 8.05664C7.74405 8.05617 8.45727 7.75952 8.9834 7.2334C9.50952 6.70727 9.80617 5.99405 9.80664 5.25C9.80664 4.69505 9.64128 4.15285 9.33301 3.69141C9.0247 3.22999 8.5869 2.86964 8.07422 2.65723Z" stroke="white" stroke-width="0.8"></path></g><defs><clipPath id="clip0_2143_15"><rect width="14" height="14" fill="white"></rect></clipPath></defs></svg> 