<?xml version="1.0" encoding="UTF-8"?> <svg xmlns="http://www.w3.org/2000/svg" width="237" height="39" viewBox="0 0 237 39" fill="none"><g clip-path="url(#clip0_2053_16093)"><path d="M49.6372 33.3096C56.0428 33.3095 61.2349 28.1161 61.2349 21.7119C61.2348 15.3071 56.0428 10.1143 49.6372 10.1143C43.2323 10.1143 38.0396 15.307 38.0396 21.7119C38.0396 28.1161 43.2323 33.3096 49.6372 33.3096ZM49.6245 28.4951C45.8832 28.4951 42.8502 25.4625 42.8501 21.7197C42.8501 17.9784 45.8832 14.9453 49.6245 14.9453C53.3666 14.9454 56.3989 17.9785 56.3989 21.7197C56.3988 25.4623 53.3666 28.4951 49.6245 28.4951Z" stroke="white" stroke-width="2"></path><path d="M77.6968 27.4946C80.8859 27.4946 83.472 24.91 83.472 21.7194C83.472 18.5303 80.8859 15.945 77.6968 15.945C74.5078 15.945 71.9216 18.5303 71.9216 21.7194C71.9216 24.91 74.5078 27.4946 77.6968 27.4946ZM65.0747 33.6104V1.11829H71.8478V11.6439C73.7245 10.0423 75.8746 9.26423 78.346 9.26423C85.2115 9.26423 90.3368 15.0767 90.3368 21.7574C90.3368 28.4396 85.1653 34.1597 78.346 34.1597C75.7837 34.1597 73.5873 33.4278 71.8478 31.5057V33.6104H65.0747Z" fill="white"></path><path d="M114.777 4.36816H114.099V1.69334H113.116V1.11873H115.76V1.69334H114.777V4.36816Z" fill="white"></path><path d="M119.282 4.36816H118.647V1.6531H118.639L118.034 4.36816H117.368L116.775 1.6531H116.767V4.36816H116.132V1.11873H117.122L117.712 3.68101H117.72L118.299 1.11873H119.282V4.36816Z" fill="white"></path><path d="M135.414 13.3099C135.994 12.6615 136.285 11.8193 136.285 10.7834C136.285 9.76009 135.997 8.92462 135.424 8.27548C134.849 7.62709 134.058 7.30214 133.046 7.30214C132.036 7.30214 131.241 7.62336 130.66 8.26579C130.08 8.90897 129.79 9.74742 129.79 10.7834C129.79 11.8066 130.092 12.6451 130.698 13.3002C131.302 13.9553 132.086 14.2832 133.046 14.2832C134.044 14.2832 134.834 13.959 135.414 13.3099ZM129.752 14.1617C128.891 13.2696 128.461 12.1435 128.461 10.7834C128.461 9.41129 128.894 8.28443 129.762 7.40499C130.629 6.52556 131.724 6.08584 133.046 6.08584C134.394 6.08584 135.495 6.52556 136.35 7.40499C137.204 8.28443 137.632 9.41129 137.632 10.7834C137.632 12.1562 137.201 13.2853 136.341 14.1707C135.48 15.0568 134.381 15.4995 133.046 15.4995C131.711 15.4995 130.614 15.0538 129.752 14.1617Z" fill="white"></path><path d="M145.024 2.60476C144.588 2.48029 144.138 2.41769 143.676 2.41769C142.279 2.41769 141.58 3.20993 141.58 4.7944V6.3103H144.369V7.45208H141.58V15.2373H140.289V7.45208H138.886V6.3103H140.289V4.71912C140.289 3.67126 140.576 2.83579 141.15 2.21199C141.724 1.58819 142.541 1.27592 143.602 1.27592C144.076 1.27592 144.55 1.33181 145.024 1.44435V2.60476Z" fill="white"></path><path d="M151.837 10.1096C151.837 9.23615 151.615 8.5341 151.172 8.0042C150.729 7.47356 150.071 7.20824 149.198 7.20824C148.362 7.20824 147.679 7.47058 147.148 7.99451C146.618 8.51845 146.309 9.22348 146.222 10.1096H151.837ZM153.109 11.1202H146.185C146.185 12.0436 146.469 12.8113 147.037 13.4217C147.604 14.0335 148.431 14.3391 149.516 14.3391C150.103 14.3391 150.661 14.2549 151.192 14.0865C151.721 13.918 152.174 13.7213 152.548 13.4969L152.529 14.7132C151.531 15.2372 150.446 15.4995 149.273 15.4995C147.925 15.4995 146.855 15.0941 146.063 14.2832C145.27 13.4723 144.875 12.3492 144.875 10.9145C144.875 9.46719 145.273 8.30082 146.073 7.41468C146.871 6.52854 147.944 6.08584 149.292 6.08584C150.589 6.08584 151.556 6.48829 152.192 7.29245C152.829 8.09736 153.147 9.13032 153.147 10.3899C153.147 10.5769 153.134 10.8206 153.109 11.1202Z" fill="white"></path><path d="M160.146 7.41456C159.734 7.32736 159.217 7.28339 158.593 7.28339C158.218 7.28339 157.832 7.31842 157.432 7.38624C157.033 7.4548 156.709 7.53306 156.46 7.62025V15.2378H155.168V6.70281C156.253 6.29142 157.376 6.08572 158.537 6.08572C159.111 6.08572 159.647 6.13565 160.146 6.23552V7.41456Z" fill="white"></path><path d="M167.669 10.1096C167.669 9.23615 167.447 8.5341 167.005 8.0042C166.562 7.47356 165.904 7.20824 165.03 7.20824C164.194 7.20824 163.512 7.47058 162.981 7.99451C162.45 8.51845 162.142 9.22348 162.055 10.1096H167.669ZM168.942 11.1202H162.017C162.017 12.0436 162.301 12.8113 162.869 13.4217C163.436 14.0335 164.264 14.3391 165.349 14.3391C165.935 14.3391 166.493 14.2549 167.024 14.0865C167.554 13.918 168.006 13.7213 168.38 13.4969L168.362 14.7132C167.363 15.2372 166.278 15.4995 165.106 15.4995C163.757 15.4995 162.687 15.0941 161.896 14.2832C161.103 13.4723 160.707 12.3492 160.707 10.9145C160.707 9.46719 161.106 8.30082 161.905 7.41468C162.704 6.52854 163.776 6.08584 165.124 6.08584C166.421 6.08584 167.388 6.48829 168.025 7.29245C168.661 8.09736 168.98 9.13032 168.98 10.3899C168.98 10.5769 168.966 10.8206 168.942 11.1202Z" fill="white"></path><path d="M177.626 7.88246C177.327 7.72074 176.956 7.58062 176.513 7.46138C176.069 7.34288 175.611 7.284 175.137 7.284C174.076 7.284 173.243 7.59255 172.639 8.20964C172.033 8.82823 171.731 9.67338 171.731 10.7458C171.731 11.7691 172.037 12.615 172.648 13.282C173.259 13.9498 174.101 14.283 175.174 14.283C175.711 14.283 176.213 14.2241 176.681 14.1056C177.149 13.9871 177.532 13.8529 177.832 13.7031V14.9381C177.508 15.1005 177.105 15.2347 176.625 15.3405C176.145 15.4463 175.63 15.5 175.081 15.5C173.67 15.5 172.538 15.0692 171.683 14.2084C170.829 13.3476 170.402 12.2126 170.402 10.8017C170.402 9.40508 170.835 8.27001 171.703 7.39579C172.57 6.52307 173.721 6.08558 175.156 6.08558C176.055 6.08558 176.877 6.24209 177.626 6.55362V7.88246Z" fill="white"></path><path d="M179.759 6.31054H181.05V15.2383H179.759V6.31054ZM179.666 2.67952H181.163V4.17679H179.666V2.67952Z" fill="white"></path><path d="M189.163 14.152C189.569 14.0768 189.922 13.9776 190.221 13.8524V7.75155C189.871 7.61442 189.522 7.50188 189.173 7.41468C188.823 7.32748 188.436 7.28351 188.013 7.28351C186.952 7.28351 186.109 7.60846 185.485 8.25685C184.862 8.90525 184.551 9.77872 184.551 10.8765C184.551 11.8752 184.831 12.6898 185.392 13.3196C185.953 13.9493 186.802 14.2646 187.937 14.2646C188.349 14.2646 188.758 14.2273 189.163 14.152ZM184.494 7.42362C185.342 6.53227 186.484 6.08584 187.919 6.08584C188.692 6.08584 189.459 6.22968 190.221 6.51587V1.42559H191.512V14.6573C190.364 15.2193 189.142 15.4995 187.843 15.4995C186.421 15.4995 185.296 15.0851 184.466 14.2549C183.636 13.4254 183.221 12.3246 183.221 10.9518C183.221 9.49179 183.646 8.31573 184.494 7.42362Z" fill="white"></path><path d="M200.636 13.3099C201.216 12.6615 201.507 11.8193 201.507 10.7834C201.507 9.76009 201.219 8.92462 200.646 8.27548C200.071 7.62709 199.28 7.30214 198.269 7.30214C197.258 7.30214 196.463 7.62336 195.882 8.26579C195.302 8.90897 195.012 9.74742 195.012 10.7834C195.012 11.8066 195.314 12.6451 195.92 13.3002C196.525 13.9553 197.308 14.2832 198.269 14.2832C199.267 14.2832 200.057 13.959 200.636 13.3099ZM194.974 14.1617C194.114 13.2696 193.684 12.1435 193.684 10.7834C193.684 9.41129 194.117 8.28443 194.984 7.40499C195.851 6.52556 196.946 6.08584 198.269 6.08584C199.616 6.08584 200.717 6.52556 201.572 7.40499C202.427 8.28443 202.854 9.41129 202.854 10.7834C202.854 12.1562 202.424 13.2853 201.563 14.1707C200.702 15.0568 199.603 15.4995 198.269 15.4995C196.933 15.4995 195.836 15.0538 194.974 14.1617Z" fill="white"></path><path d="M130.352 31.6456C130.988 31.9952 131.749 32.1696 132.635 32.1696C133.646 32.1696 134.463 31.8581 135.087 31.2343C135.71 30.6104 136.023 29.731 136.023 28.5952C136.023 27.56 135.726 26.7365 135.134 26.1253C134.541 25.5135 133.739 25.2079 132.729 25.2079C132.28 25.2079 131.836 25.2548 131.4 25.348C130.963 25.4419 130.614 25.5574 130.352 25.6946V31.6456ZM130.352 32.9V37.5229H129.061V24.8524C130.283 24.2659 131.55 23.9722 132.86 23.9722C134.232 23.9722 135.324 24.3844 136.135 25.2079C136.946 26.0314 137.352 27.1352 137.352 28.5207C137.352 29.9807 136.915 31.1567 136.041 32.0481C135.168 32.9402 134.045 33.3866 132.673 33.3866C131.749 33.3866 130.976 33.2242 130.352 32.9Z" fill="white"></path><path d="M145.895 31.1966C146.475 30.5482 146.766 29.706 146.766 28.6701C146.766 27.6468 146.478 26.8113 145.905 26.1622C145.33 25.5138 144.539 25.1889 143.527 25.1889C142.517 25.1889 141.722 25.5101 141.141 26.1525C140.561 26.7957 140.271 27.6349 140.271 28.6701C140.271 29.6934 140.573 30.5318 141.179 31.1869C141.783 31.842 142.567 32.1699 143.527 32.1699C144.525 32.1699 145.315 31.8457 145.895 31.1966ZM140.233 32.0484C139.372 31.1563 138.942 30.0302 138.942 28.6701C138.942 27.298 139.375 26.1719 140.243 25.2917C141.11 24.4123 142.205 23.9726 143.527 23.9726C144.875 23.9726 145.976 24.4123 146.831 25.2917C147.685 26.1719 148.113 27.298 148.113 28.6701C148.113 30.0429 147.682 31.172 146.822 32.0574C145.961 32.9435 144.862 33.3862 143.527 33.3862C142.192 33.3862 141.095 32.9406 140.233 32.0484Z" fill="white"></path><path d="M155.243 25.3013C154.831 25.2141 154.314 25.1701 153.69 25.1701C153.315 25.1701 152.929 25.2051 152.529 25.2737C152.129 25.3423 151.806 25.4198 151.556 25.507V33.1245H150.265V24.5903C151.35 24.1781 152.473 23.9724 153.633 23.9724C154.207 23.9724 154.744 24.0224 155.243 24.1222V25.3013Z" fill="white"></path><path d="M195.079 31.0046C194.807 31.2736 194.501 31.4734 194.173 31.6053C193.846 31.7372 193.497 31.8013 193.142 31.8013C192.786 31.8013 192.438 31.7372 192.11 31.6053C191.782 31.4734 191.477 31.2736 191.205 31.0046C190.084 29.8844 190.211 28.1628 191.692 26.6812L192.915 25.4753C192.978 25.4127 193.06 25.3814 193.142 25.3814C193.224 25.3814 193.306 25.4127 193.368 25.4753L194.591 26.6812C196.072 28.1628 196.199 29.8844 195.079 31.0046ZM197.806 28.803C197.685 27.615 196.825 26.4561 195.821 25.4515L195.813 25.444L193.142 22.7893L190.471 25.444L190.463 25.4515C189.459 26.4561 188.598 27.615 188.478 28.803C188.347 30.0909 188.773 31.3109 189.7 32.2336C190.544 33.0742 191.951 33.54 193.142 33.54C194.333 33.54 195.74 33.0742 196.583 32.2336C197.51 31.3109 197.937 30.0909 197.806 28.803Z" fill="white"></path><path d="M185.207 31.0046C184.936 31.2736 184.629 31.4734 184.301 31.6053C183.974 31.7372 183.626 31.8013 183.27 31.8013C182.915 31.8013 182.566 31.7372 182.239 31.6053C181.911 31.4734 181.605 31.2736 181.333 31.0046C180.213 29.8844 180.34 28.1628 181.82 26.6812L183.043 25.4753C183.106 25.4127 183.189 25.3814 183.27 25.3814C183.352 25.3814 183.434 25.4127 183.497 25.4753L184.72 26.6812C186.2 28.1628 186.327 29.8844 185.207 31.0046ZM187.935 28.803C187.813 27.615 186.953 26.4561 185.949 25.4515L185.941 25.444L183.27 22.7893L180.599 25.444L180.591 25.4515C179.588 26.4561 178.727 27.615 178.606 28.803C178.476 30.0909 178.901 31.3109 179.828 32.2336C180.673 33.0742 182.079 33.54 183.27 33.54C184.461 33.54 185.868 33.0742 186.712 32.2336C187.639 31.3109 188.065 30.0909 187.935 28.803Z" fill="white"></path><path d="M162.571 33.1001V23.5985H164.468V25.1174C164.468 25.2076 164.541 25.2813 164.632 25.2813C164.698 25.2813 164.757 25.2403 164.783 25.18C165.043 24.577 165.466 24.1187 165.962 23.828C166.486 23.5217 167.08 23.3689 167.744 23.3689C168.229 23.3689 168.673 23.4353 169.075 23.5694C169.477 23.7036 169.828 23.9115 170.128 24.1925C170.403 24.4496 170.626 24.7812 170.755 25.171C170.777 25.2374 170.839 25.2813 170.909 25.2813C170.973 25.2813 171.03 25.2433 171.057 25.1852C171.358 24.5361 171.753 24.1679 172.264 23.8571C172.801 23.5314 173.465 23.3689 174.257 23.3689C174.985 23.3689 175.614 23.5314 176.144 23.8571C176.674 24.1828 177.089 24.665 177.389 25.3037C177.689 25.9424 177.839 26.7339 177.839 27.6789V33.1001H175.713V27.8898C175.713 26.9955 175.54 26.3217 175.196 25.8686C174.851 25.4155 174.314 25.1882 173.587 25.1882C173.127 25.1882 172.724 25.2843 172.379 25.4759C172.035 25.6674 171.767 25.961 171.575 26.3568C171.384 26.7533 171.287 27.2571 171.287 27.8704V33.1001H169.142V27.8898C169.142 26.9955 168.97 26.3217 168.624 25.8686C168.28 25.4155 167.756 25.1882 167.054 25.1882C166.645 25.1882 166.262 25.3067 165.904 25.5429C165.546 25.7792 165.26 26.1175 165.043 26.558C164.825 26.9985 164.717 27.5448 164.717 28.1961V33.1001H162.571Z" fill="white"></path><path d="M200.174 33.1001L196.956 23.5985H199.216L201.667 31.5812C201.698 31.6811 201.79 31.7504 201.895 31.7504C202 31.7504 202.093 31.6818 202.124 31.582L204.612 23.5985H206.835L203.617 33.1001H200.174Z" fill="white"></path><path d="M208.643 27.4297C208.561 27.4297 208.5 27.3551 208.514 27.2747C208.574 26.9303 208.678 26.6277 208.826 26.3669C209.074 25.9257 209.406 25.5978 209.821 25.3801C210.237 25.1625 210.693 25.0537 211.191 25.0537C211.893 25.0537 212.475 25.2654 212.935 25.6857C213.363 26.0792 213.614 26.6114 213.688 27.2829C213.696 27.3611 213.636 27.4297 213.558 27.4297H208.643ZM215.272 25.638C214.889 24.9553 214.349 24.4061 213.653 23.9909C212.956 23.5758 212.136 23.3686 211.191 23.3686C210.221 23.3686 209.375 23.5825 208.653 24.0096C207.931 24.4381 207.367 25.0254 206.957 25.7722C206.548 26.5197 206.345 27.3976 206.345 28.4067C206.345 29.3771 206.552 30.2327 206.967 30.9735C207.382 31.7143 207.95 32.2919 208.672 32.707C209.394 33.1221 210.227 33.3301 211.172 33.3301C211.938 33.3301 212.619 33.1929 213.213 32.9179C213.806 32.6437 214.304 32.2666 214.707 31.7881C215.109 31.3089 215.399 30.77 215.578 30.1686H213.414C213.234 30.5904 212.953 30.9288 212.57 31.1844C212.187 31.44 211.721 31.5675 211.172 31.5675C210.674 31.5675 210.217 31.4527 209.802 31.2224C209.387 30.9929 209.058 30.6575 208.816 30.217C208.629 29.8779 208.514 29.4755 208.471 29.0112C208.464 28.9337 208.524 28.8666 208.601 28.8666H215.808C215.834 28.6877 215.846 28.5215 215.846 28.368V27.9469C215.846 27.0913 215.655 26.3214 215.272 25.638Z" fill="white"></path><path d="M1.67676 1.11825H12.2031L18.152 21.071H18.2437L24.2842 1.11825H34.5355V33.6104H27.7624V10.6363H27.6707L21.1726 33.6104H14.9488L8.54156 10.6363H8.44989V33.6104H1.67676V1.11825Z" fill="white"></path><path d="M93.1738 1.11796H99.947V7.52441H93.1738V1.11796Z" fill="white"></path><path d="M93.1738 9.81272H99.947V33.6104H93.1738V9.81272Z" fill="white"></path><path d="M103.7 1.11799H110.473V33.6108H103.7V1.11799Z" fill="white"></path></g><defs><clipPath id="clip0_2053_16093"><rect width="214.083" height="36.3326" fill="white" transform="translate(1.67676 1.11816)"></rect></clipPath></defs></svg> 