<?xml version="1.0" encoding="UTF-8"?> <svg xmlns="http://www.w3.org/2000/svg" width="143" height="25" viewBox="0 0 143 25" fill="none"><g clip-path="url(#clip0_4001_5184)"><path d="M31.9651 17.5843C34.0916 17.5843 35.8147 15.8612 35.8147 13.7342C35.8147 11.6081 34.0916 9.88455 31.9651 9.88455C29.8391 9.88455 28.1155 11.6081 28.1155 13.7342C28.1155 15.8612 29.8391 17.5843 31.9651 17.5843ZM23.5752 13.7292C23.5752 9.09107 27.3354 5.33087 31.9735 5.33087C36.6122 5.33087 40.3724 9.09107 40.3724 13.7292C40.3724 18.3669 36.6122 22.1276 31.9735 22.1276C27.3354 22.1276 23.5752 18.3669 23.5752 13.7292Z" fill="#E40521"></path><path d="M50.6804 17.5843C52.8064 17.5843 54.5305 15.8612 54.5305 13.7342C54.5305 11.6082 52.8064 9.88457 50.6804 9.88457C48.5543 9.88457 46.8302 11.6082 46.8302 13.7342C46.8302 15.8612 48.5543 17.5843 50.6804 17.5843ZM42.2656 21.6615V0.000125885H46.781V7.01721C48.0321 5.94947 49.4656 5.43076 51.1131 5.43076C55.6902 5.43076 59.107 9.30573 59.107 13.7595C59.107 18.2143 55.6594 22.0277 51.1131 22.0277C49.4049 22.0277 47.9407 21.5398 46.781 20.2584V21.6615H42.2656Z" fill="#005CA9"></path><path d="M75.4 2.16663H74.9483V0.383412H74.293V0.000336647H76.0553V0.383412H75.4V2.16663Z" fill="#005CA9"></path><path d="M78.4034 2.16663H77.9801V0.356582H77.9746L77.5712 2.16663H77.127L76.732 0.356582H76.7265V2.16663H76.3032V0.000336647H76.9635L77.3566 1.70853H77.362L77.7481 0.000336647H78.4034V2.16663Z" fill="#005CA9"></path><path d="M89.1586 8.12789C89.5452 7.69562 89.7389 7.13417 89.7389 6.44355C89.7389 5.76136 89.5471 5.20439 89.1651 4.77163C88.782 4.33936 88.2543 4.12274 87.5801 4.12274C86.9064 4.12274 86.3762 4.33688 85.9892 4.76517C85.6026 5.19395 85.4093 5.75292 85.4093 6.44355C85.4093 7.12573 85.6106 7.68469 86.0145 8.12143C86.4175 8.55816 86.9396 8.77678 87.5801 8.77678C88.2454 8.77678 88.772 8.56065 89.1586 8.12789ZM85.384 8.69579C84.8101 8.10106 84.5234 7.35031 84.5234 6.44355C84.5234 5.52884 84.8121 4.77759 85.3905 4.1913C85.9683 3.60501 86.6987 3.31187 87.5801 3.31187C88.4784 3.31187 89.2123 3.60501 89.7827 4.1913C90.352 4.77759 90.6372 5.52884 90.6372 6.44355C90.6372 7.35875 90.3501 8.11149 89.7762 8.70175C89.2023 9.29251 88.47 9.58765 87.5801 9.58765C86.6897 9.58765 85.9584 9.29053 85.384 8.69579Z" fill="#575756"></path><path d="M95.5652 0.991205C95.2741 0.90823 94.9745 0.866494 94.6664 0.866494C93.7348 0.866494 93.2693 1.39465 93.2693 2.45097V3.46157H95.1285V4.22275H93.2693V9.4129H92.4082V4.22275H91.4731V3.46157H92.4082V2.40078C92.4082 1.7022 92.5995 1.14523 92.9826 0.729362C93.3647 0.313494 93.9097 0.105311 94.6172 0.105311C94.9332 0.105311 95.2487 0.142576 95.5652 0.217602V0.991205Z" fill="#575756"></path><path d="M100.106 5.99445C100.106 5.41214 99.9584 4.9441 99.6633 4.59083C99.3681 4.23707 98.9294 4.06019 98.3471 4.06019C97.7896 4.06019 97.3345 4.23509 96.9807 4.58437C96.627 4.93366 96.4213 5.40369 96.3632 5.99445H100.106ZM100.955 6.66819H96.3383C96.3383 7.28379 96.5276 7.79555 96.9062 8.20247C97.2843 8.61039 97.8358 8.8141 98.5593 8.8141C98.9503 8.8141 99.3224 8.75796 99.6762 8.64567C100.029 8.53338 100.331 8.40221 100.58 8.25266L100.568 9.06353C99.9023 9.41281 99.1788 9.58771 98.3973 9.58771C97.4985 9.58771 96.785 9.31742 96.2573 8.77684C95.7287 8.23626 95.4648 7.4875 95.4648 6.53105C95.4648 5.56616 95.7307 4.78858 96.2638 4.19782C96.7959 3.60706 97.5109 3.31193 98.4097 3.31193C99.2742 3.31193 99.9192 3.58023 100.343 4.11634C100.768 4.65294 100.98 5.34158 100.98 6.18127C100.98 6.30598 100.971 6.46845 100.955 6.66819Z" fill="#575756"></path><path d="M105.646 4.19766C105.371 4.13952 105.027 4.11021 104.611 4.11021C104.361 4.11021 104.103 4.13356 103.837 4.17878C103.57 4.22449 103.355 4.27666 103.188 4.33479V9.41315H102.327V3.72316C103.051 3.4489 103.799 3.31176 104.573 3.31176C104.956 3.31176 105.313 3.34505 105.646 3.41163V4.19766Z" fill="#575756"></path><path d="M110.662 5.99445C110.662 5.41214 110.514 4.9441 110.219 4.59083C109.924 4.23707 109.485 4.06019 108.903 4.06019C108.345 4.06019 107.89 4.23509 107.536 4.58437C107.183 4.93366 106.977 5.40369 106.919 5.99445H110.662ZM111.51 6.66819H106.894C106.894 7.28379 107.083 7.79555 107.462 8.20247C107.84 8.61039 108.392 8.8141 109.115 8.8141C109.506 8.8141 109.878 8.75796 110.232 8.64567C110.585 8.53338 110.887 8.40221 111.136 8.25266L111.124 9.06353C110.458 9.41281 109.735 9.58771 108.953 9.58771C108.054 9.58771 107.341 9.31742 106.813 8.77684C106.284 8.23626 106.021 7.4875 106.021 6.53105C106.021 5.56616 106.286 4.78858 106.819 4.19782C107.352 3.60706 108.067 3.31193 108.965 3.31193C109.83 3.31193 110.475 3.58023 110.899 4.11634C111.323 4.65294 111.536 5.34158 111.536 6.18127C111.536 6.30598 111.527 6.46845 111.51 6.66819Z" fill="#575756"></path><path d="M117.299 4.50947C117.1 4.40165 116.852 4.30825 116.557 4.22875C116.261 4.14975 115.956 4.1105 115.64 4.1105C114.932 4.1105 114.377 4.31619 113.974 4.72759C113.571 5.13998 113.369 5.70341 113.369 6.41839C113.369 7.10057 113.573 7.6645 113.98 8.10919C114.388 8.55437 114.949 8.77647 115.665 8.77647C116.022 8.77647 116.357 8.73721 116.669 8.65821C116.981 8.57921 117.237 8.48978 117.437 8.38991V9.2132C117.22 9.32152 116.952 9.41095 116.632 9.4815C116.312 9.55206 115.968 9.58783 115.603 9.58783C114.662 9.58783 113.907 9.30065 113.337 8.72678C112.768 8.15291 112.483 7.3962 112.483 6.45565C112.483 5.52455 112.772 4.76784 113.35 4.18502C113.928 3.60321 114.696 3.31155 115.652 3.31155C116.252 3.31155 116.8 3.41589 117.299 3.62358V4.50947Z" fill="#575756"></path><path d="M118.722 3.46162H119.582V9.41345H118.722V3.46162ZM118.66 1.04094H119.658V2.03912H118.66V1.04094Z" fill="#575756"></path><path d="M124.991 8.68933C125.262 8.63915 125.497 8.57307 125.696 8.4896V4.42234C125.463 4.33092 125.23 4.25589 124.998 4.19776C124.765 4.13963 124.506 4.11031 124.224 4.11031C123.517 4.11031 122.955 4.32694 122.539 4.75921C122.124 5.19147 121.916 5.77379 121.916 6.50565C121.916 7.17144 122.103 7.7145 122.477 8.13434C122.851 8.55419 123.417 8.76436 124.174 8.76436C124.449 8.76436 124.721 8.73951 124.991 8.68933ZM121.878 4.20372C122.444 3.60948 123.205 3.31187 124.161 3.31187C124.677 3.31187 125.188 3.40776 125.696 3.59855V0.20503H126.557V9.0262C125.792 9.40083 124.977 9.58765 124.111 9.58765C123.163 9.58765 122.413 9.31139 121.86 8.7579C121.307 8.2049 121.03 7.47104 121.03 6.55584C121.03 5.5825 121.313 4.79846 121.878 4.20372Z" fill="#575756"></path><path d="M132.64 8.12789C133.026 7.69562 133.22 7.13417 133.22 6.44355C133.22 5.76136 133.028 5.20439 132.646 4.77163C132.263 4.33936 131.735 4.12274 131.061 4.12274C130.387 4.12274 129.857 4.33688 129.47 4.76517C129.084 5.19395 128.89 5.75292 128.89 6.44355C128.89 7.12573 129.092 7.68469 129.495 8.12143C129.898 8.55816 130.421 8.77678 131.061 8.77678C131.726 8.77678 132.253 8.56065 132.64 8.12789ZM128.865 8.69579C128.291 8.10106 128.004 7.35031 128.004 6.44355C128.004 5.52884 128.293 4.77759 128.871 4.1913C129.449 3.60501 130.18 3.31187 131.061 3.31187C131.959 3.31187 132.693 3.60501 133.264 4.1913C133.833 4.77759 134.118 5.52884 134.118 6.44355C134.118 7.35875 133.831 8.11149 133.257 8.70175C132.683 9.29251 131.951 9.58765 131.061 9.58765C130.171 9.58765 129.439 9.29053 128.865 8.69579Z" fill="#575756"></path><path d="M85.7834 20.3516C86.2077 20.5846 86.715 20.7009 87.3053 20.7009C87.9795 20.7009 88.5241 20.4932 88.9404 20.0773C89.3558 19.6614 89.564 19.0752 89.564 18.3179C89.564 17.6278 89.3662 17.0788 88.9712 16.6714C88.5762 16.2634 88.0416 16.0597 87.3679 16.0597C87.0688 16.0597 86.7731 16.091 86.482 16.1531C86.1908 16.2158 85.9583 16.2928 85.7834 16.3842V20.3516ZM85.7834 21.1878V24.2698H84.9229V15.8227C85.7377 15.4317 86.5819 15.236 87.4553 15.236C88.37 15.236 89.0979 15.5107 89.639 16.0597C90.1796 16.6088 90.4499 17.3446 90.4499 18.2683C90.4499 19.2416 90.1587 20.0256 89.5764 20.6199C88.9941 21.2146 88.2453 21.5122 87.3306 21.5122C86.715 21.5122 86.1993 21.4039 85.7834 21.1878Z" fill="#575756"></path><path d="M96.1454 20.0522C96.532 19.6199 96.7257 19.0585 96.7257 18.3679C96.7257 17.6857 96.534 17.1287 96.1519 16.6959C95.7688 16.2637 95.2411 16.0471 94.5669 16.0471C93.8932 16.0471 93.363 16.2612 92.976 16.6895C92.5894 17.1183 92.3961 17.6777 92.3961 18.3679C92.3961 19.05 92.5974 19.609 93.0013 20.0457C93.4043 20.4825 93.9265 20.7011 94.5669 20.7011C95.2322 20.7011 95.7589 20.485 96.1454 20.0522ZM92.3708 20.6201C91.7969 20.0254 91.5103 19.2746 91.5103 18.3679C91.5103 17.4532 91.7989 16.7024 92.3773 16.1156C92.9551 15.5293 93.6855 15.2362 94.5669 15.2362C95.4652 15.2362 96.1991 15.5293 96.7695 16.1156C97.3389 16.7024 97.6241 17.4532 97.6241 18.3679C97.6241 19.2831 97.3369 20.0358 96.763 20.6261C96.1891 21.2168 95.4568 21.512 94.5669 21.512C93.6765 21.512 92.9452 21.2148 92.3708 20.6201Z" fill="#575756"></path><path d="M102.378 16.122C102.103 16.0639 101.758 16.0346 101.342 16.0346C101.092 16.0346 100.835 16.0579 100.568 16.1037C100.302 16.1494 100.086 16.201 99.9196 16.2592V21.3375H99.0586V15.648C99.782 15.3733 100.531 15.2361 101.304 15.2361C101.687 15.2361 102.045 15.2694 102.378 15.336V16.122Z" fill="#575756"></path><path d="M128.935 19.9241C128.754 20.1035 128.549 20.2367 128.331 20.3246C128.113 20.4125 127.88 20.4553 127.643 20.4553C127.406 20.4553 127.174 20.4125 126.956 20.3246C126.737 20.2367 126.533 20.1035 126.352 19.9241C125.605 19.1774 125.69 18.0296 126.677 17.0419L127.492 16.238C127.534 16.1962 127.589 16.1754 127.643 16.1754C127.698 16.1754 127.753 16.1962 127.794 16.238L128.61 17.0419C129.597 18.0296 129.681 19.1774 128.935 19.9241ZM130.753 18.4564C130.672 17.6644 130.099 16.8918 129.429 16.2221L129.424 16.2171L127.643 14.4473L125.863 16.2171L125.858 16.2221C125.188 16.8918 124.614 17.6644 124.534 18.4564C124.447 19.315 124.731 20.1283 125.349 20.7435C125.912 21.3039 126.849 21.6144 127.643 21.6144C128.437 21.6144 129.375 21.3039 129.938 20.7435C130.556 20.1283 130.84 19.315 130.753 18.4564Z" fill="#575756"></path><path d="M122.354 19.9241C122.173 20.1035 121.968 20.2367 121.75 20.3246C121.532 20.4125 121.299 20.4553 121.062 20.4553C120.825 20.4553 120.593 20.4125 120.375 20.3246C120.156 20.2367 119.952 20.1035 119.771 19.9241C119.024 19.1774 119.109 18.0296 120.096 17.0419L120.911 16.238C120.953 16.1962 121.008 16.1754 121.062 16.1754C121.117 16.1754 121.171 16.1962 121.213 16.238L122.029 17.0419C123.016 18.0296 123.1 19.1774 122.354 19.9241ZM124.172 18.4564C124.091 17.6644 123.518 16.8918 122.848 16.2221L122.843 16.2171L121.062 14.4473L119.281 16.2171L119.276 16.2221C118.607 16.8918 118.033 17.6644 117.953 18.4564C117.866 19.315 118.15 20.1283 118.768 20.7435C119.331 21.3039 120.268 21.6144 121.062 21.6144C121.856 21.6144 122.794 21.3039 123.357 20.7435C123.975 20.1283 124.259 19.315 124.172 18.4564Z" fill="#575756"></path><path d="M107.263 21.3213V14.9869H108.528V15.9995C108.528 16.0596 108.576 16.1088 108.637 16.1088C108.681 16.1088 108.72 16.0815 108.738 16.0412C108.911 15.6393 109.193 15.3337 109.524 15.1399C109.873 14.9357 110.269 14.8338 110.711 14.8338C111.035 14.8338 111.331 14.8781 111.599 14.9675C111.867 15.0569 112.101 15.1956 112.301 15.3829C112.484 15.5543 112.633 15.7754 112.719 16.0352C112.734 16.0795 112.775 16.1088 112.822 16.1088C112.864 16.1088 112.902 16.0834 112.92 16.0447C113.121 15.6119 113.384 15.3665 113.725 15.1593C114.083 14.9422 114.526 14.8338 115.053 14.8338C115.539 14.8338 115.958 14.9422 116.311 15.1593C116.665 15.3764 116.941 15.6979 117.142 16.1237C117.341 16.5495 117.442 17.0772 117.442 17.7072V21.3213H116.024V17.8478C116.024 17.2515 115.909 16.8024 115.679 16.5003C115.449 16.1982 115.092 16.0467 114.607 16.0467C114.3 16.0467 114.032 16.1108 113.802 16.2385C113.572 16.3662 113.393 16.5619 113.266 16.8257C113.138 17.0901 113.074 17.4259 113.074 17.8349V21.3213H111.643V17.8478C111.643 17.2515 111.529 16.8024 111.299 16.5003C111.069 16.1982 110.72 16.0467 110.252 16.0467C109.979 16.0467 109.724 16.1257 109.485 16.2832C109.247 16.4407 109.055 16.6663 108.911 16.9599C108.766 17.2535 108.694 17.6177 108.694 18.052V21.3213H107.263Z" fill="#575756"></path><path d="M132.331 21.3213L130.186 14.9869H131.693L133.327 20.3087C133.347 20.3753 133.409 20.4215 133.479 20.4215C133.549 20.4215 133.61 20.3758 133.631 20.3092L135.29 14.9869H136.772L134.626 21.3213H132.331Z" fill="#575756"></path><path d="M137.978 17.5411C137.923 17.5411 137.882 17.4914 137.892 17.4378C137.931 17.2082 138.001 17.0065 138.099 16.8326C138.265 16.5385 138.486 16.3199 138.763 16.1748C139.04 16.0297 139.344 15.9572 139.676 15.9572C140.144 15.9572 140.532 16.0983 140.839 16.3785C141.124 16.6408 141.292 16.9956 141.341 17.4432C141.346 17.4954 141.306 17.5411 141.254 17.5411H137.978ZM142.397 16.3467C142.141 15.8916 141.782 15.5254 141.317 15.2486C140.853 14.9719 140.306 14.8338 139.676 14.8338C139.029 14.8338 138.466 14.9764 137.984 15.2611C137.503 15.5468 137.127 15.9383 136.854 16.4361C136.581 16.9345 136.445 17.5198 136.445 18.1925C136.445 18.8394 136.583 19.4098 136.86 19.9037C137.137 20.3975 137.516 20.7826 137.997 21.0594C138.478 21.3361 139.033 21.4747 139.663 21.4747C140.174 21.4747 140.628 21.3833 141.024 21.2C141.419 21.0171 141.751 20.7657 142.02 20.4467C142.288 20.1273 142.482 19.768 142.601 19.3671H141.158C141.038 19.6483 140.851 19.8739 140.596 20.0443C140.34 20.2147 140.03 20.2997 139.663 20.2997C139.332 20.2997 139.027 20.2232 138.75 20.0696C138.473 19.9166 138.254 19.693 138.093 19.3994C137.968 19.1733 137.891 18.905 137.863 18.5955C137.858 18.5438 137.898 18.4991 137.95 18.4991H142.754C142.771 18.3798 142.78 18.269 142.78 18.1667V17.8859C142.78 17.3156 142.652 16.8023 142.397 16.3467Z" fill="#575756"></path><path d="M0 0.00015831H7.01758L10.9835 13.302H11.0446L15.0716 0.00015831H21.9059V21.6616H17.3904V6.3455H17.3293L12.9972 21.6616H8.848L4.57653 6.3455H4.51542V21.6616H0V0.00015831Z" fill="#005CA9"></path><path d="M60.998 2.95639e-05H65.5135V4.271H60.998V2.95639e-05Z" fill="#005CA9"></path><path d="M60.998 5.79629H65.5135V21.6614H60.998V5.79629Z" fill="#005CA9"></path><path d="M68.0151 2.86102e-05H72.5306V21.6619H68.0151V2.86102e-05Z" fill="#005CA9"></path></g><defs><clipPath id="clip0_4001_5184"><rect width="142.722" height="24.2217" fill="white"></rect></clipPath></defs></svg> 