<svg width="80" height="80" viewBox="0 0 80 80" fill="none" xmlns="http://www.w3.org/2000/svg">
<mask id="path-1-inside-1_7088_66578" fill="white">
<path d="M0 40C0 17.9086 17.9086 0 40 0C62.0914 0 80 17.9086 80 40C80 62.0914 62.0914 80 40 80C17.9086 80 0 62.0914 0 40Z"/>
</mask>
<path d="M0 40C0 17.9086 17.9086 0 40 0C62.0914 0 80 17.9086 80 40C80 62.0914 62.0914 80 40 80C17.9086 80 0 62.0914 0 40Z" fill="#FEF2F2"/>
<path d="M0 40M80 40M80 40M0 40M40 0M80 40M40 80M0 40M40 80V79C18.4609 79 1 61.5391 1 40H0H-1C-1 62.6437 17.3563 81 40 81V80ZM80 40H79C79 61.5391 61.5391 79 40 79V80V81C62.6437 81 81 62.6437 81 40H80ZM40 0V1C61.5391 1 79 18.4609 79 40H80H81C81 17.3563 62.6437 -1 40 -1V0ZM40 0V-1C17.3563 -1 -1 17.3563 -1 40H0H1C1 18.4609 18.4609 1 40 1V0Z" fill="#FFE2E2" mask="url(#path-1-inside-1_7088_66578)"/>
<path d="M39.9997 56.6666C49.2044 56.6666 56.6663 49.2047 56.6663 39.9999C56.6663 30.7952 49.2044 23.3333 39.9997 23.3333C30.7949 23.3333 23.333 30.7952 23.333 39.9999C23.333 49.2047 30.7949 56.6666 39.9997 56.6666Z" stroke="#E7000B" stroke-width="3.33333" stroke-linecap="round" stroke-linejoin="round"/>
<path d="M40 33.3333V39.9999" stroke="#E7000B" stroke-width="3.33333" stroke-linecap="round" stroke-linejoin="round"/>
<path d="M40 46.6667H40.0167" stroke="#E7000B" stroke-width="3.33333" stroke-linecap="round" stroke-linejoin="round"/>
</svg>
