<?xml version="1.0" encoding="UTF-8"?> <svg xmlns="http://www.w3.org/2000/svg" width="14" height="14" viewBox="0 0 14 14" fill="none"><path d="M11.0542 8.62449C10.7794 8.05167 9.79651 7.25657 8.84687 6.48832C8.31719 6.06014 7.81669 5.65532 7.49762 5.33624C7.41769 5.25574 7.29812 5.23007 7.19254 5.26799C6.99597 5.33917 6.87462 5.39399 6.77897 5.43657C6.63314 5.50189 6.58414 5.52407 6.38754 5.54389C6.34474 5.54812 6.30339 5.56177 6.26648 5.58385C6.22957 5.60594 6.198 5.63592 6.17404 5.67164C5.76162 6.28822 5.33462 6.23572 5.04937 6.14007C4.95837 6.10974 4.94204 6.07064 4.93329 6.03332C4.87204 5.77724 5.17947 5.18107 5.57787 4.78264C6.52579 3.83414 7.01462 3.59672 8.04712 4.05814C9.21844 4.58197 10.3921 4.99207 10.4038 4.99614C10.44 5.00882 10.4783 5.01422 10.5166 5.01204C10.5549 5.00986 10.5924 5.00015 10.6269 4.98346C10.6614 4.96677 10.6923 4.94342 10.7178 4.91476C10.7433 4.88611 10.7628 4.8527 10.7754 4.81647C10.8279 4.66422 10.7479 4.49797 10.5957 4.44489C10.584 4.44082 9.43369 4.03889 8.28569 3.52497C6.94812 2.92704 6.21426 3.32079 5.16601 4.36964C4.76701 4.76864 4.22509 5.57597 4.36509 6.16807C4.42516 6.42007 4.60251 6.60674 4.86616 6.69364C5.52709 6.91182 6.13024 6.70297 6.57941 6.10682C6.76491 6.07824 6.86584 6.03624 7.01749 5.96799C7.08498 5.93751 7.15305 5.90834 7.22166 5.88049C7.55534 6.19374 8.00566 6.55832 8.47991 6.94157C9.33741 7.63514 10.3098 8.42149 10.5286 8.87649C10.6365 9.10107 10.5204 9.24749 10.4417 9.31457C10.3262 9.41374 10.1681 9.44524 10.0823 9.38514C9.98784 9.32039 9.86476 9.31632 9.76734 9.37464C9.71939 9.40322 9.68065 9.44496 9.65574 9.4949C9.63082 9.54485 9.62076 9.6009 9.62677 9.65639C9.64659 9.84189 9.47684 9.94807 9.40334 9.98482C9.21666 10.0793 9.02184 10.063 8.94891 9.99532C8.86724 9.91949 8.74999 9.89732 8.64616 9.93582C8.54234 9.97489 8.46999 10.0706 8.45949 10.1814C8.44199 10.3727 8.30024 10.5565 8.11531 10.6282C8.02606 10.662 7.89656 10.6825 7.78049 10.5763C7.74489 10.5442 7.70201 10.5213 7.65557 10.5095C7.60912 10.4977 7.5605 10.4974 7.51391 10.5086C7.46729 10.52 7.42419 10.5427 7.38847 10.5748C7.35275 10.6068 7.32551 10.6472 7.30916 10.6924C7.29809 10.7215 7.27299 10.7915 6.99999 10.7915C6.80574 10.7915 6.45631 10.6603 6.28541 10.5471C6.08066 10.4124 4.79674 9.45454 3.68784 8.52587C3.53209 8.39462 3.26259 8.11344 3.02459 7.86494C2.81341 7.64444 2.62034 7.44437 2.52116 7.36036C2.39691 7.25536 2.21316 7.27112 2.10991 7.39479C2.00609 7.51787 2.02124 7.70222 2.14434 7.80604C2.23476 7.88247 2.40977 8.06737 2.60284 8.26862C2.86302 8.54044 3.13191 8.82162 3.31276 8.97329C4.39894 9.88272 5.70444 10.8645 5.96459 11.0354C6.17927 11.1765 6.64184 11.3749 7.00002 11.3749C7.28759 11.3749 7.50869 11.3089 7.66209 11.18C7.86741 11.26 8.10076 11.2605 8.32534 11.173C8.59076 11.0704 8.80891 10.8633 8.93259 10.6125C9.16241 10.6615 9.42552 10.627 9.66466 10.5069C9.89859 10.3891 10.0677 10.2088 10.1517 9.99822C10.3839 10.0105 10.6231 9.92822 10.8208 9.75847C11.1557 9.47207 11.2478 9.02642 11.0542 8.62449Z" fill="white"></path><path d="M5.83318 3.79156H3.20818C3.04718 3.79156 2.9165 3.92224 2.9165 4.08324C2.9165 4.24424 3.04718 4.37492 3.20818 4.37492H5.83318C5.99418 4.37492 6.12486 4.24424 6.12486 4.08324C6.12486 3.92224 5.99418 3.79156 5.83318 3.79156ZM11.9086 8.00382C11.8182 7.87024 11.6374 7.83349 11.5038 7.92449L10.651 8.49732C10.5174 8.58714 10.4818 8.76857 10.5716 8.90214C10.5985 8.94183 10.6346 8.97433 10.6769 8.99681C10.7192 9.01929 10.7664 9.03105 10.8143 9.03106C10.8697 9.03106 10.9263 9.01532 10.9765 8.98149L11.8293 8.40867C11.9629 8.31882 11.9984 8.13742 11.9086 8.00382ZM10.0979 9.39567C9.88911 9.23117 8.95518 8.27509 8.37768 7.67309C8.26625 7.55642 8.08136 7.55234 7.96525 7.66434C7.84858 7.77577 7.84508 7.96067 7.9565 8.07677C8.10643 8.23309 9.42883 9.61152 9.73625 9.85419C9.7876 9.8947 9.85111 9.9167 9.9165 9.91662C10.0023 9.91662 10.088 9.87812 10.1463 9.80519C10.2461 9.67917 10.2245 9.49542 10.0979 9.39567ZM8.93243 9.98074C8.583 9.70132 7.70511 8.76857 7.50675 8.55274C7.39708 8.43374 7.21333 8.42674 7.09433 8.53524C6.9759 8.64431 6.96775 8.82924 7.07683 8.94767C7.08733 8.95874 8.135 10.0898 8.56783 10.4363C8.61959 10.4774 8.68373 10.4999 8.74983 10.4999C8.835 10.4999 8.92015 10.462 8.9779 10.3908C9.07828 10.2648 9.05786 10.0811 8.93243 9.98074ZM7.77161 10.5682C7.35568 10.2176 6.50461 9.31167 6.33836 9.13374C6.22811 9.01592 6.04318 9.00949 5.92593 9.11974C5.80811 9.22999 5.80225 9.41432 5.91193 9.53217C6.15111 9.78824 6.96543 10.6516 7.39536 11.0144C7.44786 11.0588 7.5144 11.0832 7.58318 11.0832C7.666 11.0832 7.74886 11.0477 7.80661 10.9794C7.91043 10.8557 7.89468 10.672 7.77161 10.5682Z" fill="white"></path><path d="M3.409 3.28819C2.90907 2.81452 0.91 2.66109 0.309176 2.62552C0.226352 2.62144 0.149926 2.64884 0.0916016 2.70427C0.0626593 2.73154 0.0396026 2.76445 0.0238495 2.80096C0.0080965 2.83747 -1.9738e-05 2.87683 3.60454e-08 2.91659V8.16659C3.60454e-08 8.32759 0.130676 8.45827 0.291676 8.45827H2.04168C2.16768 8.45827 2.27968 8.37719 2.31875 8.25702C2.36132 8.12634 3.36643 5.04169 3.49882 3.52502C3.50643 3.43634 3.47375 3.34884 3.409 3.28819ZM1.82875 7.87494H0.583324V3.22927C1.52075 3.30334 2.53225 3.46434 2.89975 3.64284C2.74518 4.92034 2.04575 7.19009 1.82875 7.87494ZM13.7083 3.20827C11.4181 3.20827 10.1476 3.79452 10.0946 3.81902C10.0188 3.85459 9.96215 3.92052 9.93882 4.00044C9.9155 4.08037 9.92715 4.16612 9.9709 4.23727C10.3314 4.81769 11.4601 8.04119 11.6771 8.82752C11.6941 8.88906 11.7308 8.94333 11.7816 8.982C11.8324 9.02067 11.8945 9.0416 11.9583 9.04159H13.7083C13.8693 9.04159 14 8.91092 14 8.74992V3.49992C14 3.46161 13.9925 3.42366 13.9779 3.38826C13.9632 3.35286 13.9417 3.3207 13.9146 3.29361C13.8875 3.26652 13.8554 3.24504 13.82 3.2304C13.7846 3.21575 13.7466 3.20823 13.7083 3.20827ZM13.4167 8.45827H12.1765C11.9 7.55759 11.0833 5.20909 10.6278 4.23844C11.0728 4.08737 12.0289 3.82777 13.4167 3.79512V8.45827Z" fill="white"></path></svg> 