<svg width="17" height="11" viewBox="0 0 17 11" fill="none" xmlns="http://www.w3.org/2000/svg">
<path d="M0.084417 5.37382C0.0796608 5.36671 0.0755499 5.35935 0.0712078 5.35206C0.0671806 5.34535 0.0629713 5.33878 0.0592759 5.33187C0.0552986 5.32445 0.0519174 5.31679 0.0483548 5.30922C0.0449567 5.30201 0.0413604 5.29493 0.0382942 5.28756C0.0352447 5.2802 0.0327921 5.27267 0.0301244 5.2652C0.0272739 5.25728 0.0242245 5.24946 0.0217881 5.24135C0.0195344 5.23389 0.0178769 5.2263 0.0159712 5.21876C0.0138827 5.21051 0.0115791 5.20234 0.00990538 5.19394C0.00818242 5.18522 0.00715404 5.17644 0.00589503 5.16768C0.00483428 5.16029 0.00344242 5.15303 0.00269659 5.14556C0.0011058 5.12942 0.000260837 5.11319 0.000243978 5.09697C0.000227794 5.09672 0.00021026 5.09647 0.00021026 5.09624C0.000210935 5.09601 0.000243304 5.09574 0.000243304 5.09551C0.000276347 5.0793 0.0011058 5.06309 0.00269591 5.04692C0.00342556 5.03943 0.00483428 5.03219 0.00589503 5.02479C0.00715471 5.01604 0.00816556 5.00724 0.00990538 4.99854C0.0115629 4.99012 0.0138834 4.98197 0.0159718 4.97372C0.0178775 4.96618 0.0195344 4.95859 0.0217888 4.95113C0.0242414 4.94304 0.0272739 4.9352 0.0301244 4.92728C0.0327928 4.91981 0.0352623 4.9123 0.0382955 4.90492C0.0413611 4.89755 0.0449405 4.89045 0.0483548 4.88326C0.0519342 4.87567 0.0552986 4.86803 0.0592765 4.86061C0.062972 4.8537 0.0671974 4.84712 0.0712092 4.84042C0.0755506 4.83313 0.0796763 4.82575 0.0844163 4.81866C0.0894051 4.81122 0.0949409 4.80423 0.100277 4.79707C0.104702 4.79118 0.108779 4.78512 0.113502 4.77937C0.123977 4.76661 0.135014 4.75434 0.146665 4.74269L4.74289 0.146471C4.93815 -0.0487903 5.25472 -0.048791 5.44998 0.14647C5.64524 0.341731 5.64524 0.658305 5.44998 0.853566L1.70734 4.59621L16.0566 4.59619C16.3327 4.59619 16.5566 4.82006 16.5566 5.09619C16.5566 5.37233 16.3327 5.59619 16.0566 5.59619L1.70733 5.59619L5.44997 9.33883C5.64523 9.53409 5.64523 9.85067 5.44997 10.0459C5.2547 10.2412 4.93811 10.2412 4.74285 10.0459L0.146665 5.44975C0.135014 5.4381 0.123993 5.42586 0.113535 5.41311C0.108829 5.40738 0.104735 5.40133 0.10031 5.39541C0.0949409 5.38825 0.0894051 5.38126 0.084417 5.37382Z" fill="#001450"/>
</svg>
