<svg width="40" height="44" viewBox="0 0 40 44" fill="none" xmlns="http://www.w3.org/2000/svg">
<g opacity="0.5">
<rect x="39.5" y="43.5" width="39" height="43" rx="5.5" transform="rotate(180 39.5 43.5)" stroke="#D2D5DA"/>
<mask id="mask0_5494_132374" style="mask-type:alpha" maskUnits="userSpaceOnUse" x="12" y="14" width="16" height="16">
<g clip-path="url(#clip0_5494_132374)">
<g clip-path="url(#clip1_5494_132374)">
<path d="M16.4715 29.0304C16.3309 28.8897 16.2519 28.699 16.2519 28.5001C16.2519 28.3012 16.3309 28.1104 16.4715 27.9698L22.4411 22.0001L16.4715 16.0304C16.3309 15.8897 16.2519 15.699 16.2519 15.5001C16.2519 15.3012 16.3309 15.1104 16.4715 14.9698C16.6121 14.8291 16.8029 14.7501 17.0018 14.7501C17.2007 14.7501 17.3914 14.8291 17.5321 14.9698L24.5625 22.0001L17.5321 29.0304C17.3915 29.171 17.2007 29.25 17.0018 29.25C16.8029 29.25 16.6122 29.171 16.4715 29.0304Z" fill="black" fill-opacity="0.960784"/>
<path d="M16.6463 28.8535C16.5526 28.7597 16.4999 28.6326 16.4999 28.5C16.4999 28.3674 16.5526 28.2403 16.6463 28.1465L22.7928 22L16.6463 15.8536C16.5999 15.8072 16.563 15.7521 16.5379 15.6914C16.5128 15.6307 16.4998 15.5657 16.4998 15.5C16.4998 15.4343 16.5128 15.3693 16.5379 15.3086C16.563 15.248 16.5999 15.1928 16.6463 15.1464C16.6928 15.1 16.7479 15.0631 16.8086 15.038C16.8692 15.0129 16.9343 14.9999 16.9999 14.9999C17.0656 14.9999 17.1306 15.0129 17.1913 15.038C17.252 15.0631 17.3071 15.1 17.3535 15.1464L24.207 22L17.3535 28.8535C17.3071 28.9 17.252 28.9368 17.1913 28.9619C17.1306 28.9871 17.0656 29 16.9999 29C16.9343 29 16.8692 28.9871 16.8086 28.9619C16.7479 28.9368 16.6928 28.9 16.6463 28.8535Z" fill="black" fill-opacity="0.960784"/>
</g>
</g>
</mask>
<g mask="url(#mask0_5494_132374)">
<rect width="16" height="16" transform="translate(28 30) rotate(180)" fill="#001450"/>
</g>
</g>
<defs>
<clipPath id="clip0_5494_132374">
<rect width="16" height="16" fill="white" transform="translate(28 30) rotate(180)"/>
</clipPath>
<clipPath id="clip1_5494_132374">
<rect width="16" height="64" fill="white" transform="translate(28 30) rotate(180)"/>
</clipPath>
</defs>
</svg>
