<svg width="32" height="32" viewBox="0 0 32 32" fill="none" xmlns="http://www.w3.org/2000/svg">
<rect x="0.5" y="0.5" width="31" height="31" rx="15.5" fill="#F3F4F6"/>
<rect x="0.5" y="0.5" width="31" height="31" rx="15.5" stroke="#001450"/>
<g clip-path="url(#clip0_2143_2321)">
<path d="M22.7 15.7594C22.7041 15.7656 22.7077 15.7719 22.7114 15.7782C22.7149 15.7841 22.7186 15.7898 22.7218 15.7957C22.7252 15.8022 22.7281 15.8088 22.7312 15.8154C22.7342 15.8216 22.7373 15.8278 22.74 15.8342C22.7426 15.8405 22.7447 15.847 22.747 15.8535C22.7495 15.8604 22.7521 15.8672 22.7543 15.8742C22.7562 15.8807 22.7577 15.8872 22.7593 15.8938C22.7611 15.9009 22.7631 15.908 22.7646 15.9153C22.7661 15.9228 22.7669 15.9305 22.768 15.938C22.769 15.9444 22.7702 15.9507 22.7708 15.9572C22.7722 15.9712 22.7729 15.9853 22.7729 15.9993C22.7729 15.9995 22.773 15.9998 22.773 16C22.773 16.0002 22.7729 16.0004 22.7729 16.0006C22.7729 16.0146 22.7722 16.0287 22.7708 16.0427C22.7702 16.0492 22.769 16.0555 22.768 16.0619C22.7669 16.0695 22.7661 16.0771 22.7646 16.0846C22.7631 16.0919 22.7611 16.099 22.7593 16.1061C22.7576 16.1127 22.7562 16.1193 22.7543 16.1257C22.7521 16.1327 22.7495 16.1395 22.747 16.1464C22.7447 16.1529 22.7426 16.1594 22.74 16.1658C22.7373 16.1722 22.7342 16.1783 22.7312 16.1845C22.7281 16.1911 22.7252 16.1977 22.7218 16.2042C22.7186 16.2102 22.7149 16.2159 22.7114 16.2217C22.7077 16.228 22.7041 16.2344 22.7 16.2405C22.6957 16.247 22.6909 16.253 22.6862 16.2592C22.6824 16.2643 22.6789 16.2696 22.6748 16.2746C22.6657 16.2856 22.6561 16.2963 22.646 16.3064L18.6626 20.2898C18.4934 20.459 18.2191 20.459 18.0498 20.2898C17.8806 20.1205 17.8806 19.8462 18.0498 19.6769L21.2934 16.4333L8.85745 16.4333C8.61813 16.4333 8.42412 16.2393 8.42412 16C8.42412 15.7607 8.61813 15.5667 8.85745 15.5667L21.2935 15.5667L18.0498 12.323C17.8806 12.1538 17.8806 11.8795 18.0498 11.7102C18.2191 11.541 18.4934 11.541 18.6627 11.7102L22.646 15.6936C22.6561 15.7037 22.6657 15.7143 22.6747 15.7253C22.6788 15.7303 22.6824 15.7355 22.6862 15.7407C22.6909 15.7469 22.6957 15.7529 22.7 15.7594Z" fill="#001450"/>
</g>
<defs>
<clipPath id="clip0_2143_2321">
<rect width="10.4" height="10.4" fill="white" transform="matrix(0.707107 0.707107 0.707107 -0.707107 8.24609 16)"/>
</clipPath>
</defs>
</svg>
