<svg width="40" height="44" viewBox="0 0 40 44" fill="none" xmlns="http://www.w3.org/2000/svg">
<g opacity="0.5">
<rect x="0.5" y="0.5" width="39" height="43" rx="5.5" stroke="#D2D5DA"/>
<mask id="mask0_5494_132170" style="mask-type:alpha" maskUnits="userSpaceOnUse" x="12" y="14" width="16" height="16">
<g clip-path="url(#clip0_5494_132170)">
<g clip-path="url(#clip1_5494_132170)">
<path d="M23.5285 14.9696C23.6691 15.1103 23.7481 15.301 23.7481 15.4999C23.7481 15.6988 23.6691 15.8896 23.5285 16.0302L17.5589 21.9999L23.5285 27.9696C23.6691 28.1103 23.7481 28.301 23.7481 28.4999C23.7481 28.6988 23.6691 28.8896 23.5285 29.0302C23.3878 29.1709 23.1971 29.2499 22.9982 29.2499C22.7993 29.2499 22.6085 29.1709 22.4679 29.0302L15.4375 21.9999L22.4679 14.9696C22.6085 14.829 22.7993 14.75 22.9982 14.75C23.1971 14.75 23.3878 14.829 23.5285 14.9696Z" fill="black" fill-opacity="0.960784"/>
<path d="M23.3537 15.1465C23.4474 15.2403 23.5001 15.3674 23.5001 15.5C23.5001 15.6326 23.4474 15.7597 23.3537 15.8535L17.2072 22L23.3537 28.1464C23.4001 28.1928 23.437 28.2479 23.4621 28.3086C23.4872 28.3693 23.5002 28.4343 23.5002 28.5C23.5002 28.5657 23.4872 28.6307 23.4621 28.6914C23.437 28.752 23.4001 28.8072 23.3537 28.8536C23.3072 28.9 23.2521 28.9369 23.1914 28.962C23.1308 28.9871 23.0657 29.0001 23.0001 29.0001C22.9344 29.0001 22.8694 28.9871 22.8087 28.962C22.748 28.9369 22.6929 28.9 22.6465 28.8536L15.793 22L22.6465 15.1465C22.6929 15.1 22.748 15.0632 22.8087 15.0381C22.8694 15.0129 22.9344 15 23.0001 15C23.0657 15 23.1308 15.0129 23.1914 15.0381C23.2521 15.0632 23.3072 15.1 23.3537 15.1465Z" fill="black" fill-opacity="0.960784"/>
</g>
</g>
</mask>
<g mask="url(#mask0_5494_132170)">
<rect width="16" height="16" transform="translate(12 14)" fill="#001450"/>
</g>
</g>
<defs>
<clipPath id="clip0_5494_132170">
<rect width="16" height="16" fill="white" transform="translate(12 14)"/>
</clipPath>
<clipPath id="clip1_5494_132170">
<rect width="16" height="64" fill="white" transform="translate(12 14)"/>
</clipPath>
</defs>
</svg>
