<svg width="16" height="16" viewBox="0 0 16 16" fill="none" xmlns="http://www.w3.org/2000/svg">
<mask id="mask0_4324_3218" style="mask-type:alpha" maskUnits="userSpaceOnUse" x="0" y="0" width="16" height="16">
<g clip-path="url(#clip0_4324_3218)">
<g clip-path="url(#clip1_4324_3218)">
<path d="M4.4715 0.96964C4.33087 1.11029 4.25186 1.30104 4.25186 1.49994C4.25186 1.69884 4.33087 1.88959 4.4715 2.03024L10.4411 7.99994L4.4715 13.9696C4.33087 14.1103 4.25186 14.301 4.25186 14.4999C4.25186 14.6988 4.33087 14.8896 4.4715 15.0302C4.61215 15.1709 4.8029 15.2499 5.0018 15.2499C5.2007 15.2499 5.39145 15.1709 5.5321 15.0302L12.5625 7.99994L5.5321 0.96964C5.39145 0.829006 5.2007 0.75 5.0018 0.75C4.8029 0.75 4.61215 0.829006 4.4715 0.96964Z" fill="black" fill-opacity="0.960784"/>
<path d="M4.64633 1.14649C4.5526 1.24026 4.49994 1.36741 4.49994 1.49999C4.49994 1.63258 4.5526 1.75973 4.64633 1.85349L10.7928 7.99999L4.64633 14.1464C4.59989 14.1928 4.56305 14.2479 4.53791 14.3086C4.51278 14.3693 4.49984 14.4343 4.49984 14.5C4.49984 14.5657 4.51278 14.6307 4.53791 14.6914C4.56305 14.752 4.59989 14.8072 4.64633 14.8536C4.69276 14.9 4.74789 14.9369 4.80856 14.962C4.86923 14.9871 4.93426 15.0001 4.99993 15.0001C5.0656 15.0001 5.13063 14.9871 5.1913 14.962C5.25197 14.9369 5.3071 14.9 5.35353 14.8536L12.207 7.99999L5.35353 1.14649C5.3071 1.10005 5.25197 1.06321 5.1913 1.03807C5.13063 1.01294 5.0656 1 4.99993 1C4.93426 1 4.86923 1.01294 4.80856 1.03807C4.74789 1.06321 4.69276 1.10005 4.64633 1.14649Z" fill="black" fill-opacity="0.960784"/>
</g>
</g>
</mask>
<g mask="url(#mask0_4324_3218)">
<rect width="16" height="16" transform="matrix(-1 0 0 1 16 0)" fill="#001450"/>
</g>
<defs>
<clipPath id="clip0_4324_3218">
<rect width="16" height="16" fill="white" transform="matrix(-1 0 0 1 16 0)"/>
</clipPath>
<clipPath id="clip1_4324_3218">
<rect width="16" height="64" fill="white" transform="matrix(-1 0 0 1 16 0)"/>
</clipPath>
</defs>
</svg>
