<svg width="40" height="40" viewBox="0 0 40 40" fill="none" xmlns="http://www.w3.org/2000/svg">
<rect x="-0.5" y="0.5" width="39" height="39" rx="5.5" transform="matrix(-1 0 0 1 39 0)" stroke="#5A5A5A"/>
<mask id="mask0_4592_56960" style="mask-type:alpha" maskUnits="userSpaceOnUse" x="12" y="12" width="16" height="16">
<g clip-path="url(#clip0_4592_56960)">
<g clip-path="url(#clip1_4592_56960)">
<path d="M16.4715 12.9696C16.3309 13.1103 16.2519 13.301 16.2519 13.4999C16.2519 13.6988 16.3309 13.8896 16.4715 14.0302L22.4411 19.9999L16.4715 25.9696C16.3309 26.1103 16.2519 26.301 16.2519 26.4999C16.2519 26.6988 16.3309 26.8896 16.4715 27.0302C16.6122 27.1709 16.8029 27.2499 17.0018 27.2499C17.2007 27.2499 17.3915 27.1709 17.5321 27.0302L24.5625 19.9999L17.5321 12.9696C17.3915 12.829 17.2007 12.75 17.0018 12.75C16.8029 12.75 16.6122 12.829 16.4715 12.9696Z" fill="black" fill-opacity="0.960784"/>
<path d="M16.6463 13.1465C16.5526 13.2403 16.4999 13.3674 16.4999 13.5C16.4999 13.6326 16.5526 13.7597 16.6463 13.8535L22.7928 20L16.6463 26.1464C16.5999 26.1928 16.563 26.2479 16.5379 26.3086C16.5128 26.3693 16.4998 26.4343 16.4998 26.5C16.4998 26.5657 16.5128 26.6307 16.5379 26.6914C16.563 26.752 16.5999 26.8072 16.6463 26.8536C16.6928 26.9 16.7479 26.9369 16.8086 26.962C16.8692 26.9871 16.9343 27.0001 16.9999 27.0001C17.0656 27.0001 17.1306 26.9871 17.1913 26.962C17.252 26.9369 17.3071 26.9 17.3535 26.8536L24.207 20L17.3535 13.1465C17.3071 13.1 17.252 13.0632 17.1913 13.0381C17.1306 13.0129 17.0656 13 16.9999 13C16.9343 13 16.8692 13.0129 16.8086 13.0381C16.7479 13.0632 16.6928 13.1 16.6463 13.1465Z" fill="black" fill-opacity="0.960784"/>
</g>
</g>
</mask>
<g mask="url(#mask0_4592_56960)">
<rect width="16" height="16" transform="matrix(-1 0 0 1 28 12)" fill="#001450"/>
</g>
<defs>
<clipPath id="clip0_4592_56960">
<rect width="16" height="16" fill="white" transform="matrix(-1 0 0 1 28 12)"/>
</clipPath>
<clipPath id="clip1_4592_56960">
<rect width="16" height="64" fill="white" transform="matrix(-1 0 0 1 28 12)"/>
</clipPath>
</defs>
</svg>
