<svg width="16" height="16" viewBox="0 0 16 16" fill="none" xmlns="http://www.w3.org/2000/svg">
<mask id="mask0_4324_3167" style="mask-type:alpha" maskUnits="userSpaceOnUse" x="0" y="0" width="16" height="16">
<g clip-path="url(#clip0_4324_3167)">
<g clip-path="url(#clip1_4324_3167)">
<path d="M11.5285 0.96964C11.6691 1.11029 11.7481 1.30104 11.7481 1.49994C11.7481 1.69884 11.6691 1.88959 11.5285 2.03024L5.5589 7.99994L11.5285 13.9696C11.6691 14.1103 11.7481 14.301 11.7481 14.4999C11.7481 14.6988 11.6691 14.8896 11.5285 15.0302C11.3878 15.1709 11.1971 15.2499 10.9982 15.2499C10.7993 15.2499 10.6085 15.1709 10.4679 15.0302L3.4375 7.99994L10.4679 0.96964C10.6085 0.829006 10.7993 0.75 10.9982 0.75C11.1971 0.75 11.3878 0.829006 11.5285 0.96964Z" fill="black" fill-opacity="0.960784"/>
<path d="M11.3537 1.14649C11.4474 1.24026 11.5001 1.36741 11.5001 1.49999C11.5001 1.63258 11.4474 1.75973 11.3537 1.85349L5.20717 7.99999L11.3537 14.1464C11.4001 14.1928 11.437 14.2479 11.4621 14.3086C11.4872 14.3693 11.5002 14.4343 11.5002 14.5C11.5002 14.5657 11.4872 14.6307 11.4621 14.6914C11.437 14.752 11.4001 14.8072 11.3537 14.8536C11.3072 14.9 11.2521 14.9369 11.1914 14.962C11.1308 14.9871 11.0657 15.0001 11.0001 15.0001C10.9344 15.0001 10.8694 14.9871 10.8087 14.962C10.748 14.9369 10.6929 14.9 10.6465 14.8536L3.79297 7.99999L10.6465 1.14649C10.6929 1.10005 10.748 1.06321 10.8087 1.03807C10.8694 1.01294 10.9344 1 11.0001 1C11.0657 1 11.1308 1.01294 11.1914 1.03807C11.2521 1.06321 11.3072 1.10005 11.3537 1.14649Z" fill="black" fill-opacity="0.960784"/>
</g>
</g>
</mask>
<g mask="url(#mask0_4324_3167)">
<rect width="16" height="16" fill="#001450"/>
</g>
<defs>
<clipPath id="clip0_4324_3167">
<rect width="16" height="16" fill="white"/>
</clipPath>
<clipPath id="clip1_4324_3167">
<rect width="16" height="64" fill="white"/>
</clipPath>
</defs>
</svg>
