<svg width="12" height="12" viewBox="0 0 12 12" fill="none" xmlns="http://www.w3.org/2000/svg">
<path d="M11.5977 0.00967407C11.6061 0.0113382 11.6142 0.0136347 11.6224 0.0157204C11.63 0.0176191 11.6376 0.0192833 11.6451 0.0215569C11.6532 0.0239944 11.661 0.0270176 11.6689 0.0298538C11.6764 0.0325489 11.6839 0.0350094 11.6913 0.0380564C11.6987 0.0411034 11.7057 0.0446892 11.7129 0.0480881C11.7205 0.0516739 11.7282 0.0550489 11.7357 0.0590563C11.7425 0.0627365 11.7491 0.0669317 11.7557 0.0709162C11.7631 0.0752754 11.7705 0.0794239 11.7776 0.0841818C11.785 0.0891275 11.7919 0.0946112 11.799 0.0999088C11.805 0.104385 11.8111 0.108534 11.8169 0.113292C11.8294 0.123581 11.8415 0.134456 11.853 0.145916C11.8532 0.146081 11.8534 0.146244 11.8535 0.146408C11.8537 0.146573 11.8539 0.146783 11.854 0.146947C11.8655 0.158431 11.8763 0.170479 11.8866 0.183041C11.8914 0.188853 11.8955 0.194971 11.9 0.200948C11.9053 0.208026 11.9108 0.214963 11.9157 0.222345C11.9205 0.229471 11.9247 0.236877 11.929 0.24419C11.933 0.25087 11.9372 0.257408 11.9409 0.264276C11.9449 0.271729 11.9483 0.279416 11.9518 0.287033C11.9552 0.294206 11.9588 0.30126 11.9619 0.308619C11.9649 0.316002 11.9674 0.323549 11.9701 0.331049C11.9729 0.338947 11.9759 0.346728 11.9784 0.354792C11.9806 0.362291 11.9823 0.369931 11.9842 0.377502C11.9863 0.385729 11.9886 0.393861 11.9903 0.402228C11.992 0.411017 11.993 0.419877 11.9943 0.428713C11.9953 0.436002 11.9967 0.443174 11.9975 0.450581C11.9991 0.46701 12 0.483486 12 0.499963V7C12 7.27614 11.7761 7.49999 11.5 7.49999C11.2238 7.49999 11 7.27614 11 7V1.70711L0.853553 11.8536C0.658295 12.0488 0.341701 12.0488 0.146443 11.8536C-0.0488145 11.6583 -0.0488145 11.3417 0.146443 11.1464L10.2929 1H5C4.72386 1 4.50001 0.776151 4.50001 0.50001C4.50001 0.223869 4.72386 -5.72205e-06 5 -5.72205e-06H11.5C11.5165 -5.72205e-06 11.5329 0.000861168 11.5493 0.0024786C11.5567 0.0032053 11.5639 0.00458813 11.5712 0.00564289C11.5801 0.00690842 11.5889 0.00793934 11.5977 0.00967407Z" fill="white"/>
</svg>
