<svg width="40" height="40" viewBox="0 0 40 40" fill="none" xmlns="http://www.w3.org/2000/svg">
<rect x="0.5" y="-0.5" width="39" height="39" rx="5.5" transform="matrix(1 0 0 -1 0 39)" fill="white"/>
<rect x="0.5" y="-0.5" width="39" height="39" rx="5.5" transform="matrix(1 0 0 -1 0 39)" stroke="#5A5A5A"/>
<mask id="mask0_5494_132430" style="mask-type:alpha" maskUnits="userSpaceOnUse" x="12" y="12" width="16" height="16">
<g clip-path="url(#clip0_5494_132430)">
<g clip-path="url(#clip1_5494_132430)">
<path d="M23.5285 27.0304C23.6691 26.8897 23.7481 26.699 23.7481 26.5001C23.7481 26.3012 23.6691 26.1104 23.5285 25.9698L17.5589 20.0001L23.5285 14.0304C23.6691 13.8897 23.7481 13.699 23.7481 13.5001C23.7481 13.3012 23.6691 13.1104 23.5285 12.9698C23.3878 12.8291 23.1971 12.7501 22.9982 12.7501C22.7993 12.7501 22.6085 12.8291 22.4679 12.9698L15.4375 20.0001L22.4679 27.0304C22.6085 27.171 22.7993 27.25 22.9982 27.25C23.1971 27.25 23.3878 27.171 23.5285 27.0304Z" fill="black" fill-opacity="0.960784"/>
<path d="M23.3537 26.8535C23.4474 26.7597 23.5001 26.6326 23.5001 26.5C23.5001 26.3674 23.4474 26.2403 23.3537 26.1465L17.2072 20L23.3537 13.8536C23.4001 13.8072 23.437 13.7521 23.4621 13.6914C23.4872 13.6307 23.5002 13.5657 23.5002 13.5C23.5002 13.4343 23.4872 13.3693 23.4621 13.3086C23.437 13.248 23.4001 13.1928 23.3537 13.1464C23.3072 13.1 23.2521 13.0631 23.1914 13.038C23.1308 13.0129 23.0657 12.9999 23.0001 12.9999C22.9344 12.9999 22.8694 13.0129 22.8087 13.038C22.748 13.0631 22.6929 13.1 22.6465 13.1464L15.793 20L22.6465 26.8535C22.6929 26.9 22.748 26.9368 22.8087 26.9619C22.8694 26.9871 22.9344 27 23.0001 27C23.0657 27 23.1308 26.9871 23.1914 26.9619C23.2521 26.9368 23.3072 26.9 23.3537 26.8535Z" fill="black" fill-opacity="0.960784"/>
</g>
</g>
</mask>
<g mask="url(#mask0_5494_132430)">
<rect width="16" height="16" transform="matrix(1 0 0 -1 12 28)" fill="#001450"/>
</g>
<defs>
<clipPath id="clip0_5494_132430">
<rect width="16" height="16" fill="white" transform="matrix(1 0 0 -1 12 28)"/>
</clipPath>
<clipPath id="clip1_5494_132430">
<rect width="16" height="64" fill="white" transform="matrix(1 0 0 -1 12 28)"/>
</clipPath>
</defs>
</svg>
