<svg width="14" height="14" viewBox="0 0 14 14" fill="none" xmlns="http://www.w3.org/2000/svg">
<path d="M0 12.7533V2.37317C0 2.27583 0.0227778 2.18667 0.0683333 2.10567C0.113889 2.02456 0.176611 1.95356 0.2565 1.89267L3.0305 0.091333C3.12428 0.0304441 3.22717 0 3.33917 0C3.45117 0 3.55706 0.0304441 3.65683 0.091333L6.43083 1.89267C6.50806 1.95378 6.56944 2.02483 6.615 2.10583C6.66056 2.18683 6.68333 2.27594 6.68333 2.37317V3.89167H12.9488C13.1092 3.89167 13.2439 3.94622 13.353 4.05533C13.4621 4.16444 13.5167 4.29911 13.5167 4.45933V12.7533C13.5167 12.9136 13.4621 13.0482 13.353 13.1573C13.2439 13.2664 13.1092 13.321 12.9488 13.321H0.567833C0.4075 13.321 0.272778 13.2664 0.163667 13.1573C0.0545555 13.0482 0 12.9136 0 12.7533ZM1.09167 12.2293H2.84167V10.4793H1.09167V12.2293ZM1.09167 9.47933H2.84167V7.72933H1.09167V9.47933ZM1.09167 6.72933H2.84167V4.97933H1.09167V6.72933ZM1.09167 3.97933H2.84167V2.22933H1.09167V3.97933ZM3.84167 3.97933H5.59167V2.22933H3.84167V3.97933ZM3.84167 12.2293H12.425V4.97933H3.84167V12.2293ZM8.425 6.72933H10.175C10.3167 6.72933 10.4354 6.77756 10.5313 6.874C10.6271 6.97033 10.675 7.08978 10.675 7.23233C10.675 7.37478 10.6271 7.49322 10.5313 7.58767C10.4354 7.68211 10.3167 7.72933 10.175 7.72933H8.425C8.28333 7.72933 8.16461 7.68117 8.06883 7.58483C7.97294 7.48839 7.925 7.36894 7.925 7.2265C7.925 7.08394 7.97294 6.96544 8.06883 6.871C8.16461 6.77656 8.28333 6.72933 8.425 6.72933ZM8.425 9.47933H10.175C10.3167 9.47933 10.4354 9.52756 10.5313 9.624C10.6271 9.72033 10.675 9.83978 10.675 9.98233C10.675 10.1248 10.6271 10.2432 10.5313 10.3377C10.4354 10.4321 10.3167 10.4793 10.175 10.4793H8.425C8.28333 10.4793 8.16461 10.4312 8.06883 10.3348C7.97294 10.2384 7.925 10.1189 7.925 9.9765C7.925 9.83394 7.97294 9.71544 8.06883 9.621C8.16461 9.52656 8.28333 9.47933 8.425 9.47933ZM6.59167 7.23233C6.59167 7.37478 6.54344 7.49322 6.447 7.58767C6.35067 7.68211 6.23122 7.72933 6.08867 7.72933C5.94622 7.72933 5.82778 7.68117 5.73333 7.58483C5.63889 7.48839 5.59167 7.36894 5.59167 7.2265C5.59167 7.08394 5.63989 6.96544 5.73633 6.871C5.83267 6.77656 5.95211 6.72933 6.09467 6.72933C6.23711 6.72933 6.35556 6.77756 6.45 6.874C6.54444 6.97033 6.59167 7.08978 6.59167 7.23233ZM6.08867 10.4793C5.94622 10.4793 5.82778 10.4312 5.73333 10.3348C5.63889 10.2384 5.59167 10.1189 5.59167 9.9765C5.59167 9.83394 5.63989 9.71544 5.73633 9.621C5.83267 9.52656 5.95211 9.47933 6.09467 9.47933C6.23711 9.47933 6.35556 9.52756 6.45 9.624C6.54444 9.72033 6.59167 9.83978 6.59167 9.98233C6.59167 10.1248 6.54344 10.2432 6.447 10.3377C6.35067 10.4321 6.23122 10.4793 6.08867 10.4793Z" fill="#001450"/>
</svg>
