<svg width="20" height="20" viewBox="0 0 20 20" fill="none" xmlns="http://www.w3.org/2000/svg">
<path d="M15.8332 14.1666H17.4998C17.9998 14.1666 18.3332 13.8333 18.3332 13.3333V10.8333C18.3332 10.0833 17.7498 9.41659 17.0832 9.24992C15.5832 8.83325 13.3332 8.33325 13.3332 8.33325C13.3332 8.33325 12.2498 7.16659 11.4998 6.41659C11.0832 6.08325 10.5832 5.83325 9.99984 5.83325H4.1665C3.6665 5.83325 3.24984 6.16659 2.99984 6.58325L1.83317 8.99992C1.72282 9.32177 1.6665 9.65967 1.6665 9.99992V13.3333C1.6665 13.8333 1.99984 14.1666 2.49984 14.1666H4.1665" stroke="#001450" stroke-width="1.66667" stroke-linecap="round" stroke-linejoin="round"/>
<path d="M5.83317 15.8333C6.75365 15.8333 7.49984 15.0871 7.49984 14.1667C7.49984 13.2462 6.75365 12.5 5.83317 12.5C4.9127 12.5 4.1665 13.2462 4.1665 14.1667C4.1665 15.0871 4.9127 15.8333 5.83317 15.8333Z" stroke="#001450" stroke-width="1.66667" stroke-linecap="round" stroke-linejoin="round"/>
<path d="M7.5 14.1667H12.5" stroke="#001450" stroke-width="1.66667" stroke-linecap="round" stroke-linejoin="round"/>
<path d="M14.1667 15.8333C15.0871 15.8333 15.8333 15.0871 15.8333 14.1667C15.8333 13.2462 15.0871 12.5 14.1667 12.5C13.2462 12.5 12.5 13.2462 12.5 14.1667C12.5 15.0871 13.2462 15.8333 14.1667 15.8333Z" stroke="#001450" stroke-width="1.66667" stroke-linecap="round" stroke-linejoin="round"/>
</svg>
