<svg width="32" height="12" viewBox="0 0 32 12" fill="none" xmlns="http://www.w3.org/2000/svg">
<path d="M8.85038 8.85041C8.85038 10.2339 7.72888 11.3555 6.34532 11.3555C4.96189 11.3555 3.84033 10.2339 3.84033 8.85041C3.84033 7.46692 4.96189 6.34536 6.34532 6.34536C7.72888 6.34536 8.85038 7.46692 8.85038 8.85041Z" stroke="#001450" stroke-width="0.666667" stroke-miterlimit="10" stroke-linecap="round" stroke-linejoin="round"/>
<path d="M8.85034 9.85254H23.3795" stroke="#001450" stroke-width="0.666667" stroke-miterlimit="10" stroke-linecap="round" stroke-linejoin="round"/>
<path d="M6.69946 8.4956L5.99097 9.2041" stroke="#001450" stroke-width="0.666667" stroke-miterlimit="10" stroke-linecap="round" stroke-linejoin="round"/>
<path d="M28.3894 8.85041C28.3894 10.2339 27.2679 11.3555 25.8844 11.3555C24.501 11.3555 23.3794 10.2339 23.3794 8.85041C23.3794 7.46692 24.501 6.34536 25.8844 6.34536C27.2679 6.34536 28.3894 7.46692 28.3894 8.85041Z" stroke="#001450" stroke-width="0.666667" stroke-miterlimit="10" stroke-linecap="round" stroke-linejoin="round"/>
<path d="M25.5305 8.4956L26.239 9.2041" stroke="#001450" stroke-width="0.666667" stroke-miterlimit="10" stroke-linecap="round" stroke-linejoin="round"/>
<path d="M3.8403 9.35154L1.42337 8.66098C1.10932 8.57125 0.833044 8.38166 0.636353 8.1209C0.439661 7.86015 0.33326 7.54242 0.333252 7.2158V4.22399C0.333252 3.71868 0.709563 3.29243 1.211 3.22975L3.06399 2.99812C3.90939 2.89246 4.73066 2.64379 5.49267 2.26275L7.87036 1.07394C8.8443 0.586958 9.91825 0.333433 11.0072 0.333442H15.4708C16.7096 0.333442 17.9225 0.686691 18.9676 1.35169L22.8786 3.84049C22.8786 3.84049 27.4201 3.84049 30.2534 5.15624C30.955 5.48211 31.3957 6.19405 31.3957 6.96774V8.63098C31.3957 9.40654 30.947 9.85254 30.3937 9.85254" stroke="#001450" stroke-width="0.666667" stroke-miterlimit="10" stroke-linecap="round" stroke-linejoin="round"/>
<path d="M9.85251 3.84082H8.88614C8.22174 3.84081 7.58456 3.57688 7.11477 3.10707L6.34546 2.33782" stroke="#001450" stroke-width="0.666667" stroke-miterlimit="10" stroke-linecap="round" stroke-linejoin="round"/>
<path d="M22.8788 3.84082H11.8567" stroke="#001450" stroke-width="0.666667" stroke-miterlimit="10" stroke-linecap="round" stroke-linejoin="round"/>
<path d="M10.8542 7.84863H21.3753" stroke="#001450" stroke-width="0.666667" stroke-miterlimit="10" stroke-linecap="round" stroke-linejoin="round"/>
<path d="M0.333252 5.34277H1.33525" stroke="#001450" stroke-width="0.666667" stroke-miterlimit="10" stroke-linecap="round" stroke-linejoin="round"/>
<path d="M29.8923 6.34473H31.1031" stroke="#001450" stroke-width="0.666667" stroke-miterlimit="10" stroke-linecap="round" stroke-linejoin="round"/>
<path d="M13.8606 3.84082V0.333769" stroke="#001450" stroke-width="0.666667" stroke-miterlimit="10" stroke-linecap="round" stroke-linejoin="round"/>
<path d="M8.09888 3.63672L8.75113 0.755602" stroke="#001450" stroke-width="0.666667" stroke-miterlimit="10" stroke-linecap="round" stroke-linejoin="round"/>
</svg>
