<svg width="32" height="32" viewBox="0 0 32 32" fill="none" xmlns="http://www.w3.org/2000/svg">
<mask id="mask0_4607_92722" style="mask-type:luminance" maskUnits="userSpaceOnUse" x="0" y="0" width="32" height="32">
<path d="M31.667 31.667V0.333008H0.333008V31.667H31.667Z" fill="white" stroke="white" stroke-width="0.666667"/>
</mask>
<g mask="url(#mask0_4607_92722)">
<path d="M8.98594 19.0057C8.98594 20.3892 7.86444 21.5107 6.48088 21.5107C5.09745 21.5107 3.97589 20.3892 3.97589 19.0057C3.97589 17.6222 5.09745 16.5006 6.48088 16.5006C7.86444 16.5006 8.98594 17.6222 8.98594 19.0057Z" stroke="#D2D5DA" stroke-width="0.666667" stroke-miterlimit="10" stroke-linecap="round" stroke-linejoin="round"/>
<path d="M8.98566 20.0078H23.5149" stroke="#D2D5DA" stroke-width="0.666667" stroke-miterlimit="10" stroke-linecap="round" stroke-linejoin="round"/>
<path d="M6.83478 18.6509L6.12628 19.3594" stroke="#D2D5DA" stroke-width="0.666667" stroke-miterlimit="10" stroke-linecap="round" stroke-linejoin="round"/>
<path d="M28.525 19.0057C28.525 20.3892 27.4035 21.5107 26.0199 21.5107C24.6365 21.5107 23.515 20.3892 23.515 19.0057C23.515 17.6222 24.6365 16.5006 26.0199 16.5006C27.4035 16.5006 28.525 17.6222 28.525 19.0057Z" stroke="#D2D5DA" stroke-width="0.666667" stroke-miterlimit="10" stroke-linecap="round" stroke-linejoin="round"/>
<path d="M25.666 18.6509L26.3745 19.3594" stroke="#D2D5DA" stroke-width="0.666667" stroke-miterlimit="10" stroke-linecap="round" stroke-linejoin="round"/>
<path d="M3.9758 19.5068L1.55887 18.8163C1.24482 18.7265 0.968542 18.5369 0.771851 18.2762C0.575159 18.0154 0.468758 17.6977 0.46875 17.3711V14.3793C0.46875 13.874 0.845061 13.4477 1.3465 13.385L3.19949 13.1534C4.04489 13.0477 4.86616 12.7991 5.62817 12.418L8.00585 11.2292C8.9798 10.7422 10.0537 10.4887 11.1427 10.4887H15.6063C16.8451 10.4887 18.058 10.842 19.1031 11.507L23.0141 13.9958C23.0141 13.9958 27.5556 13.9958 30.3889 15.3115C31.0905 15.6374 31.5312 16.3493 31.5312 17.123V18.7863C31.5312 19.5618 31.0825 20.0078 30.5292 20.0078" stroke="#D2D5DA" stroke-width="0.666667" stroke-miterlimit="10" stroke-linecap="round" stroke-linejoin="round"/>
<path d="M9.98819 13.9961H9.02182C8.35742 13.9961 7.72024 13.7321 7.25045 13.2623L6.48114 12.4931" stroke="#D2D5DA" stroke-width="0.666667" stroke-miterlimit="10" stroke-linecap="round" stroke-linejoin="round"/>
<path d="M23.0143 13.9961H11.9922" stroke="#D2D5DA" stroke-width="0.666667" stroke-miterlimit="10" stroke-linecap="round" stroke-linejoin="round"/>
<path d="M10.9896 18.0039H21.5107" stroke="#D2D5DA" stroke-width="0.666667" stroke-miterlimit="10" stroke-linecap="round" stroke-linejoin="round"/>
<path d="M0.46875 15.498H1.47075" stroke="#D2D5DA" stroke-width="0.666667" stroke-miterlimit="10" stroke-linecap="round" stroke-linejoin="round"/>
<path d="M30.028 16.5H31.2388" stroke="#D2D5DA" stroke-width="0.666667" stroke-miterlimit="10" stroke-linecap="round" stroke-linejoin="round"/>
<path d="M13.9961 13.9961V10.489" stroke="#D2D5DA" stroke-width="0.666667" stroke-miterlimit="10" stroke-linecap="round" stroke-linejoin="round"/>
<path d="M8.23438 13.792L8.88662 10.9109" stroke="#D2D5DA" stroke-width="0.666667" stroke-miterlimit="10" stroke-linecap="round" stroke-linejoin="round"/>
</g>
</svg>
