<svg width="20" height="20" viewBox="0 0 20 20" fill="none" xmlns="http://www.w3.org/2000/svg">
<g clip-path="url(#clip0_7019_8038)">
<path d="M19.4284 2.73409C19.1342 2.43936 18.6568 2.43885 18.3626 2.73284L9.31989 11.7517L6.05731 8.20819C5.7754 7.90217 5.29876 7.88233 4.99224 8.16421C4.68595 8.44612 4.66634 8.92299 4.94825 9.22928L8.74224 13.3496C8.81097 13.4243 8.8941 13.4844 8.98663 13.5261C9.07916 13.5679 9.17918 13.5905 9.28067 13.5926C9.28618 13.5928 9.29149 13.5928 9.29677 13.5928C9.49624 13.5928 9.68756 13.5137 9.82892 13.373L19.4269 3.80014C19.7219 3.5062 19.7224 3.02881 19.4284 2.73409Z" fill="#001450"/>
<path d="M19.2462 9.24621C18.8299 9.24621 18.4925 9.58363 18.4925 10C18.4925 14.6829 14.6829 18.4925 10 18.4925C5.31734 18.4925 1.50754 14.6829 1.50754 10C1.50754 5.31734 5.31734 1.50754 10 1.50754C10.4163 1.50754 10.7538 1.17012 10.7538 0.753789C10.7538 0.337422 10.4163 0 10 0C4.48594 0 0 4.48594 0 10C0 15.5138 4.48594 20 10 20C15.5138 20 20 15.5138 20 10C20 9.58367 19.6626 9.24621 19.2462 9.24621Z" fill="#001450"/>
</g>
<defs>
<clipPath id="clip0_7019_8038">
<rect width="20" height="20" fill="white"/>
</clipPath>
</defs>
</svg>
