<svg width="16" height="16" viewBox="0 0 16 16" fill="none" xmlns="http://www.w3.org/2000/svg">
<path d="M10.0001 1.3335H4.00008C3.64646 1.3335 3.30732 1.47397 3.05727 1.72402C2.80722 1.97407 2.66675 2.31321 2.66675 2.66683V13.3335C2.66675 13.6871 2.80722 14.0263 3.05727 14.2763C3.30732 14.5264 3.64646 14.6668 4.00008 14.6668H12.0001C12.3537 14.6668 12.6928 14.5264 12.9429 14.2763C13.1929 14.0263 13.3334 13.6871 13.3334 13.3335V4.66683L10.0001 1.3335Z" stroke="#D0000A" stroke-width="1.33333" stroke-linecap="round" stroke-linejoin="round"/>
<path d="M9.33325 1.3335V4.00016C9.33325 4.35378 9.47373 4.69292 9.72378 4.94297C9.97383 5.19302 10.313 5.3335 10.6666 5.3335H13.3333" stroke="#D0000A" stroke-width="1.33333" stroke-linecap="round" stroke-linejoin="round"/>
<path d="M6.66659 6H5.33325" stroke="#D0000A" stroke-width="1.33333" stroke-linecap="round" stroke-linejoin="round"/>
<path d="M10.6666 8.6665H5.33325" stroke="#D0000A" stroke-width="1.33333" stroke-linecap="round" stroke-linejoin="round"/>
<path d="M10.6666 11.3335H5.33325" stroke="#D0000A" stroke-width="1.33333" stroke-linecap="round" stroke-linejoin="round"/>
</svg>
