<svg width="24" height="24" viewBox="0 0 24 24" fill="none" xmlns="http://www.w3.org/2000/svg">
<rect width="24" height="24" rx="12" fill="#001450"/>
<path d="M14.5346 10.5H13.7166V8C13.7166 7.725 13.4851 7.5 13.2022 7.5H11.1445C10.8616 7.5 10.6301 7.725 10.6301 8V10.5H9.81215C9.35431 10.5 9.12282 11.04 9.44691 11.355L11.8081 13.65C12.0087 13.845 12.3328 13.845 12.5334 13.65L14.8946 11.355C15.2187 11.04 14.9924 10.5 14.5346 10.5ZM8.57239 15.5C8.57239 15.775 8.80388 16 9.08681 16H15.2599C15.5428 16 15.7743 15.775 15.7743 15.5C15.7743 15.225 15.5428 15 15.2599 15H9.08681C8.80388 15 8.57239 15.225 8.57239 15.5Z" fill="white"/>
</svg>
