<svg width="16" height="16" viewBox="0 0 16 16" fill="none" xmlns="http://www.w3.org/2000/svg">
<path d="M14 12V10C14 9.86739 13.9473 9.74021 13.8536 9.64645C13.7598 9.55268 13.6326 9.5 13.5 9.5C13.3674 9.5 13.2402 9.55268 13.1464 9.64645C13.0527 9.74021 13 9.86739 13 10V12C13 12.1326 12.9473 12.2598 12.8536 12.3536C12.7598 12.4473 12.6326 12.5 12.5 12.5H3.5C3.36739 12.5 3.24021 12.4473 3.14645 12.3536C3.05268 12.2598 3 12.1326 3 12V10C3 9.86739 2.94732 9.74021 2.85355 9.64645C2.75979 9.55268 2.63261 9.5 2.5 9.5C2.36739 9.5 2.24021 9.55268 2.14645 9.64645C2.05268 9.74021 2 9.86739 2 10V12C2 12.3978 2.15804 12.7794 2.43934 13.0607C2.72064 13.342 3.10218 13.5 3.5 13.5H12.5C12.8978 13.5 13.2794 13.342 13.5607 13.0607C13.842 12.7794 14 12.3978 14 12ZM10.81 9.39L8.31 11.39C8.22173 11.4598 8.11251 11.4977 8 11.4977C7.88749 11.4977 7.77827 11.4598 7.69 11.39L5.19 9.39C5.09891 9.30402 5.04341 9.18697 5.03448 9.06203C5.02556 8.93708 5.06386 8.81334 5.1418 8.71528C5.21975 8.61722 5.33166 8.55199 5.4554 8.53249C5.57913 8.513 5.70568 8.54066 5.81 8.61L7.5 9.96V3C7.5 2.86739 7.55268 2.74021 7.64645 2.64645C7.74021 2.55268 7.86739 2.5 8 2.5C8.13261 2.5 8.25979 2.55268 8.35355 2.64645C8.44732 2.74021 8.5 2.86739 8.5 3V9.96L10.19 8.61C10.2403 8.56247 10.3 8.52592 10.3652 8.50266C10.4304 8.4794 10.4998 8.46994 10.5688 8.47487C10.6379 8.4798 10.7052 8.49903 10.7664 8.53132C10.8277 8.56362 10.8815 8.60828 10.9246 8.66248C10.9677 8.71668 10.9991 8.77924 11.0167 8.84619C11.0343 8.91314 11.0379 8.98302 11.0271 9.05142C11.0163 9.11981 10.9915 9.18522 10.9541 9.2435C10.9167 9.30179 10.8677 9.35167 10.81 9.39Z" fill="#001450"/>
</svg>
