<svg width="18" height="17" viewBox="0 0 18 17" fill="none" xmlns="http://www.w3.org/2000/svg">
<path d="M18 14.25V11.25C18 11.0511 17.921 10.8603 17.7803 10.7197C17.6397 10.579 17.4489 10.5 17.25 10.5C17.0511 10.5 16.8603 10.579 16.7197 10.7197C16.579 10.8603 16.5 11.0511 16.5 11.25V14.25C16.5 14.4489 16.421 14.6397 16.2803 14.7803C16.1397 14.921 15.9489 15 15.75 15H2.25C2.05109 15 1.86032 14.921 1.71967 14.7803C1.57902 14.6397 1.5 14.4489 1.5 14.25V11.25C1.5 11.0511 1.42098 10.8603 1.28033 10.7197C1.13968 10.579 0.948912 10.5 0.75 10.5C0.551088 10.5 0.360322 10.579 0.21967 10.7197C0.0790178 10.8603 0 11.0511 0 11.25V14.25C0 14.8467 0.237053 15.419 0.65901 15.841C1.08097 16.2629 1.65326 16.5 2.25 16.5H15.75C16.3467 16.5 16.919 16.2629 17.341 15.841C17.7629 15.419 18 14.8467 18 14.25ZM13.215 10.335L9.465 13.335C9.33259 13.4396 9.16876 13.4965 9 13.4965C8.83124 13.4965 8.66741 13.4396 8.535 13.335L4.785 10.335C4.64836 10.206 4.56511 10.0305 4.55173 9.84304C4.53834 9.65562 4.59578 9.47001 4.7127 9.32292C4.82962 9.17583 4.99749 9.07798 5.18309 9.04874C5.3687 9.0195 5.55852 9.06098 5.715 9.165L8.25 11.19V0.75C8.25 0.551088 8.32902 0.360322 8.46967 0.21967C8.61032 0.0790178 8.80109 0 9 0C9.19891 0 9.38968 0.0790178 9.53033 0.21967C9.67098 0.360322 9.75 0.551088 9.75 0.75V11.19L12.285 9.165C12.3605 9.09371 12.45 9.03888 12.5478 9.00399C12.6457 8.9691 12.7497 8.95491 12.8533 8.96231C12.9569 8.96971 13.0578 8.99854 13.1496 9.04698C13.2415 9.09542 13.3223 9.16242 13.3869 9.24372C13.4516 9.32502 13.4986 9.41885 13.5251 9.51928C13.5515 9.61971 13.5568 9.72454 13.5407 9.82713C13.5245 9.92972 13.4872 10.0278 13.4312 10.1153C13.3751 10.2027 13.3015 10.2775 13.215 10.335Z" fill="#001450"/>
</svg>
