<svg width="24" height="24" viewBox="0 0 24 24" fill="none" xmlns="http://www.w3.org/2000/svg">
<g clip-path="url(#clip0_2053_16124)">
<path d="M20.9999 24.0001H15.0001V15.0001H17.9099L18.675 11.9999H15.0001V8.39992C15.0001 7.40587 15.8058 6.59992 16.8001 6.59992H18.6001V3.6H16.8001C14.1508 3.60416 12.0041 5.75066 11.9999 8.39992V11.9999H8.99999V15.0001H11.9999V24.0001H2.99992C1.34319 24.0001 0 22.6569 0 20.9999V2.99992C0 1.34319 1.34319 0 2.99992 0H20.9999C22.6569 0 24.0001 1.34319 24.0001 2.99992V20.9999C24.0001 22.6569 22.6569 24.0001 20.9999 24.0001ZM16.2 22.7999H20.9999C21.9942 22.7999 22.7999 21.9942 22.7999 20.9999V2.99992C22.7999 2.00587 21.9942 1.19992 20.9999 1.19992H2.99992C2.00587 1.19992 1.19992 2.00587 1.19992 2.99992V20.9999C1.19992 21.9942 2.00587 22.7999 2.99992 22.7999H10.8V16.2H7.80007V10.8H10.8V8.39992C10.8042 5.08798 13.4879 2.40401 16.8001 2.40007H19.8V7.80007H16.8001C16.4688 7.80007 16.2 8.06855 16.2 8.39992V10.8H20.2199L18.84 16.2H16.2V22.7999Z" fill="white"/>
</g>
<defs>
<clipPath id="clip0_2053_16124">
<rect width="24" height="24" fill="white"/>
</clipPath>
</defs>
</svg>
