<svg width="31" height="31" viewBox="0 0 31 31" fill="none" xmlns="http://www.w3.org/2000/svg">
<path d="M3 7H8C8.5515 7 9 6.5515 9 6V3C9 2.4485 8.5515 2 8 2H3C2.4485 2 2 2.4485 2 3V6C2 6.5515 2.4485 7 3 7ZM3 3H8L8.0005 6H3V3ZM5 10C3.6215 10 2.5 11.1215 2.5 12.5V24.5C2.5 25.8785 3.6215 27 5 27H16C17.3785 27 18.5 25.8785 18.5 24.5V12.5C18.5 11.1215 17.3785 10 16 10H5ZM17.5 12.5V24.5C17.5 25.327 16.827 26 16 26H5C4.173 26 3.5 25.327 3.5 24.5V12.5C3.5 11.673 4.173 11 5 11H16C16.827 11 17.5 11.673 17.5 12.5Z" fill="#D0000A"/>
<path d="M10.5 12.5C7.1915 12.5 4.5 15.1915 4.5 18.5C4.5 21.8085 7.1915 24.5 10.5 24.5C13.8085 24.5 16.5 21.8085 16.5 18.5C16.5 15.1915 13.8085 12.5 10.5 12.5ZM10.5 23.5C7.743 23.5 5.5 21.257 5.5 18.5C5.5 15.743 7.743 13.5 10.5 13.5C13.257 13.5 15.5 15.743 15.5 18.5C15.5 21.257 13.257 23.5 10.5 23.5Z" fill="#D0000A"/>
<path d="M10.907 14.2095C10.719 13.9465 10.281 13.9465 10.093 14.2095L8.05851 17.0575C7.69421 17.5659 7.49885 18.176 7.50001 18.8015V19C7.50001 20.6545 8.8455 22 10.5 22C12.1545 22 13.5 20.6545 13.5 19V18.8015C13.5013 18.1761 13.3059 17.5662 12.9415 17.058L10.907 14.2095ZM12.5 19C12.5 20.103 11.603 21 10.5 21C9.397 21 8.50001 20.103 8.50001 19V18.8015C8.50001 18.382 8.62901 17.98 8.87251 17.639L10.5 15.36L12.1275 17.6385C12.371 17.98 12.5 18.382 12.5 18.8015V19Z" fill="#D0000A"/>
<path d="M5 13.5C5.55228 13.5 6 13.0523 6 12.5C6 11.9477 5.55228 11.5 5 11.5C4.44772 11.5 4 11.9477 4 12.5C4 13.0523 4.44772 13.5 5 13.5Z" fill="#D0000A"/>
<path d="M16 13.5C16.5523 13.5 17 13.0523 17 12.5C17 11.9477 16.5523 11.5 16 11.5C15.4477 11.5 15 11.9477 15 12.5C15 13.0523 15.4477 13.5 16 13.5Z" fill="#D0000A"/>
<path d="M5 25.5C5.55228 25.5 6 25.0523 6 24.5C6 23.9477 5.55228 23.5 5 23.5C4.44772 23.5 4 23.9477 4 24.5C4 25.0523 4.44772 25.5 5 25.5Z" fill="#D0000A"/>
<path d="M16 25.5C16.5523 25.5 17 25.0523 17 24.5C17 23.9477 16.5523 23.5 16 23.5C15.4477 23.5 15 23.9477 15 24.5C15 25.0523 15.4477 25.5 16 25.5Z" fill="#D0000A"/>
<path d="M30.6 8.79986L29.4 7.19986C29.2115 6.94836 28.7885 6.94836 28.6 7.19986L27.4 8.79986C27.142 9.14336 27 9.56986 27 9.99986C27 11.1029 27.897 11.9999 29 11.9999C30.103 11.9999 31 11.1029 31 9.99986C31 9.56986 30.858 9.14336 30.6 8.79986ZM29 10.9999C28.8144 10.9995 28.6326 10.9475 28.4749 10.8498C28.3171 10.7521 28.1897 10.6125 28.1067 10.4465C28.0237 10.2806 27.9885 10.0948 28.005 9.90996C28.0214 9.72513 28.089 9.54852 28.2 9.39986L29 8.33336L29.8 9.40036C29.9109 9.54903 29.9783 9.72558 29.9947 9.91033C30.0111 10.0951 29.9759 10.2807 29.8929 10.4466C29.8099 10.6125 29.6825 10.7521 29.5248 10.8498C29.3672 10.9475 29.1855 10.9994 29 10.9999Z" fill="#D0000A"/>
<path d="M29 6C29.5515 6 30 5.5515 30 5V3.5C30 2.9485 29.5515 2.5 29 2.5H24.571C23.102 2.5 21.721 3.072 20.682 4.111L19.494 5.299C19.2093 5.04416 18.8379 4.90785 18.4559 4.91798C18.0739 4.92811 17.7103 5.08393 17.4395 5.3535L16.293 6.5H12.5C11.673 6.5 11 5.827 11 5V2.5C11 1.1215 9.8785 0 8.5 0H2.5C1.1215 0 0 1.1215 0 2.5V27.5C0 29.4295 1.57 31 3.5 31H17.5C19.43 31 21 29.4295 21 27.5V11.207L22.1465 10.0605C22.4159 9.78957 22.5715 9.42597 22.5816 9.04407C22.5918 8.66217 22.4556 8.29083 22.201 8.006L23.475 6.732C23.7066 6.49919 23.982 6.31463 24.2854 6.18898C24.5888 6.06333 24.9141 5.9991 25.2425 6H27.5H29ZM20 27.5C20 28.8785 18.8785 30 17.5 30H3.5C2.1215 30 1 28.8785 1 27.5V2.5C1 1.673 1.673 1 2.5 1H8.5C9.327 1 10 1.673 10 2.5V5C10 6.3785 11.1215 7.5 12.5 7.5H16.293L20 11.207V27.5ZM21.4395 9.3535L20.5 10.293L17.207 7L18.1465 6.0605C18.2403 5.96676 18.3674 5.91411 18.5 5.91411C18.6326 5.91411 18.7597 5.96676 18.8535 6.0605L21.4395 8.6465C21.5332 8.74026 21.5859 8.86742 21.5859 9C21.5859 9.13258 21.5332 9.25974 21.4395 9.3535ZM27 5H25.2425C24.3075 5 23.429 5.364 22.7675 6.025L21.5 7.293L20.207 6L21.389 4.818C21.8059 4.3988 22.3018 4.06647 22.848 3.84023C23.3942 3.61399 23.9798 3.49835 24.571 3.5H27V5ZM29 5H28V3.5H29V5Z" fill="#D0000A"/>
<path d="M2 8H9V9H2V8Z" fill="#D0000A"/>
</svg>
