<svg preserveAspectRatio="none" width="100%" height="100%" overflow="visible" style="display: block;" viewBox="0 0 32 32" fill="none" xmlns="http://www.w3.org/2000/svg">
<g id="Icon">
<path id="Vector" d="M20.636 17.1865L22.656 28.5545C22.6786 28.6884 22.6598 28.826 22.6022 28.9489C22.5445 29.0718 22.4507 29.1741 22.3332 29.2423C22.2158 29.3104 22.0804 29.341 21.9451 29.3301C21.8097 29.3192 21.681 29.2673 21.576 29.1812L16.8027 25.5985C16.5722 25.4264 16.2923 25.3334 16.0047 25.3334C15.717 25.3334 15.4371 25.4264 15.2067 25.5985L10.4253 29.1799C10.3204 29.2658 10.1918 29.3177 10.0567 29.3286C9.9215 29.3395 9.78622 29.309 9.66888 29.241C9.55153 29.1731 9.4577 29.071 9.39989 28.9483C9.34208 28.8256 9.32304 28.6883 9.34533 28.5545L11.364 17.1865" stroke="var(--stroke-0, #001450)" stroke-width="2" stroke-linecap="round" stroke-linejoin="round"/>
<path id="Vector_2" d="M16 18.6667C20.4183 18.6667 24 15.0849 24 10.6667C24 6.24839 20.4183 2.66667 16 2.66667C11.5817 2.66667 8 6.24839 8 10.6667C8 15.0849 11.5817 18.6667 16 18.6667Z" stroke="var(--stroke-0, #001450)" stroke-width="2" stroke-linecap="round" stroke-linejoin="round"/>
</g>
</svg>
