<svg preserveAspectRatio="none" width="100%" height="100%" overflow="visible" style="display: block;" viewBox="0 0 32 32" fill="none" xmlns="http://www.w3.org/2000/svg">
<g id="Icon">
<path id="Vector" d="M18.6667 2.66667V10.6667C18.6665 11.114 18.7788 11.5542 18.9933 11.9467L26.34 25.3867C26.5622 25.7928 26.6749 26.2498 26.6669 26.7127C26.6589 27.1756 26.5305 27.6284 26.2944 28.0267C26.0583 28.4249 25.7226 28.7548 25.3203 28.9839C24.918 29.213 24.463 29.3334 24 29.3333H8.00001C7.53704 29.3334 7.08203 29.213 6.67973 28.9839C6.27743 28.7548 5.94171 28.4249 5.70559 28.0267C5.46948 27.6284 5.34111 27.1756 5.33312 26.7127C5.32513 26.2498 5.43778 25.7928 5.66001 25.3867L13.0067 11.9467C13.2212 11.5542 13.3335 11.114 13.3333 10.6667V2.66667" stroke="var(--stroke-0, #001450)" stroke-width="2" stroke-linecap="round" stroke-linejoin="round"/>
<path id="Vector_2" d="M8.604 20H23.396" stroke="var(--stroke-0, #001450)" stroke-width="2" stroke-linecap="round" stroke-linejoin="round"/>
<path id="Vector_3" d="M11.3333 2.66667H20.6667" stroke="var(--stroke-0, #001450)" stroke-width="2" stroke-linecap="round" stroke-linejoin="round"/>
</g>
</svg>
