<svg width="16" height="16" viewBox="0 0 16 16" fill="none" xmlns="http://www.w3.org/2000/svg">
<path d="M10.5729 5.75871C10.3292 5.75871 10.198 5.45877 10.3761 5.28068L12.8412 2.77805C13.1037 2.5156 13.5067 2.90927 13.2443 3.17172L10.7791 5.67436C10.7229 5.73059 10.6479 5.75871 10.5729 5.75871ZM12.2695 1.75637L13.6192 0.387887C14.1254 -0.118264 14.9596 -0.13701 15.4751 0.378514L15.6063 0.509739C16.1219 1.01589 16.1312 1.8501 15.6157 2.36563L14.894 3.09673L12.2789 5.74934V13.3041C12.2789 14.2696 11.4915 15.0475 10.5354 15.0475H1.74341C0.777973 15.0475 0 14.2696 0 13.3041V1.81261C0 0.856546 0.777973 0.0785728 1.74341 0.0785728H10.5729C11.5103 0.0785728 12.2226 0.856546 12.2695 1.75637ZM7.21734 9.16117C7.03925 9.16117 6.89865 8.98308 6.94552 8.79562L7.62039 6.48045L11.7165 2.32813V1.81261C11.7165 1.16586 11.1822 0.640963 10.5354 0.640963H1.74341C1.08729 0.640963 0.56239 1.16586 0.56239 1.81261V13.3041C0.56239 13.9509 1.08729 14.4851 1.74341 14.4851H10.5354C11.1822 14.4851 11.7165 13.9509 11.7165 13.3041V6.3211L9.6075 8.43944L7.21734 9.16117ZM9.52314 6.82725C9.27006 6.82725 9.14821 6.52731 9.3263 6.34922L9.76684 5.89931C10.0293 5.63686 10.423 6.03054 10.1699 6.29298L9.71998 6.7429C9.66374 6.79914 9.59813 6.82725 9.52314 6.82725ZM8.85765 3.29357H2.24019C1.86526 3.29357 1.86526 2.73118 2.24019 2.73118H8.85765C9.2232 2.73118 9.2232 3.29357 8.85765 3.29357ZM7.1611 5.59H2.24019C1.86526 5.59 1.86526 5.02761 2.24019 5.02761H7.1611C7.52666 5.02761 7.52666 5.59 7.1611 5.59ZM5.91447 7.88642H2.24019C1.86526 7.88642 1.86526 7.32403 2.24019 7.32403H5.91447C6.28002 7.32403 6.28002 7.88642 5.91447 7.88642ZM7.0205 10.1735H2.24019C1.86526 10.1735 1.86526 9.61109 2.24019 9.61109H7.0205C7.39543 9.61109 7.39543 10.1735 7.0205 10.1735ZM10.048 12.4699H2.24019C1.86526 12.4699 1.86526 11.9075 2.24019 11.9075H10.048C10.423 11.9075 10.423 12.4699 10.048 12.4699ZM8.00469 7.15532L7.62976 8.45819L8.93263 8.06451L8.00469 7.15532ZM8.26714 6.62105L9.45753 7.80206L14.3035 2.8999L13.1037 1.71888L8.26714 6.62105ZM13.4974 1.31583L14.6971 2.49685L15.222 1.97195C15.5126 1.67201 15.5032 1.20335 15.2127 0.912785C14.8658 0.565978 14.4159 0.387887 14.0223 0.790934L13.4974 1.31583Z" fill="#5A5A5A"/>
</svg>
