<svg width="24" height="24" viewBox="0 0 24 24" fill="none" xmlns="http://www.w3.org/2000/svg">
<g clip-path="url(#clip0_2053_16116)">
<path d="M17.5034 0H6.49658C2.91431 0 0 2.91431 0 6.49658V17.5036C0 21.0856 2.91431 24 6.49658 24H17.5036C21.0856 24 24 21.0856 24 17.5036V6.49658C24 2.91431 21.0856 0 17.5034 0ZM22.593 17.5036C22.593 20.3098 20.3098 22.593 17.5034 22.593H6.49658C3.69013 22.593 1.407 20.3098 1.407 17.5036V6.49658C1.407 3.69013 3.69013 1.407 6.49658 1.407H17.5036C20.3098 1.407 22.593 3.69013 22.593 6.49658V17.5036Z" fill="white"/>
<path d="M11.9998 5.43751C8.3813 5.43751 5.4375 8.38126 5.4375 11.9998C5.4375 15.6184 8.38125 18.5621 11.9998 18.5621C15.6184 18.5621 18.5621 15.6184 18.5621 11.9998C18.5621 8.38126 15.6184 5.43751 11.9998 5.43751ZM11.9998 17.1551C9.15731 17.1551 6.8445 14.8426 6.8445 11.9998C6.8445 9.15732 9.15731 6.84451 11.9998 6.84451C14.8425 6.84451 17.1551 9.15732 17.1551 11.9998C17.1551 14.8426 14.8425 17.1551 11.9998 17.1551ZM18.7191 3.10693C17.6497 3.10693 16.78 3.97689 16.78 5.04601C16.78 6.11537 17.6497 6.98528 18.7191 6.98528C19.7884 6.98528 20.6583 6.11537 20.6583 5.04606C20.6583 3.97675 19.7884 3.10693 18.7191 3.10693ZM18.7191 5.57814C18.4257 5.57814 18.1869 5.33936 18.1869 5.04601C18.1869 4.75253 18.4257 4.51393 18.7191 4.51393C19.0125 4.51393 19.2513 4.75253 19.2513 5.04601C19.2513 5.33936 19.0125 5.57814 18.7191 5.57814Z" fill="white"/>
</g>
<defs>
<clipPath id="clip0_2053_16116">
<rect width="24" height="24" fill="white"/>
</clipPath>
</defs>
</svg>
