<svg width="24" height="24" viewBox="0 0 24 24" fill="none" xmlns="http://www.w3.org/2000/svg">
<g clip-path="url(#clip0_2053_16127)">
<path d="M3.24 0.200195C2.36002 0.200195 1.56 0.520211 0.96 1.12021C0.320016 1.7602 0 2.56016 0 3.40016C0 4.28015 0.36 5.08016 0.96 5.68016C1.56 6.28016 2.4 6.64016 3.20002 6.60018H3.28003C4.08005 6.60018 4.84003 6.28016 5.44003 5.68016C6.04003 5.08016 6.40003 4.28015 6.40003 3.40016C6.44002 2.56016 6.08002 1.76015 5.48002 1.16015C4.88002 0.520164 4.08 0.200195 3.24 0.200195ZM4.88002 5.1202C4.44 5.56021 3.84 5.8402 3.20002 5.80021C2.60002 5.80021 1.96003 5.56021 1.52002 5.1202C1.04002 4.68018 0.800016 4.0402 0.800016 3.40021C0.800016 2.76023 1.04002 2.16023 1.52002 1.68023C1.96003 1.24021 2.56003 1.00021 3.24 1.00021C3.84 1.00021 4.44 1.24021 4.88002 1.68023C5.36002 2.16023 5.60002 2.76023 5.60002 3.40021C5.60002 4.0402 5.36002 4.68018 4.88002 5.1202ZM4.8 7.4002H1.56C0.920016 7.4002 0.399984 7.92018 0.399984 8.60019V22.6002C0.399984 23.2402 0.96 23.8002 1.59998 23.8002H4.8C5.43998 23.8002 6 23.2402 6 22.6402V8.60019C6 7.96016 5.43998 7.4002 4.8 7.4002ZM5.19998 22.6402C5.19998 22.8402 4.99997 23.0002 4.8 23.0002H1.59998C1.39997 23.0002 1.2 22.8002 1.2 22.6002V8.60019C1.2 8.40018 1.35998 8.20021 1.56 8.20021H4.8C5.00002 8.20021 5.19998 8.40023 5.19998 8.60019V22.6402ZM18.4 7.00016H17.56C16 7.00016 14.52 7.68018 13.56 8.76018V8.20016C13.56 7.80018 13.16 7.40015 12.76 7.40015H8.76C8.4 7.40015 7.95998 7.72016 7.95998 8.16013V23.0801C7.95998 23.5201 8.4 23.8001 8.76 23.8001H13.16C13.52 23.8001 13.96 23.5201 13.96 23.0801V14.4401C13.96 13.1201 14.92 12.0801 16.16 12.0801C16.8 12.0801 17.4 12.3201 17.84 12.7601C18.24 13.1201 18.4 13.6801 18.4 14.4001V23.0001C18.4 23.4001 18.8 23.8002 19.2 23.8002H23.2C23.6 23.8002 24 23.4002 24 23.0001V12.6801C24 9.48018 21.56 7.00016 18.4 7.00016ZM23.2 22.9602L23.16 23.0001H19.24L19.2 14.4002C19.2 13.4402 18.96 12.7202 18.44 12.2002C17.84 11.6002 17.04 11.2802 16.2 11.2802C14.52 11.3202 13.2 12.6802 13.2 14.4402V23.0001H8.79998V8.20016H12.76L12.8 8.24015V10.7601L13.88 9.68015L13.92 9.64016C14.72 8.52018 16.1199 7.80018 17.6 7.80018H18.44C21.12 7.80018 23.2 9.96018 23.2 12.6802V22.9602Z" fill="white"/>
</g>
<defs>
<clipPath id="clip0_2053_16127">
<rect width="24" height="24" fill="white"/>
</clipPath>
</defs>
</svg>
