<svg width="19" height="18" viewBox="0 0 19 18" fill="none" xmlns="http://www.w3.org/2000/svg">
<g clip-path="url(#clip0_4220_5978)">
<path d="M9.12049 2.17484C9.12802 2.17445 9.13556 2.17407 9.14309 2.17368C12.0115 2.10878 15.2292 2.87903 17.368 4.88706C18.3578 5.81628 18.9736 6.92289 19.0161 8.29578C19.0671 9.95608 18.6508 11.246 17.4973 12.4769C15.6327 14.4666 12.6235 15.2445 9.95734 15.2959C9.44085 15.3041 8.76281 15.3071 8.25018 15.265C5.97332 15.078 3.57636 14.3907 1.8644 12.8108C0.793785 11.8227 0.082427 10.5492 0.00261689 9.07389C-0.0819935 7.50966 0.238371 6.37649 1.32679 5.1991C3.04163 3.34411 5.7578 2.45531 8.21621 2.20984C8.45763 2.18573 8.86402 2.18399 9.12049 2.17484Z" fill="#1C1C1F"/>
<path d="M0.337676 7.98828C1.42007 8.18093 3.43489 8.72638 4.31687 9.34003C4.04445 9.87025 4.45814 10.5201 5.0195 10.6005C5.14458 10.6185 5.22279 10.6178 5.34765 10.613C5.39639 11.0425 5.82646 11.3963 6.23759 11.4636C6.4667 11.5012 6.50806 11.3458 6.65563 11.5831C6.91485 11.9999 7.33694 12.0982 7.79835 12.0133C7.83714 12.1043 7.88774 12.19 7.94884 12.2679C8.13135 12.4997 8.40014 12.6476 8.69365 12.6776C9.06583 12.7149 9.31524 12.5704 9.58881 12.3488C10.1974 12.6877 10.8406 12.7981 11.3478 12.2332C11.7909 12.4717 12.4368 12.0307 12.5622 11.566C12.7781 11.5735 12.9623 11.586 13.1659 11.4952C13.5869 11.3072 13.7782 11.0643 13.8148 10.6146C14.0411 10.6454 14.2715 10.6084 14.477 10.5086C14.9936 10.255 15.1131 9.75629 14.8625 9.25846C15.3112 9.09985 15.7533 8.92193 16.2075 8.76802C17.0218 8.49954 17.8476 8.26665 18.6825 8.07012C18.7117 8.35317 18.6956 8.71652 18.6457 8.99528C18.4443 10.214 17.6503 11.287 16.6942 12.0358C14.2905 13.9182 10.8877 14.4783 7.91151 14.1542C5.55039 13.897 2.88686 12.9517 1.33899 11.072C0.635147 10.2174 0.218288 9.10052 0.337676 7.98828Z" fill="#E5E5E6"/>
<path d="M2.34224 4.71484C2.41584 4.72287 3.16607 5.0085 3.30973 5.05347C4.09069 5.29787 5.16518 5.65655 5.97258 5.58087C6.25746 5.55417 6.85195 5.37185 7.1843 5.3069C6.83528 5.67001 6.44681 6.06225 6.14979 6.46356C5.98161 6.74252 6.23339 6.98145 6.47133 7.08435C7.83184 7.67283 8.46465 6.38256 9.55292 5.94001C10.3178 5.62894 11.1147 6.46269 11.6726 6.93618L12.9073 7.9889C13.2479 8.27885 13.5861 8.57154 13.9219 8.86701C14.1049 9.02613 14.2878 9.17635 14.4642 9.34873C15.0062 9.83363 14.2665 10.4723 13.7764 10.2217C13.3808 9.96354 13.0467 9.56978 12.6768 9.27236C12.5426 9.16444 12.2221 8.80743 12.0631 8.85493C12.0358 8.88615 12.0108 8.91384 12.0133 8.95832C12.0211 9.09763 13.2021 10.1297 13.3717 10.3731C13.4263 10.451 13.4666 10.5403 13.4682 10.6368C13.4709 10.7737 13.4003 10.9005 13.3059 10.9953C13.1322 11.1702 12.9232 11.2321 12.6826 11.2333C12.6064 11.215 12.5284 11.1878 12.4571 11.1495C12.2456 11.0364 11.3541 9.93165 11.144 10.1029C11.1012 10.2551 11.285 10.3731 11.376 10.4886C11.6247 10.8041 12.0347 11.1435 12.2016 11.5013C12.0719 11.8515 11.7874 12.0418 11.418 11.9322C11.1297 11.8468 10.4888 10.9298 10.2203 11.0104C10.1133 11.1514 10.4792 11.4656 10.5826 11.5769C10.7356 11.744 10.8853 11.9142 11.0313 12.0874C10.6022 12.4139 10.2208 12.2645 9.77496 12.0675C10.1189 11.4426 9.66699 10.6371 8.98816 10.527C8.90895 10.5141 8.84065 10.506 8.76047 10.5C8.76601 10.3434 8.75212 10.1703 8.7021 10.0214C8.62581 9.79368 8.46005 9.60671 8.24298 9.50365C7.97063 9.37273 7.70151 9.35594 7.41894 9.4538C7.12782 8.88934 6.39598 8.79602 5.88256 9.11576C5.86274 9.09461 5.84183 9.07464 5.81989 9.05567C5.43705 8.71939 4.87241 8.64363 4.51366 9.05366C3.7912 8.51009 2.35739 8.09558 1.4772 7.87149C1.10732 7.77733 0.791453 7.71622 0.411621 7.59291C0.416908 7.5495 0.423907 7.50635 0.432585 7.4635C0.607714 6.6328 1.23819 5.70056 1.85247 5.1386C2.01697 4.98811 2.15266 4.83896 2.34224 4.71484Z" fill="#E5E5E6"/>
<path d="M9.60422 4.47465C10.6385 4.42394 11.0987 4.62052 12.0274 5.01823C13.1914 5.52005 14.4944 5.59882 15.7102 5.24087C16.1288 5.12137 16.4323 4.98348 16.8319 4.84075C17.745 5.55333 18.381 6.56199 18.6305 7.69306C17.4259 7.93268 15.7646 8.48714 14.6516 8.98176C14.556 8.98461 13.8193 8.30885 13.6776 8.18576L12.021 6.76658C11.5599 6.37517 11.0934 5.95513 10.574 5.65395C9.74284 5.17197 8.98914 5.76893 8.36135 6.27594C8.02304 6.54914 7.63942 6.86571 7.18699 6.88446C6.88935 6.89678 6.66135 6.85178 6.43164 6.65179C6.45922 6.61565 6.48792 6.58037 6.51768 6.546C6.74319 6.28141 6.99941 6.03078 7.23642 5.77938C7.93996 5.03315 8.54794 4.55946 9.60422 4.47465Z" fill="#E5E5E6"/>
<path d="M8.88382 2.52792C9.40338 2.51179 10.0922 2.51451 10.6099 2.55174C12.5963 2.69459 14.9165 3.3578 16.5128 4.5787C15.1801 5.17188 13.6633 5.31757 12.3018 4.75148C11.5687 4.44669 11.0563 4.18799 10.2345 4.12721C9.43042 4.03153 8.45739 4.27324 7.81781 4.76966C7.57374 4.95909 7.03211 4.93532 6.70709 5.05155C6.12726 5.25889 5.51213 5.29311 4.91509 5.13794C4.1642 4.9522 3.39221 4.73835 2.67236 4.45436C4.42568 3.20877 6.75525 2.61445 8.88382 2.52792Z" fill="#E5E5E6"/>
<path d="M5.10574 9.10197C5.39254 9.08216 5.62827 9.27753 5.7199 9.53904C5.7439 9.60752 5.74506 9.69564 5.74869 9.76814C5.89045 9.54609 6.08528 9.33477 6.35378 9.29046C6.91647 9.1973 7.12577 9.49959 7.22991 9.97593C7.32191 9.8905 7.44848 9.78543 7.56988 9.74918C7.74664 9.69647 7.9761 9.73877 8.1354 9.82253C8.65411 10.0953 8.30719 10.7698 8.35331 10.9206C8.4232 10.9419 8.72736 10.8225 8.90408 10.857C9.11773 10.8986 9.27523 10.9796 9.40936 11.1587C9.52693 11.3165 9.57541 11.5151 9.54363 11.7093C9.50659 11.9454 9.38863 12.0913 9.20397 12.2284C8.92296 12.3775 8.67096 12.4122 8.38964 12.2261C8.11533 12.0446 8.0679 11.7831 8.01061 11.4815C7.82204 11.5946 7.71737 11.7257 7.47858 11.7172C7.30214 11.7109 7.1258 11.6264 7.00561 11.4985C6.8356 11.3175 6.84458 11.1693 6.84852 10.9447C6.50103 11.1334 6.19369 11.2507 5.86082 10.918C5.62178 10.679 5.64122 10.3727 5.64843 10.0572C5.5345 10.1468 5.4374 10.2217 5.29512 10.2601C5.14675 10.2995 4.98875 10.2772 4.85718 10.198C4.7222 10.1166 4.62539 9.98466 4.58828 9.83142C4.55019 9.6807 4.57493 9.52108 4.65682 9.38898C4.77039 9.20502 4.90862 9.1488 5.10574 9.10197Z" fill="#E5E5E6"/>
</g>
<defs>
<clipPath id="clip0_4220_5978">
<rect width="19" height="13.5618" fill="white" transform="translate(0 2.16699)"/>
</clipPath>
</defs>
</svg>
