<svg width="20" height="20" viewBox="0 0 20 20" fill="none" xmlns="http://www.w3.org/2000/svg">
<path d="M15.4167 17.5001C17.0275 17.5001 18.3333 16.1942 18.3333 14.5834C18.3333 12.9726 17.0275 11.6667 15.4167 11.6667C13.8058 11.6667 12.5 12.9726 12.5 14.5834C12.5 16.1942 13.8058 17.5001 15.4167 17.5001Z" stroke="#5A5A5A" stroke-width="1.66667" stroke-linecap="round" stroke-linejoin="round"/>
<path d="M4.58317 17.5001C6.194 17.5001 7.49984 16.1942 7.49984 14.5834C7.49984 12.9726 6.194 11.6667 4.58317 11.6667C2.97234 11.6667 1.6665 12.9726 1.6665 14.5834C1.6665 16.1942 2.97234 17.5001 4.58317 17.5001Z" stroke="#5A5A5A" stroke-width="1.66667" stroke-linecap="round" stroke-linejoin="round"/>
<path d="M12.4998 4.99992C12.9601 4.99992 13.3332 4.62682 13.3332 4.16659C13.3332 3.70635 12.9601 3.33325 12.4998 3.33325C12.0396 3.33325 11.6665 3.70635 11.6665 4.16659C11.6665 4.62682 12.0396 4.99992 12.4998 4.99992Z" stroke="#5A5A5A" stroke-width="1.66667" stroke-linecap="round" stroke-linejoin="round"/>
<path d="M10 14.5834V11.6667L7.5 9.16675L10.8333 6.66675L12.5 9.16675H14.1667" stroke="#5A5A5A" stroke-width="1.66667" stroke-linecap="round" stroke-linejoin="round"/>
</svg>
