<svg width="18" height="18" viewBox="0 0 18 18" fill="none" xmlns="http://www.w3.org/2000/svg">
<path d="M9 1.5L9 3" stroke="currentColor" stroke-width="1.5" stroke-linecap="round"/>
<path d="M6 3H12V5.25C12 5.25 12 6 11.25 6.75L10.5 7.5H7.5L6.75 6.75C6 6 6 5.25 6 5.25V3Z" stroke="currentColor" stroke-width="1.5" stroke-linecap="round" stroke-linejoin="round"/>
<path d="M7.5 7.5H10.5V9.75C10.5 9.75 12.75 11.25 12.75 13.5C12.75 15.75 10.5 16.5 9 16.5C7.5 16.5 5.25 15.75 5.25 13.5C5.25 11.25 7.5 9.75 7.5 9.75V7.5Z" stroke="currentColor" stroke-width="1.5" stroke-linecap="round" stroke-linejoin="round"/>
<path d="M9 12V14.25" stroke="currentColor" stroke-width="1.5" stroke-linecap="round"/>
<path d="M7.875 13.125H10.125" stroke="currentColor" stroke-width="1.5" stroke-linecap="round"/>
</svg>
