<svg width="123" height="35" viewBox="0 0 123 35" fill="none" xmlns="http://www.w3.org/2000/svg">
<path d="M60 34.5C33.5 34.5 33.5 5 0 5H122.5C88.5 5 83 34.5 60 34.5Z" fill="#F9FAFB"/>
<g clip-path="url(#clip0_3719_9356)">
<path d="M59.1937 16.063L56.3756 20.2902C56.0042 20.8464 55.8062 21.5003 55.8066 22.1691V22.2581C55.8066 24.1253 57.3261 25.6452 59.1937 25.6452C61.0614 25.6452 62.5808 24.1253 62.5808 22.2581V22.169C62.5813 21.5003 62.3833 20.8464 62.0119 20.2903L59.1937 16.063ZM61.6131 22.2581C61.6131 23.5921 60.5277 24.6775 59.1937 24.6775C57.8598 24.6775 56.7744 23.5921 56.7744 22.2581V22.169C56.7741 21.6914 56.9156 21.2245 57.1808 20.8273L59.1937 17.8081L61.2067 20.8273C61.4719 21.2245 61.6133 21.6914 61.6131 22.169V22.2581Z" fill="#001450"/>
<path d="M58.7099 22.258V22.1689C58.7099 22.0738 58.738 21.9807 58.7907 21.9015L57.986 21.3638C57.8267 21.602 57.7418 21.8823 57.7422 22.1689V22.258C57.7422 23.0582 58.3936 23.7096 59.1938 23.7096V22.7419C58.9273 22.7419 58.7099 22.525 58.7099 22.258Z" fill="#001450"/>
<path d="M67.3551 6.76736L63.5484 4.10274V1.45161C63.5484 0.651411 62.897 0 62.0968 0H56.2903C55.4901 0 54.8387 0.651411 54.8387 1.45161V4.10274L51.032 6.76736C50.7134 6.99063 50.4533 7.28736 50.2736 7.63244C50.094 7.97752 50.0001 8.3608 50 8.74984V27.5806C50 28.9146 51.0854 30 52.4194 30H65.9677C67.3017 30 68.3871 28.9146 68.3871 27.5806V8.74984C68.3869 8.3608 68.2931 7.97751 68.1134 7.63243C67.9338 7.28735 67.6737 6.99062 67.3551 6.76736ZM55.8065 3.87097V2.90323H56.7742V3.87097H55.8065ZM57.7419 2.90323H58.7097V3.87097H57.7419V2.90323ZM59.6774 2.90323H60.6452V3.87097H59.6774V2.90323ZM61.6129 2.90323H62.5806V3.87097H61.6129V2.90323ZM56.2903 0.967742H62.0968C62.3633 0.967742 62.5806 1.18512 62.5806 1.45161V1.93548H55.8065V1.45161C55.8065 1.18512 56.0238 0.967742 56.2903 0.967742ZM51.5865 7.56048L55.475 4.83871H62.9117L66.8001 7.56048C66.9913 7.69443 67.1473 7.87244 67.2551 8.07947C67.3629 8.28649 67.4192 8.51644 67.4194 8.74984V8.75456C66.7037 8.115 65.7738 7.74194 64.7716 7.74194H53.6155C52.6133 7.74194 51.6834 8.115 50.9677 8.75456V8.74984C50.9679 8.51649 51.0242 8.2866 51.1319 8.07959C51.2396 7.87258 51.3955 7.69453 51.5865 7.56048ZM65.9677 29.0323H52.4194C51.6192 29.0323 50.9677 28.3808 50.9677 27.5806V10.291C51.496 9.315 52.4992 8.70968 53.6155 8.70968H64.7716C65.6315 8.70968 66.4266 9.06714 66.9877 9.67742H63.5484V10.6452H67.4194V11.6129H63.5484V12.5806H67.4194V27.5806C67.4194 28.3808 66.7679 29.0323 65.9677 29.0323Z" fill="#001450"/>
<path d="M65.3828 14.2445L54.2682 9.7987C54.0675 9.71821 53.8532 9.67699 53.637 9.67725C52.6987 9.67725 51.9355 10.4404 51.9355 11.3786V26.3635C51.9355 27.3012 52.6987 28.0643 53.6369 28.0643H64.7508C65.6885 28.0643 66.4517 27.3012 66.4517 26.363V15.8239C66.4517 15.1241 66.032 14.5044 65.3828 14.2445ZM65.4839 26.3631C65.4839 26.7675 65.1548 27.0966 64.7503 27.0966H53.637C53.2323 27.0966 52.9033 26.7675 52.9033 26.363V11.3787C52.9033 10.974 53.2324 10.645 53.6369 10.645C53.7306 10.645 53.8221 10.663 53.9088 10.6972L65.0227 15.143C65.1591 15.197 65.2761 15.2909 65.3583 15.4124C65.4406 15.5338 65.4844 15.6772 65.4839 15.8239V26.3631Z" fill="#001450"/>
<path d="M53.8711 13.0645H58.2259V14.0322H53.8711V13.0645ZM53.8711 14.9999H58.2259V15.9677H53.8711V14.9999Z" fill="#001450"/>
</g>
<defs>
<clipPath id="clip0_3719_9356">
<rect width="18.3984" height="30" fill="white" transform="translate(50)"/>
</clipPath>
</defs>
</svg>
