<svg width="30" height="32" viewBox="0 0 30 32" fill="none" xmlns="http://www.w3.org/2000/svg">
<path d="M7.75601 18.6135C8.11239 18.6135 8.4607 18.5055 8.76048 18.2976L16.8853 12.6733C17.2619 12.4135 17.5232 12.018 17.6145 11.5697C17.7058 11.1215 17.62 10.6552 17.3751 10.2689C17.1206 9.86626 16.7247 9.5873 16.2597 9.48446C15.7957 9.38064 15.3175 9.46612 14.9164 9.72419L6.60649 15.0702C6.20322 15.3296 5.92779 15.7307 5.83039 16.1997C5.73274 16.6687 5.82529 17.1466 6.09035 17.544L6.27611 17.8229C6.54224 18.2221 6.94806 18.4914 7.41921 18.5814C7.53166 18.6028 7.64412 18.6135 7.75601 18.6135ZM7.21132 17.2008L7.02556 16.9212C6.97733 16.8498 6.94402 16.7694 6.92762 16.6848C6.91122 16.6002 6.91207 16.5132 6.93013 16.4289C6.94734 16.3444 6.98132 16.2642 7.03006 16.1931C7.07879 16.122 7.14129 16.0613 7.21387 16.0147L15.5241 10.6687C15.6286 10.6014 15.7503 10.5655 15.8747 10.5655C15.9216 10.5655 15.9694 10.5703 16.0168 10.5809C16.1005 10.5993 16.1798 10.6342 16.2499 10.6836C16.3201 10.733 16.3796 10.7959 16.4252 10.8685C16.515 11.0101 16.5465 11.1809 16.5131 11.3452C16.4797 11.5095 16.3839 11.6545 16.2459 11.7497L8.12135 17.374C8.05059 17.4234 7.97063 17.458 7.88622 17.4759C7.80182 17.4938 7.71468 17.4946 7.62997 17.4782C7.54516 17.4623 7.46439 17.4296 7.39246 17.382C7.32053 17.3344 7.25899 17.2728 7.21132 17.2008Z" fill="#001450"/>
<path d="M29.7266 20.8668C29.7266 18.4657 26.3129 13.7752 25.2338 12.3522V7.99469C25.2338 6.90203 24.5075 5.98623 23.5161 5.67641V3.69493C23.5161 2.58022 22.6089 1.67331 21.4945 1.67331H18.2038C17.0894 1.67331 16.1821 2.58014 16.1821 3.69493V5.55499H15.8592C15.373 5.55426 14.8978 5.69956 14.4951 5.97208L4.10726 12.9776C3.52214 13.3717 3.04288 13.9035 2.71169 14.5264C2.38051 15.1493 2.20755 15.844 2.20804 16.5495V28.2831C2.20804 30.3327 3.87526 31.9999 5.92486 31.9999H21.517C23.5666 31.9999 25.2341 30.3327 25.2341 28.2831V26.0301C27.7683 25.6747 29.7266 23.4978 29.7266 20.8668ZM17.3057 3.69493C17.3057 3.19969 17.7086 2.79642 18.2038 2.79642H21.4945C21.9898 2.79642 22.3927 3.19977 22.3927 3.69493V5.55499H17.3057V3.69493ZM21.517 30.8767H5.92453C4.49416 30.8767 3.3309 29.7131 3.3309 28.2831V16.5495C3.33058 16.0278 3.45852 15.5141 3.70346 15.0536C3.9484 14.5931 4.30283 14.1998 4.73553 13.9085L15.1236 6.90268C15.3408 6.75586 15.5971 6.67751 15.8592 6.67777H22.7943C23.5197 6.67777 24.1106 7.26869 24.1106 7.99436V11.9461C24.0965 11.9602 24.0769 11.966 24.0644 11.9818C23.5753 12.6081 19.2874 18.1788 19.2874 20.8668C19.2874 23.6112 21.4177 25.8626 24.1107 26.0667V28.2834C24.1107 29.7131 22.9474 30.8767 21.517 30.8767ZM24.5072 24.9635C22.2487 24.9635 20.4109 23.1256 20.4109 20.8668C20.4109 19.1149 23.0544 15.2046 24.5072 13.2543C25.9607 15.2042 28.6035 19.1136 28.6035 20.8668C28.6035 23.1256 26.7654 24.9635 24.5072 24.9635ZM7.09716 8.11521C8.22315 8.11521 9.13968 7.19901 9.13968 6.07261C9.13968 5.1346 7.91498 3.49313 7.53959 3.01237C7.32693 2.7399 6.86739 2.7399 6.65465 3.01237C6.27926 3.49313 5.05456 5.1346 5.05456 6.07269C5.05497 7.19893 5.97109 8.11521 7.09716 8.11521ZM7.09716 4.30774C7.59364 5.02593 8.01658 5.78344 8.01658 6.07261C8.01658 6.57937 7.60393 6.99202 7.09716 6.99202C6.59073 6.99202 6.17808 6.57946 6.17808 6.07261C6.17808 5.7841 6.60068 5.02634 7.09716 4.30774ZM4.08513 3.26468C4.08513 2.32659 2.86042 0.685118 2.48503 0.204351C2.27229 -0.068117 1.81275 -0.068117 1.60009 0.204351C1.22471 0.685118 0 2.32659 0 3.26468C0 4.39099 0.916453 5.3072 2.04252 5.3072C3.16859 5.3072 4.08513 4.39099 4.08513 3.26468ZM2.04285 4.18401C1.53609 4.18401 1.12352 3.77144 1.12352 3.26468C1.12352 2.97609 1.54637 2.21824 2.04285 1.49948C2.53908 2.218 2.96194 2.97543 2.96194 3.26468C2.96194 3.77177 2.54961 4.18401 2.04285 4.18401Z" fill="#001450"/>
<path d="M26.9186 19.9248C26.8448 19.9248 26.7717 19.9393 26.7036 19.9675C26.6354 19.9958 26.5735 20.0371 26.5213 20.0893C26.4691 20.1415 26.4278 20.2034 26.3995 20.2715C26.3713 20.3397 26.3568 20.4128 26.3568 20.4865C26.3568 21.5701 25.4749 22.4523 24.3911 22.4523C24.0806 22.4523 23.8296 22.7035 23.8296 23.0137C23.8296 23.3238 24.0806 23.5754 24.3911 23.5754C26.0942 23.5754 27.4799 22.1897 27.4799 20.4865C27.4799 20.1764 27.229 19.9248 26.9185 19.9248H26.9186ZM19.6176 26.9452H7.8236C7.51312 26.9452 7.26221 27.1965 7.26221 27.5065C7.26221 27.8166 7.51312 28.0682 7.8236 28.0682H19.6176C19.9281 28.0682 20.179 27.8167 20.179 27.5065C20.179 27.1964 19.9281 26.9451 19.6176 26.9451V26.9452Z" fill="#001450"/>
</svg>
