<svg width="32" height="32" viewBox="0 0 32 32" fill="none" xmlns="http://www.w3.org/2000/svg">
<g clip-path="url(#clip0_4607_92754)">
<path d="M7.83633 18.6135C8.19271 18.6135 8.54103 18.5055 8.84081 18.2976L16.9656 12.6733C17.3422 12.4135 17.6035 12.018 17.6949 11.5697C17.7862 11.1215 17.7003 10.6552 17.4554 10.2689C17.2009 9.86626 16.805 9.5873 16.34 9.48446C15.876 9.38064 15.3978 9.46612 14.9968 9.72419L6.68681 15.0702C6.28354 15.3296 6.00811 15.7307 5.91071 16.1997C5.81306 16.6687 5.90561 17.1466 6.17067 17.544L6.35643 17.8229C6.62256 18.2221 7.02839 18.4914 7.49953 18.5814C7.61199 18.6028 7.72445 18.6135 7.83633 18.6135ZM7.29164 17.2008L7.10588 16.9212C7.05765 16.8498 7.02434 16.7694 7.00794 16.6848C6.99154 16.6002 6.9924 16.5132 7.01045 16.4289C7.02767 16.3444 7.06164 16.2642 7.11038 16.1931C7.15911 16.122 7.22162 16.0613 7.29419 16.0147L15.6044 10.6687C15.7089 10.6014 15.8306 10.5655 15.955 10.5655C16.0019 10.5655 16.0498 10.5703 16.0971 10.5809C16.1808 10.5993 16.2601 10.6342 16.3302 10.6836C16.4004 10.733 16.46 10.7959 16.5055 10.8685C16.5954 11.0101 16.6268 11.1809 16.5934 11.3452C16.56 11.5095 16.4642 11.6545 16.3262 11.7497L8.20168 17.374C8.13091 17.4234 8.05095 17.458 7.96655 17.4759C7.88214 17.4938 7.795 17.4946 7.7103 17.4782C7.62548 17.4623 7.54472 17.4296 7.47279 17.382C7.40085 17.3344 7.33931 17.2728 7.29164 17.2008Z" fill="#D2D5DA"/>
<path d="M29.807 20.8668C29.807 18.4657 26.3933 13.7752 25.3142 12.3522V7.99469C25.3142 6.90203 24.5879 5.98623 23.5964 5.67641V3.69493C23.5964 2.58022 22.6893 1.67331 21.5749 1.67331H18.2842C17.1697 1.67331 16.2625 2.58014 16.2625 3.69493V5.55499H15.9396C15.4534 5.55426 14.9781 5.69956 14.5755 5.97208L4.18762 12.9776C3.6025 13.3717 3.12325 13.9035 2.79206 14.5264C2.46087 15.1493 2.28791 15.844 2.28841 16.5495V28.2831C2.28841 30.3327 3.95563 31.9999 6.00523 31.9999H21.5973C23.6469 31.9999 25.3145 30.3327 25.3145 28.2831V26.0301C27.8486 25.6747 29.807 23.4978 29.807 20.8668ZM17.386 3.69493C17.386 3.19969 17.789 2.79642 18.2842 2.79642H21.5749C22.0701 2.79642 22.4731 3.19977 22.4731 3.69493V5.55499H17.386V3.69493ZM21.5973 30.8767H6.0049C4.57452 30.8767 3.41127 29.7131 3.41127 28.2831V16.5495C3.41094 16.0278 3.53889 15.5141 3.78383 15.0536C4.02877 14.5931 4.3832 14.1998 4.8159 13.9085L15.204 6.90268C15.4212 6.75586 15.6774 6.67751 15.9396 6.67777H22.8747C23.6001 6.67777 24.191 7.26869 24.191 7.99436V11.9461C24.1769 11.9602 24.1572 11.966 24.1447 11.9818C23.6557 12.6081 19.3678 18.1788 19.3678 20.8668C19.3678 23.6112 21.498 25.8626 24.1911 26.0667V28.2834C24.1911 29.7131 23.0277 30.8767 21.5973 30.8767ZM24.5876 24.9635C22.3291 24.9635 20.4913 23.1256 20.4913 20.8668C20.4913 19.1149 23.1348 15.2046 24.5876 13.2543C26.0411 15.2042 28.6839 19.1136 28.6839 20.8668C28.6839 23.1256 26.8457 24.9635 24.5876 24.9635ZM7.17753 8.11521C8.30352 8.11521 9.22005 7.19901 9.22005 6.07261C9.22005 5.1346 7.99535 3.49313 7.61996 3.01237C7.4073 2.7399 6.94776 2.7399 6.73502 3.01237C6.35963 3.49313 5.13493 5.1346 5.13493 6.07269C5.13534 7.19893 6.05146 8.11521 7.17753 8.11521ZM7.17753 4.30774C7.67401 5.02593 8.09694 5.78344 8.09694 6.07261C8.09694 6.57937 7.68429 6.99202 7.17753 6.99202C6.6711 6.99202 6.25844 6.57946 6.25844 6.07261C6.25844 5.7841 6.68105 5.02634 7.17753 4.30774ZM4.16549 3.26468C4.16549 2.32659 2.94079 0.685118 2.5654 0.204351C2.35266 -0.068117 1.89312 -0.068117 1.68046 0.204351C1.30507 0.685118 0.080368 2.32659 0.080368 3.26468C0.080368 4.39099 0.996821 5.3072 2.12289 5.3072C3.24896 5.3072 4.16549 4.39099 4.16549 3.26468ZM2.12322 4.18401C1.61645 4.18401 1.20389 3.77144 1.20389 3.26468C1.20389 2.97609 1.62674 2.21824 2.12322 1.49948C2.61945 2.218 3.0423 2.97543 3.0423 3.26468C3.0423 3.77177 2.62998 4.18401 2.12322 4.18401Z" fill="#D2D5DA"/>
<path d="M26.9991 19.9248C26.9253 19.9248 26.8523 19.9393 26.7841 19.9675C26.7159 19.9958 26.654 20.0371 26.6018 20.0893C26.5497 20.1415 26.5083 20.2034 26.48 20.2715C26.4518 20.3397 26.4373 20.4128 26.4373 20.4865C26.4373 21.5701 25.5555 22.4523 24.4716 22.4523C24.1611 22.4523 23.9101 22.7035 23.9101 23.0137C23.9101 23.3238 24.1611 23.5754 24.4716 23.5754C26.1748 23.5754 27.5604 22.1897 27.5604 20.4865C27.5604 20.1764 27.3095 19.9248 26.999 19.9248H26.9991ZM19.6981 26.9452H7.90412C7.59364 26.9452 7.34273 27.1965 7.34273 27.5065C7.34273 27.8166 7.59364 28.0682 7.90412 28.0682H19.6981C20.0086 28.0682 20.2595 27.8167 20.2595 27.5065C20.2595 27.1964 20.0086 26.9451 19.6981 26.9451V26.9452Z" fill="#D2D5DA"/>
</g>
<defs>
<clipPath id="clip0_4607_92754">
<rect width="32" height="32" fill="white"/>
</clipPath>
</defs>
</svg>
