<svg width="16" height="16" viewBox="0 0 16 16" fill="none" xmlns="http://www.w3.org/2000/svg">
<path d="M8.66665 5.33325V7.72392L9.80465 8.86192C9.86833 8.92342 9.91912 8.99698 9.95406 9.07832C9.989 9.15965 10.0074 9.24713 10.0082 9.33565C10.0089 9.42417 9.99206 9.51196 9.95854 9.59389C9.92501 9.67582 9.87551 9.75025 9.81292 9.81285C9.75032 9.87544 9.67589 9.92495 9.59396 9.95847C9.51203 9.99199 9.42424 10.0089 9.33572 10.0081C9.2472 10.0073 9.15972 9.98893 9.07839 9.95399C8.99705 9.91905 8.92349 9.86826 8.86199 9.80459L7.52866 8.47125C7.40362 8.34626 7.33336 8.17672 7.33332 7.99992V5.33325C7.33332 5.15644 7.40356 4.98687 7.52858 4.86185C7.65361 4.73682 7.82318 4.66659 7.99999 4.66659C8.1768 4.66659 8.34637 4.73682 8.47139 4.86185C8.59642 4.98687 8.66665 5.15644 8.66665 5.33325ZM8.01732 1.33325C7.14641 1.33435 6.28429 1.50747 5.48047 1.84268C4.67666 2.17789 3.94697 2.66859 3.33332 3.28659V1.99992C3.33332 1.82311 3.26308 1.65354 3.13806 1.52851C3.01303 1.40349 2.84347 1.33325 2.66665 1.33325C2.48984 1.33325 2.32027 1.40349 2.19525 1.52851C2.07023 1.65354 1.99999 1.82311 1.99999 1.99992V4.66659C1.99999 4.8434 2.07023 5.01297 2.19525 5.13799C2.32027 5.26301 2.48984 5.33325 2.66665 5.33325H5.33332C5.51013 5.33325 5.6797 5.26301 5.80473 5.13799C5.92975 5.01297 5.99999 4.8434 5.99999 4.66659C5.99999 4.48977 5.92975 4.32021 5.80473 4.19518C5.6797 4.07016 5.51013 3.99992 5.33332 3.99992H4.50732C5.15502 3.43404 5.93018 3.0335 6.76646 2.83257C7.60274 2.63165 8.47525 2.63632 9.30933 2.84619C10.1434 3.05606 10.9142 3.46488 11.5558 4.03767C12.1974 4.61046 12.6907 5.33016 12.9935 6.1352C13.2962 6.94023 13.3994 7.80663 13.2943 8.66025C13.1891 9.51388 12.8787 10.3293 12.3896 11.0368C11.9005 11.7443 11.2473 12.3227 10.4858 12.7227C9.7244 13.1226 8.8774 13.3321 8.01732 13.3333C7.02707 13.3374 6.05579 13.0617 5.21532 12.538C4.37485 12.0144 3.69937 11.264 3.26665 10.3733C3.23051 10.2909 3.17807 10.2167 3.11251 10.1552C3.04695 10.0937 2.96961 10.046 2.88516 10.0151C2.8007 9.98425 2.71087 9.97077 2.62108 9.97552C2.53128 9.98026 2.44337 10.0031 2.36263 10.0427C2.2819 10.0823 2.21001 10.1378 2.1513 10.206C2.09258 10.2741 2.04825 10.3533 2.02097 10.439C1.9937 10.5247 1.98404 10.615 1.99257 10.7046C2.00111 10.7941 2.02767 10.8809 2.07065 10.9599C2.61188 12.0753 3.45728 13.0151 4.50941 13.6709C5.56153 14.3267 6.77755 14.6719 8.01732 14.6666C9.78543 14.6666 11.4811 13.9642 12.7314 12.714C13.9816 11.4637 14.684 9.76803 14.684 7.99992C14.684 6.23181 13.9816 4.53612 12.7314 3.28587C11.4811 2.03563 9.78543 1.33325 8.01732 1.33325Z" fill="#5A5A5A"/>
</svg>
