<svg width="40" height="40" viewBox="0 0 40 40" fill="none" xmlns="http://www.w3.org/2000/svg">
<rect x="0.4" y="0.4" width="39.2" height="39.2" rx="19.6" stroke="#001450" stroke-width="0.8"/>
<path d="M20 12C20.1632 12 20.3197 12.0648 20.4351 12.1802C20.5506 12.2956 20.6154 12.4522 20.6154 12.6154V19.3846H27.3846C27.5478 19.3846 27.7044 19.4495 27.8198 19.5649C27.9352 19.6803 28 19.8368 28 20C28 20.1632 27.9352 20.3197 27.8198 20.4351C27.7044 20.5506 27.5478 20.6154 27.3846 20.6154H20.6154V27.3846C20.6154 27.5478 20.5506 27.7044 20.4351 27.8198C20.3197 27.9352 20.1632 28 20 28C19.8368 28 19.6803 27.9352 19.5649 27.8198C19.4495 27.7044 19.3846 27.5478 19.3846 27.3846V20.6154H12.6154C12.4522 20.6154 12.2956 20.5506 12.1802 20.4351C12.0648 20.3197 12 20.1632 12 20C12 19.8368 12.0648 19.6803 12.1802 19.5649C12.2956 19.4495 12.4522 19.3846 12.6154 19.3846H19.3846V12.6154C19.3846 12.4522 19.4495 12.2956 19.5649 12.1802C19.6803 12.0648 19.8368 12 20 12Z" fill="#001450"/>
</svg>
