<svg width="14" height="14" viewBox="0 0 14 14" fill="none" xmlns="http://www.w3.org/2000/svg">
<path d="M5.37253 4.37067L6.59386 2.38183L5.59853 0.724666C5.45997 0.502444 5.26436 0.391333 5.01169 0.391333C4.75903 0.391333 4.56603 0.502444 4.43269 0.724666L3.06119 2.988C2.97286 3.12622 2.9508 3.26783 2.99503 3.41283C3.03914 3.55794 3.1303 3.67467 3.26853 3.763L4.59753 4.57783C4.73564 4.65517 4.87725 4.6745 5.02236 4.63583C5.16736 4.59717 5.28408 4.50878 5.37253 4.37067ZM11.6284 9.46083L10.4275 7.4515C10.3419 7.31328 10.3204 7.16822 10.3632 7.01633C10.4061 6.86444 10.4966 6.74983 10.6349 6.6725L11.9805 5.891C12.1186 5.81633 12.2637 5.79489 12.4157 5.82667C12.5676 5.85844 12.6822 5.94339 12.7595 6.0815L13.5562 7.41633C13.6784 7.61056 13.7444 7.82567 13.7542 8.06167C13.764 8.29767 13.7146 8.51694 13.6062 8.7195C13.4924 8.94706 13.3259 9.1275 13.1065 9.26083C12.8872 9.39417 12.6484 9.46083 12.3902 9.46083H11.6284ZM9.19069 13.6982L7.38303 11.8907C7.26969 11.7773 7.21303 11.6434 7.21303 11.4888C7.21303 11.3342 7.26969 11.2002 7.38303 11.087L9.19069 9.27933C9.27902 9.191 9.3833 9.16956 9.50353 9.215C9.62364 9.26056 9.68369 9.34556 9.68369 9.47V10.1355H12.8942L11.9157 12.0968C11.7908 12.3243 11.6215 12.5047 11.4077 12.638C11.1939 12.7713 10.9579 12.838 10.6997 12.838H9.68369V13.5077C9.68369 13.632 9.62364 13.7169 9.50353 13.7625C9.3833 13.8081 9.27902 13.7866 9.19069 13.6982ZM3.14603 12.838C2.92114 12.838 2.71569 12.7797 2.52969 12.663C2.34369 12.5463 2.20625 12.3909 2.11736 12.1968C2.0258 12.0164 1.9828 11.8283 1.98836 11.6325C1.99391 11.4367 2.04803 11.2528 2.15069 11.0808L2.72536 10.1355H5.06019C5.22319 10.1355 5.35925 10.1901 5.46836 10.2992C5.57736 10.4082 5.63186 10.5442 5.63186 10.7073V12.2703C5.63186 12.4333 5.57736 12.5687 5.46836 12.6765C5.35925 12.7842 5.22319 12.838 5.06019 12.838H3.14603ZM1.47219 10.9142L0.376859 8.7195C0.271526 8.51694 0.222304 8.30044 0.229192 8.07C0.236081 7.83956 0.30197 7.62167 0.426859 7.41633L0.697526 6.95833L0.136693 6.6235C0.0344703 6.56006 -0.0104186 6.46333 0.00202584 6.33333C0.0144703 6.20344 0.0841926 6.12472 0.211193 6.09717L2.69903 5.471C2.85091 5.43233 2.99247 5.45378 3.12369 5.53533C3.25503 5.61689 3.34003 5.73361 3.37869 5.8855L4.00469 8.38983C4.03225 8.51428 3.99564 8.61167 3.89486 8.682C3.79397 8.75244 3.69108 8.75589 3.58619 8.69233L3.01269 8.345L1.47219 10.9142ZM10.0485 5.00183L7.56086 4.37567C7.43653 4.35089 7.36469 4.27283 7.34536 4.1415C7.32603 4.01017 7.37297 3.91278 7.48619 3.84933L8.06386 3.5145L5.94853 0H8.33453C8.57041 0 8.7918 0.0596665 8.99869 0.179C9.20558 0.298333 9.37147 0.458 9.49636 0.658L10.375 2.12783L10.9399 1.7805C11.0421 1.71428 11.1436 1.71983 11.2444 1.79717C11.3452 1.87439 11.3832 1.97522 11.3584 2.09967L10.7284 4.58733C10.687 4.73922 10.6014 4.85594 10.4714 4.9375C10.3415 5.01906 10.2005 5.0405 10.0485 5.00183Z" fill="#001450"/>
</svg>
