<svg width="15" height="11" viewBox="0 0 15 11" fill="none" xmlns="http://www.w3.org/2000/svg">
<path d="M9.59736 4.59521L6.22686 2.64521C6.13206 2.59001 6.02438 2.56081 5.91468 2.56058C5.80499 2.56035 5.69718 2.58908 5.60215 2.64387C5.50712 2.69867 5.42825 2.77758 5.3735 2.87263C5.31875 2.96769 5.29007 3.07551 5.29036 3.18521L5.28786 7.07871C5.28636 7.30171 5.40586 7.50821 5.59936 7.61921C5.69419 7.67422 5.80184 7.70328 5.91147 7.70345C6.0211 7.70363 6.12885 7.67491 6.22386 7.62021L9.59736 5.67521C9.69216 5.62049 9.77088 5.54178 9.82561 5.44698C9.88035 5.35219 9.90916 5.24466 9.90916 5.13521C9.90916 5.02575 9.88035 4.91822 9.82561 4.82343C9.77088 4.72864 9.69216 4.64992 9.59736 4.59521ZM9.29586 5.15471L7.61186 6.12871L5.88936 7.07871V5.13171L5.92636 3.16471L9.29586 5.11421V5.15471ZM12.8064 0.122706C12.8024 0.117706 12.7984 0.112206 12.7939 0.107706C12.7679 0.0780926 12.7363 0.0538909 12.7009 0.0364824C12.6656 0.0190739 12.6271 0.00879954 12.5878 0.00624593C12.5485 0.00369231 12.509 0.00890957 12.4717 0.0215996C12.4344 0.0342896 12.4 0.054204 12.3704 0.0802058C12.3407 0.106207 12.3165 0.137787 12.2991 0.173142C12.2817 0.208497 12.2714 0.246935 12.2689 0.28626C12.2663 0.325586 12.2716 0.365029 12.2842 0.402339C12.2969 0.439648 12.3169 0.474093 12.3429 0.503706C13.4091 1.80364 13.9918 3.43294 13.9918 5.11421C13.9918 6.79548 13.4091 8.42478 12.3429 9.72471C12.3163 9.75494 12.2961 9.79021 12.2835 9.8284C12.2709 9.86659 12.2661 9.90693 12.2694 9.94702C12.2726 9.98711 12.2839 10.0261 12.3026 10.0618C12.3213 10.0974 12.3469 10.1289 12.378 10.1544C12.4091 10.18 12.445 10.199 12.4836 10.2103C12.5222 10.2217 12.5627 10.2252 12.6026 10.2206C12.6426 10.216 12.6812 10.2034 12.7162 10.1836C12.7512 10.1638 12.7819 10.1371 12.8064 10.1052C13.9607 8.69795 14.5916 6.93409 14.5916 5.11396C14.5916 3.29382 13.9607 1.52996 12.8064 0.122706Z" fill="#5A5A5A"/>
<path d="M11.3358 2.0021C11.2858 1.94251 11.2145 1.90466 11.1372 1.89653C11.0598 1.88839 10.9822 1.9106 10.9209 1.95848C10.8595 2.00635 10.8191 2.07617 10.8082 2.15322C10.7973 2.23027 10.8167 2.30856 10.8623 2.3716C11.4737 3.16193 11.8055 4.13288 11.8055 5.1321C11.8055 6.13132 11.4737 7.10226 10.8623 7.8926C10.8134 7.95532 10.7914 8.03491 10.8011 8.11387C10.8109 8.19282 10.8516 8.26467 10.9143 8.3136C10.9771 8.36253 11.0566 8.38454 11.1356 8.37479C11.2145 8.36504 11.2864 8.32432 11.3353 8.2616C12.0291 7.36581 12.4056 6.26494 12.4056 5.13193C12.4057 3.99893 12.0294 2.89799 11.3358 2.0021ZM2.24883 0.503097L2.26133 0.488097C2.2864 0.456944 2.30499 0.421092 2.31601 0.382649C2.32703 0.344206 2.33025 0.303949 2.32548 0.264244C2.32071 0.224539 2.30806 0.186188 2.28826 0.151445C2.26845 0.116702 2.2419 0.0862682 2.21017 0.0619341C2.17844 0.0376001 2.14216 0.0198563 2.10346 0.00974599C2.06477 -0.000364317 2.02445 -0.00263704 1.98487 0.00306145C1.94529 0.00875994 1.90724 0.0223147 1.87298 0.0429286C1.83871 0.0635425 1.80891 0.0907997 1.78533 0.123097C0.630926 1.53023 0 3.29402 0 5.1141C0 6.93417 0.630926 8.69797 1.78533 10.1051C1.83594 10.1662 1.90866 10.2048 1.98763 10.2125C2.06659 10.2201 2.14539 10.1963 2.20683 10.1461C2.26833 10.0957 2.3073 10.0229 2.31517 9.94379C2.32305 9.86466 2.29919 9.78564 2.24883 9.7241C1.1826 8.42417 0.599876 6.79487 0.599876 5.1136C0.599876 3.43233 1.1826 1.80303 2.24883 0.503097Z" fill="#5A5A5A"/>
<path d="M3.67735 1.9502C3.61454 1.90125 3.53487 1.87923 3.45584 1.88898C3.37681 1.89873 3.30488 1.93945 3.25585 2.0022C2.56226 2.89807 2.18591 3.99896 2.18591 5.13195C2.18591 6.26493 2.56226 7.36582 3.25585 8.2617C3.27995 8.29277 3.30996 8.31878 3.34414 8.33822C3.37832 8.35766 3.41601 8.37016 3.45504 8.37499C3.49407 8.37982 3.53367 8.3769 3.57156 8.36638C3.60946 8.35586 3.6449 8.33795 3.67585 8.3137C3.70698 8.28954 3.73304 8.25948 3.75255 8.22525C3.77206 8.19101 3.78464 8.15327 3.78956 8.11418C3.79448 8.07508 3.79165 8.0354 3.78124 7.9974C3.77082 7.95939 3.75302 7.92382 3.72885 7.8927C3.11745 7.10236 2.78572 6.13142 2.78572 5.1322C2.78572 4.13298 3.11745 3.16203 3.72885 2.3717C3.77785 2.30895 3.79995 2.22932 3.7903 2.15029C3.78064 2.07127 3.74002 1.9993 3.67735 1.9502Z" fill="#5A5A5A"/>
</svg>
