<svg width="123" height="48" viewBox="0 0 123 48" fill="none" xmlns="http://www.w3.org/2000/svg">
<path d="M60 47.5C33.5 47.5 33.5 18 0 18H122.5C88.5 18 83 47.5 60 47.5Z" fill="#F9FAFB"/>
<g clip-path="url(#clip0_4037_4888)">
<path d="M69.6783 13.4635C69.9586 13.505 70.2181 13.6356 70.4184 13.8359C70.6188 14.0363 70.7494 14.2958 70.7908 14.576C71.1114 16.5559 71.0925 21.6471 64.9266 27.8131C62.8901 29.8496 59.7034 31.5655 57.6575 32.5177C57.1578 32.7534 56.5639 32.6497 56.1679 32.2537L52.0101 28.0959C51.6141 27.6999 51.501 27.0966 51.7367 26.5969C52.6889 24.551 54.4048 21.3643 56.4413 19.3278C62.6073 13.1618 67.6984 13.143 69.6783 13.4635ZM64.4552 23.5704C65.4923 22.5334 65.4923 20.8363 64.4552 19.7992C63.4181 18.7621 61.721 18.7621 60.6839 19.7992C59.6468 20.8363 59.6468 22.5334 60.6839 23.5704C61.721 24.6075 63.4181 24.6075 64.4552 23.5704ZM49.5305 26.5969C50.2376 24.9847 52.0289 21.2323 54.4331 18.5453L52.6606 18.187C51.7744 18.0173 50.8787 18.2907 50.247 18.9224L46.0515 23.1179C45.3821 23.7873 45.599 24.9092 46.4664 25.2864L49.5305 26.5969ZM61.1365 38.2028L65.332 34.0073C65.9637 33.3757 66.2371 32.48 66.0579 31.6032L65.6997 29.8307C63.0221 32.2254 59.2509 34.0168 57.6481 34.7333L58.9586 37.7974C59.3451 38.6554 60.4671 38.8722 61.1365 38.2028Z" fill="#001450"/>
</g>
<defs>
<clipPath id="clip0_4037_4888">
<rect width="32" height="32" fill="white" transform="translate(61.627) rotate(45)"/>
</clipPath>
</defs>
</svg>
