<svg width="18" height="18" viewBox="0 0 20 20" fill="none" xmlns="http://www.w3.org/2000/svg">
<path fill-rule="evenodd" clip-rule="evenodd" d="M12.3426 3.22693C13.5657 4.36268 14.3009 5.92836 14.3936 7.5949C14.4864 9.26143 13.9295 10.899 12.8399 12.1635L17.4475 16.771L16.771 17.4474L12.1635 12.8399C11.2203 13.6526 10.0619 14.1749 8.82836 14.3438C7.59479 14.5127 6.33869 14.321 5.21171 13.7917C4.08472 13.2624 3.13502 12.4182 2.47725 11.3611C1.81948 10.3039 1.48175 9.07899 1.50483 7.83412C1.52792 6.58925 1.91083 5.37767 2.60734 4.34563C3.30385 3.31359 4.28419 2.50521 5.43003 2.01808C6.57586 1.53094 7.8382 1.38587 9.06466 1.60038C10.2911 1.81489 11.4293 2.3798 12.3418 3.22693H12.3426ZM7.95784 2.46697C7.23677 2.46697 6.52277 2.60899 5.85659 2.88494C5.19041 3.16088 4.5851 3.56533 4.07523 4.0752C3.56536 4.58507 3.1609 5.19038 2.88496 5.85656C2.60902 6.52274 2.467 7.23675 2.467 7.95781C2.467 8.67888 2.60902 9.39289 2.88496 10.0591C3.1609 10.7252 3.56536 11.3306 4.07523 11.8404C4.5851 12.3503 5.19041 12.7548 5.85659 13.0307C6.52277 13.3066 7.23677 13.4487 7.95784 13.4487C9.4141 13.4487 10.8107 12.8702 11.8405 11.8404C12.8702 10.8107 13.4487 9.41408 13.4487 7.95781C13.4487 6.50155 12.8702 5.10493 11.8405 4.0752C10.8107 3.04547 9.4141 2.46697 7.95784 2.46697Z" fill="#5A5A5A" stroke="#5A5A5A" stroke-width="0.159155"/>
</svg>
