<svg width="14" height="14" viewBox="0 0 14 14" fill="none" xmlns="http://www.w3.org/2000/svg">
<g clip-path="url(#clip0_2143_21)">
<path d="M4.81641 1.25983C2.85635 1.25983 1.26172 2.85446 1.26172 4.81451C1.26172 6.77457 2.85635 8.36917 4.81641 8.36917C6.77646 8.36917 8.37107 6.77457 8.37107 4.81451C8.37107 2.85446 6.77646 1.25983 4.81641 1.25983ZM4.81641 7.8223C3.1579 7.8223 1.80859 6.47302 1.80859 4.81451C1.80859 3.15601 3.1579 1.8067 4.81641 1.8067C6.47491 1.8067 7.82419 3.15601 7.82419 4.81451C7.82419 6.47302 6.47491 7.8223 4.81641 7.8223Z" fill="white"/>
<path d="M13.7517 12.0137L9.92274 8.18471C9.81594 8.07796 9.64285 8.07796 9.53605 8.18471L9.47127 8.24946L8.65498 7.43314C9.16565 6.68693 9.46482 5.78505 9.46482 4.81451C9.46482 2.25137 7.37953 0.166077 4.81641 0.166077C2.25326 0.166077 0.167969 2.25137 0.167969 4.81451C0.167969 7.37766 2.25326 9.46292 4.81641 9.46292C5.78695 9.46292 6.68882 9.16376 7.43509 8.65306L8.25141 9.46938L8.18261 9.53817C8.07586 9.64495 8.07586 9.81806 8.18261 9.9249L12.0116 13.7538C12.1184 13.8606 12.2915 13.8606 12.3983 13.7538L13.7517 12.4004C13.8584 12.2937 13.8585 12.1205 13.7517 12.0137ZM0.714789 4.81454C0.714789 2.55294 2.55475 0.712979 4.81635 0.712979C7.07795 0.712979 8.91789 2.55294 8.91789 4.81454C8.91789 7.07614 7.07795 8.91608 4.81635 8.91608C2.55475 8.91608 0.714789 7.07614 0.714789 4.81454ZM8.31879 7.87045L9.07812 8.62973L8.6316 9.07626L7.87226 8.31695C8.03101 8.17836 8.18019 8.02919 8.31879 7.87045ZM12.2049 13.1738L8.7626 9.73155L9.72934 8.76478L13.1716 12.2071L12.2049 13.1738Z" fill="white"/>
</g>
<defs>
<clipPath id="clip0_2143_21">
<rect width="14" height="14" fill="white"/>
</clipPath>
</defs>
</svg>
