<svg width="32" height="32" viewBox="0 0 32 32" fill="none" xmlns="http://www.w3.org/2000/svg">
<path d="M20.0002 2.66699H8.00016C7.29292 2.66699 6.61464 2.94794 6.11454 3.44804C5.61445 3.94814 5.3335 4.62641 5.3335 5.33366V26.667C5.3335 27.3742 5.61445 28.0525 6.11454 28.5526C6.61464 29.0527 7.29292 29.3337 8.00016 29.3337H24.0002C24.7074 29.3337 25.3857 29.0527 25.8858 28.5526C26.3859 28.0525 26.6668 27.3742 26.6668 26.667V9.33366L20.0002 2.66699Z" stroke="#001450" stroke-linecap="round" stroke-linejoin="round"/>
<path d="M18.6665 2.66699V8.00033C18.6665 8.70757 18.9475 9.38585 19.4476 9.88594C19.9477 10.386 20.6259 10.667 21.3332 10.667H26.6665" stroke="#001450" stroke-linecap="round" stroke-linejoin="round"/>
<path d="M13.3334 12H10.6667" stroke="#001450" stroke-linecap="round" stroke-linejoin="round"/>
<path d="M21.3332 17.333H10.6665" stroke="#001450" stroke-linecap="round" stroke-linejoin="round"/>
<path d="M21.3332 22.667H10.6665" stroke="#001450" stroke-linecap="round" stroke-linejoin="round"/>
</svg>
