<svg width="18" height="18" viewBox="0 0 18 18" fill="none" xmlns="http://www.w3.org/2000/svg">
<g clip-path="url(#clip0_9018_64263)">
<path d="M17.5779 4.74535C17.5395 4.71872 17.4944 4.70354 17.4478 4.70159C17.4011 4.69964 17.3549 4.711 17.3144 4.73435L16.7532 5.05835C15.8711 3.26943 14.4854 1.92937 12.9196 1.36093C11.6121 0.886324 10.2201 0.970207 8.89395 1.60344C8.84357 1.62749 8.80287 1.66795 8.77853 1.71819C8.75418 1.76842 8.74763 1.82544 8.75996 1.87988C8.77229 1.93432 8.80277 1.98296 8.84638 2.0178C8.89 2.05264 8.94416 2.07162 8.99998 2.07162C11.6407 2.07162 14.0575 3.58443 15.2189 5.94418L14.5172 6.34929C14.4768 6.37262 14.4438 6.40699 14.4222 6.44836C14.4005 6.48974 14.3911 6.53642 14.395 6.58295C14.3989 6.62948 14.4159 6.67395 14.4442 6.71115C14.4724 6.74835 14.5106 6.77675 14.5544 6.79303L16.93 7.67777C16.964 7.69043 17.0003 7.69543 17.0364 7.6924C17.0725 7.68938 17.1075 7.6784 17.1389 7.66026C17.1703 7.64215 17.1973 7.61732 17.218 7.58755C17.2386 7.55778 17.2525 7.52381 17.2585 7.48807L17.6801 4.98839C17.6879 4.94235 17.6824 4.89506 17.6643 4.85203C17.6462 4.80899 17.6162 4.772 17.5779 4.74535ZM16.8227 7.11264L15.216 6.51424L15.6612 6.25718C15.7141 6.22663 15.7538 6.17751 15.7725 6.11937C15.7912 6.06122 15.7875 5.9982 15.7624 5.94257C14.724 3.64925 12.5967 2.05805 10.1587 1.67084C11.0296 1.46306 11.898 1.51372 12.7516 1.82359C14.2647 2.37287 15.6023 3.71545 16.4216 5.50712C16.4358 5.5383 16.4564 5.56615 16.4821 5.58889C16.5077 5.61164 16.5378 5.62877 16.5705 5.6392C16.6032 5.64963 16.6376 5.65312 16.6717 5.64946C16.7058 5.64579 16.7387 5.63504 16.7684 5.6179L17.1079 5.4219L16.8227 7.11264ZM1.82547 9.24609C1.89074 9.24607 1.95333 9.22013 1.99949 9.17397C2.04565 9.12782 2.0716 9.06524 2.07163 8.99996C2.07163 6.35927 3.58444 3.94242 5.9442 2.78103L6.34931 3.48268C6.37265 3.52312 6.40702 3.55608 6.44839 3.57771C6.48976 3.59935 6.53644 3.60877 6.58297 3.60487C6.62949 3.60097 6.67395 3.58392 6.71115 3.55571C6.74835 3.52749 6.77675 3.48928 6.79305 3.44552L7.67776 1.06991C7.69042 1.03595 7.69542 0.999602 7.69241 0.963478C7.68939 0.927355 7.67842 0.892345 7.6603 0.860954C7.64217 0.829562 7.61733 0.802564 7.58755 0.781892C7.55778 0.76122 7.5238 0.747384 7.48805 0.741375L4.98841 0.319816C4.94237 0.312074 4.89508 0.317578 4.85205 0.335685C4.80902 0.353792 4.77202 0.383756 4.74537 0.422086C4.71875 0.460438 4.70357 0.505571 4.70162 0.552219C4.69968 0.598867 4.71103 0.645108 4.73437 0.685547L5.05837 1.24675C3.26941 2.12882 1.92936 3.51453 1.36092 5.08043C0.886306 6.38782 0.970189 7.77983 1.60342 9.10603C1.62345 9.14795 1.65493 9.18334 1.69422 9.20813C1.73351 9.23291 1.77901 9.24607 1.82547 9.24609ZM1.82357 5.24837C2.37285 3.73528 3.71544 2.39766 5.5071 1.57837C5.53828 1.56412 5.56613 1.54351 5.58887 1.51786C5.61162 1.49221 5.62876 1.4621 5.63919 1.42944C5.64961 1.39679 5.65311 1.36232 5.64944 1.32823C5.64577 1.29415 5.63502 1.26121 5.61788 1.23152L5.42188 0.892054L7.11258 1.17721L6.51422 2.78402L6.25716 2.33873C6.22663 2.28583 6.17751 2.24617 6.11936 2.22748C6.06121 2.20879 5.99818 2.21241 5.94255 2.23762C3.64924 3.27593 2.05806 5.40327 1.67082 7.84132C1.46304 6.97039 1.5137 6.102 1.82357 5.24837ZM8.99998 15.9283C6.35929 15.9283 3.94244 14.4155 2.78105 12.0558L3.48274 11.6507C3.52317 11.6273 3.55613 11.593 3.57776 11.5516C3.5994 11.5102 3.60882 11.4635 3.60492 11.417C3.60103 11.3705 3.58397 11.326 3.55576 11.2888C3.52754 11.2516 3.48933 11.2232 3.44558 11.2069L1.06996 10.3222C1.036 10.3096 0.999663 10.3046 0.963548 10.3076C0.927434 10.3106 0.892433 10.3216 0.861047 10.3397C0.829661 10.3578 0.802665 10.3827 0.781986 10.4124C0.761308 10.4422 0.747458 10.4762 0.741427 10.5119L0.319833 13.0116C0.312068 13.0576 0.317562 13.1049 0.335671 13.1479C0.353781 13.191 0.38376 13.228 0.422107 13.2546C0.460455 13.2813 0.505588 13.2964 0.552238 13.2984C0.598889 13.3003 0.64513 13.289 0.685564 13.2656L1.24676 12.9416C2.12887 14.7305 3.51455 16.0706 5.08045 16.639C5.63799 16.8414 6.21068 16.9422 6.78732 16.9422C7.5629 16.9422 8.34541 16.7597 9.10605 16.3965C9.15641 16.3724 9.19709 16.332 9.22142 16.2817C9.24576 16.2315 9.25229 16.1745 9.23996 16.1201C9.22762 16.0656 9.19716 16.017 9.15355 15.9822C9.10995 15.9473 9.05579 15.9284 8.99998 15.9283ZM5.24835 16.1764C3.7353 15.6271 2.39764 14.2845 1.57836 12.4928C1.5641 12.4616 1.54349 12.4338 1.51785 12.411C1.4922 12.3883 1.46209 12.3712 1.42944 12.3607C1.39679 12.3503 1.36232 12.3468 1.32824 12.3505C1.29416 12.3542 1.26123 12.3649 1.23154 12.382L0.892071 12.578L1.17722 10.8873L2.78404 11.4857L2.33875 11.7428C2.28586 11.7733 2.24621 11.8224 2.22753 11.8806C2.20884 11.9387 2.21244 12.0017 2.23764 12.0574C3.27595 14.3506 5.40325 15.9419 7.84134 16.3291C6.97041 16.537 6.10198 16.4863 5.24835 16.1764ZM16.1201 8.75999C16.0656 8.77232 16.017 8.80279 15.9822 8.8464C15.9473 8.89001 15.9283 8.94418 15.9283 9C15.9283 11.6407 14.4155 14.0575 12.0557 15.2189L11.6506 14.5172C11.6273 14.4768 11.5929 14.4439 11.5515 14.4222C11.5102 14.4006 11.4635 14.3912 11.417 14.3951C11.3704 14.399 11.326 14.416 11.2888 14.4442C11.2516 14.4724 11.2232 14.5107 11.2069 14.5544L10.3222 16.93C10.3095 16.9639 10.3045 17.0003 10.3075 17.0364C10.3105 17.0725 10.3215 17.1075 10.3396 17.1389C10.3578 17.1703 10.3826 17.1973 10.4124 17.218C10.4422 17.2387 10.4761 17.2525 10.5119 17.2585L13.0116 17.6801C13.0576 17.6879 13.1049 17.6824 13.1479 17.6643C13.1909 17.6462 13.2279 17.6162 13.2546 17.5778C13.2812 17.5395 13.2964 17.4944 13.2983 17.4477C13.3003 17.4011 13.2889 17.3548 13.2656 17.3144L12.9416 16.7532C14.7306 15.8711 16.0706 14.4854 16.639 12.9195C17.1136 11.6121 17.0297 10.2201 16.3965 8.89393C16.3724 8.84357 16.332 8.80288 16.2817 8.77854C16.2315 8.75421 16.1745 8.74766 16.1201 8.75999ZM16.1764 12.7516C15.6271 14.2647 14.2845 15.6023 12.4929 16.4216C12.4617 16.4358 12.4338 16.4565 12.4111 16.4821C12.3883 16.5077 12.3712 16.5379 12.3608 16.5705C12.3503 16.6032 12.3469 16.6376 12.3505 16.6717C12.3542 16.7058 12.3649 16.7388 12.3821 16.7684L12.5781 17.1079L10.8874 16.8228L11.4858 15.216L11.7428 15.6612C11.7734 15.7141 11.8225 15.7538 11.8806 15.7725C11.9388 15.7912 12.0018 15.7876 12.0575 15.7624C14.3507 14.724 15.9419 12.5967 16.3291 10.1587C16.5369 11.0296 16.4863 11.898 16.1764 12.7516ZM6.45618 4.5084V4.99672C6.45618 5.16625 6.56615 5.31025 6.71838 5.362V5.60981H6.6294C5.94244 5.60981 5.38353 6.16869 5.38353 6.85564V12.6317C5.38353 13.3187 5.94241 13.8776 6.6294 13.8776H11.3706C12.0575 13.8776 12.6164 13.3187 12.6164 12.6317V6.85564C12.6164 6.16869 12.0576 5.60981 11.3706 5.60981H8.43892V5.362C8.59115 5.31025 8.70112 5.16625 8.70112 4.99672V4.5084C8.70112 4.29557 8.52797 4.12242 8.31514 4.12242H6.84223C6.62933 4.12242 6.45618 4.29557 6.45618 4.5084ZM6.6294 6.102H9.25989L9.87991 6.8047H5.87832C5.90472 6.41292 6.23104 6.102 6.6294 6.102ZM12.1242 12.1905H5.87575V7.29689H10.3142L12.1242 9.34822V12.1905ZM11.4844 7.87915L10.4808 6.74181H11.3705C11.4322 6.74181 11.4843 6.79391 11.4843 6.85561V7.87915H11.4844ZM11.3706 13.3854H6.6294C6.23101 13.3854 5.90472 13.0745 5.87832 12.6827H12.1216C12.0952 13.0745 11.7689 13.3854 11.3706 13.3854ZM12.1242 6.85564V8.60432L11.9766 8.43697V6.85564C11.9766 6.52152 11.7047 6.24966 11.3706 6.24966H10.0466L9.91629 6.102H11.3706C11.7861 6.102 12.1242 6.4401 12.1242 6.85564ZM7.21056 5.60981V5.38274H7.9467V5.60981H7.21056ZM6.94837 4.61461H8.2089V4.89055H6.94837V4.61461ZM9.42889 8.72814C9.34782 8.60101 9.27128 8.48095 9.21732 8.38227C9.19613 8.34351 9.1649 8.31117 9.12691 8.28864C9.08891 8.26612 9.04556 8.25423 9.00139 8.25423C8.95722 8.25423 8.91386 8.26612 8.87587 8.28864C8.83788 8.31117 8.80665 8.34351 8.78546 8.38227C8.72214 8.49807 8.63995 8.62854 8.5529 8.76667C8.15089 9.40468 7.60031 10.2785 8.2411 10.9192C8.4507 11.1289 8.72604 11.2336 9.00139 11.2336C9.27673 11.2336 9.55208 11.1289 9.76168 10.9192C10.4116 10.2693 9.82021 9.34186 9.42889 8.72814ZM9.41367 10.5712C9.18635 10.7985 8.81643 10.7985 8.58911 10.5712C8.25295 10.235 8.54829 9.69722 8.96929 9.02904L9.00294 8.9756L9.01387 8.99276C9.43529 9.65366 9.75623 10.2286 9.41367 10.5712Z" fill="#001450"/>
</g>
<defs>
<clipPath id="clip0_9018_64263">
<rect width="18" height="18" fill="white"/>
</clipPath>
</defs>
</svg>
