<svg width="14" height="10" viewBox="0 0 14 10" fill="none" xmlns="http://www.w3.org/2000/svg">
<path fill-rule="evenodd" clip-rule="evenodd" d="M0 0.409091C0 0.300593 0.0431006 0.196539 0.11982 0.11982C0.196539 0.0431006 0.300593 0 0.409091 0H12.6818C12.7903 0 12.8944 0.0431006 12.9711 0.11982C13.0478 0.196539 13.0909 0.300593 13.0909 0.409091V0.818182C13.0909 0.926679 13.0478 1.03073 12.9711 1.10745C12.8944 1.18417 12.7903 1.22727 12.6818 1.22727H0.409091C0.300593 1.22727 0.196539 1.18417 0.11982 1.10745C0.0431006 1.03073 0 0.926679 0 0.818182V0.409091ZM0 4.70455C0 4.59605 0.0431006 4.49199 0.11982 4.41527C0.196539 4.33855 0.300593 4.29545 0.409091 4.29545H9.40909C9.51759 4.29545 9.62164 4.33855 9.69836 4.41527C9.77508 4.49199 9.81818 4.59605 9.81818 4.70455V5.11364C9.81818 5.22213 9.77508 5.32619 9.69836 5.40291C9.62164 5.47963 9.51759 5.52273 9.40909 5.52273H0.409091C0.300593 5.52273 0.196539 5.47963 0.11982 5.40291C0.0431006 5.32619 0 5.22213 0 5.11364V4.70455ZM0.409091 8.59091C0.300593 8.59091 0.196539 8.63401 0.11982 8.71073C0.0431006 8.78745 0 8.8915 0 9V9.40909C0 9.51759 0.0431006 9.62164 0.11982 9.69836C0.196539 9.77508 0.300593 9.81818 0.409091 9.81818H5.31818C5.42668 9.81818 5.53073 9.77508 5.60745 9.69836C5.68417 9.62164 5.72727 9.51759 5.72727 9.40909V9C5.72727 8.8915 5.68417 8.78745 5.60745 8.71073C5.53073 8.63401 5.42668 8.59091 5.31818 8.59091H0.409091Z" fill="#000F1E" fill-opacity="0.6"/>
</svg>
