<svg width="15" height="12" viewBox="0 0 15 12" fill="none" xmlns="http://www.w3.org/2000/svg">
<path d="M7.23201 9.521C7.28824 9.521 7.34512 9.50922 7.40268 9.48567C7.46024 9.46211 7.51507 9.42811 7.56718 9.38367C7.76496 9.20589 8.00574 8.97878 8.28951 8.70233C8.5734 8.42589 8.84657 8.12689 9.10901 7.80533C9.37146 7.48378 9.59646 7.15367 9.78401 6.815C9.97157 6.47633 10.0653 6.163 10.0653 5.875C10.0653 5.44367 9.92368 5.08583 9.64035 4.8015C9.35701 4.51717 8.99868 4.375 8.56535 4.375C8.30979 4.375 8.06535 4.43889 7.83201 4.56667C7.59868 4.69444 7.39868 4.84722 7.23201 5.025C7.06535 4.84722 6.8649 4.69444 6.63068 4.56667C6.39646 4.43889 6.1544 4.375 5.90451 4.375C5.46729 4.375 5.10701 4.51717 4.82368 4.8015C4.54035 5.08583 4.39868 5.44367 4.39868 5.875C4.39868 6.16389 4.49246 6.47744 4.68001 6.81567C4.86757 7.15389 5.09257 7.48378 5.35501 7.80533C5.61746 8.12689 5.89062 8.42589 6.17451 8.70233C6.45829 8.97878 6.69907 9.20589 6.89685 9.38367C6.94896 9.42811 7.00379 9.46211 7.06135 9.48567C7.1189 9.50922 7.17579 9.521 7.23201 9.521ZM2.95451 11.8855C2.64229 11.8855 2.37496 11.7743 2.15251 11.5518C1.93018 11.3295 1.81901 11.0622 1.81901 10.75V5.20217L0.878681 5.921C0.755792 6.01789 0.621403 6.05506 0.475514 6.0325C0.329514 6.00994 0.209403 5.93861 0.115181 5.8185C0.0208474 5.69839 -0.0155415 5.56333 0.00601406 5.41333C0.0276807 5.26322 0.100014 5.14322 0.223014 5.05333L6.54835 0.2405C6.65046 0.165944 6.75918 0.107222 6.87451 0.0643331C6.98985 0.0214442 7.10751 0 7.22751 0C7.35018 0 7.46935 0.0214442 7.58501 0.0643331C7.70068 0.107222 7.80957 0.165944 7.91168 0.2405L14.2498 5.07C14.3718 5.16 14.4417 5.28 14.4595 5.43C14.4774 5.58 14.4392 5.71661 14.345 5.83983C14.2487 5.95839 14.1305 6.02578 13.9905 6.042C13.8505 6.05822 13.7197 6.01922 13.598 5.925L12.641 5.20217V10.75C12.641 11.0622 12.5301 11.3295 12.3083 11.5518C12.0866 11.7743 11.8176 11.8855 11.5015 11.8855H2.95451ZM2.91068 10.7978H11.5493V4.36783L7.22801 1.07567L2.91068 4.36633V10.7978Z" fill="#001450"/>
</svg>
