<svg width="24" height="24" viewBox="0 0 24 24" fill="none" xmlns="http://www.w3.org/2000/svg">
<g clip-path="url(#clip0_2053_16130)">
<path d="M21.7907 5.27189C19.2716 5.27189 17.222 3.22233 17.222 0.703125C17.222 0.314812 16.9072 0 16.5189 0H12.7533C12.3649 0 12.0501 0.314812 12.0501 0.703125V16.1422C12.0501 17.6232 10.8452 18.8281 9.36415 18.8281C7.88313 18.8281 6.67825 17.6232 6.67825 16.1422C6.67825 14.6611 7.88313 13.4562 9.36415 13.4562C9.75246 13.4562 10.0673 13.1414 10.0673 12.7531V8.98744C10.0673 8.59912 9.75246 8.28431 9.36415 8.28431C5.03135 8.28431 1.50635 11.8094 1.50635 16.1422C1.50639 20.475 5.03135 24 9.36419 24C13.697 24 17.2221 20.475 17.2221 16.1422V9.3083C18.6216 10.0543 20.1786 10.4438 21.7908 10.4438C22.1791 10.4438 22.4939 10.129 22.4939 9.74067V5.97502C22.4938 5.5867 22.179 5.27189 21.7907 5.27189ZM21.0876 9.00844C19.5865 8.88361 18.1611 8.35922 16.9295 7.47323C16.8245 7.39769 16.7007 7.35259 16.5716 7.34289C16.4426 7.3332 16.3134 7.3593 16.1983 7.4183C16.0831 7.47731 15.9865 7.56694 15.919 7.67734C15.8515 7.78773 15.8158 7.9146 15.8158 8.04398V16.1422C15.8158 19.6996 12.9216 22.5938 9.36415 22.5938C5.80675 22.5938 2.9126 19.6996 2.9126 16.1422C2.9126 12.8223 5.43311 10.08 8.66102 9.72863V12.1104C6.73835 12.4447 5.272 14.1254 5.272 16.1422C5.272 18.3986 7.10772 20.2343 9.36415 20.2343C11.6206 20.2343 13.4564 18.3986 13.4564 16.1422V1.40625H15.8569C16.1788 4.14 18.3539 6.31505 21.0875 6.63698V9.00844H21.0876Z" fill="white"/>
</g>
<defs>
<clipPath id="clip0_2053_16130">
<rect width="24" height="24" fill="white"/>
</clipPath>
</defs>
</svg>
