<svg width="14" height="14" viewBox="0 0 14 14" fill="none" xmlns="http://www.w3.org/2000/svg">
<g clip-path="url(#clip0_6701_9558)">
<path d="M2.12482 1.3916L4.54669 1.39062L6.36993 1.38867C6.8227 1.38837 7.30916 1.3762 7.70685 1.43555C8.4726 1.55437 9.21439 1.80058 9.86993 2.19141C12.5485 3.78834 13.4128 7.38667 11.7469 10.0312L11.7459 10.0322C10.9838 11.2606 9.69016 12.1936 8.28302 12.5361C7.50984 12.7243 6.52104 12.6963 5.66193 12.6963H3.53204L1.92365 12.6982C1.71662 12.6987 1.49142 12.7124 1.24689 12.7031C0.999646 12.6938 0.816441 12.6606 0.71759 12.6064C0.728219 12.6123 0.690906 12.5999 0.675598 12.4395C0.669073 12.371 0.668753 12.2957 0.669739 12.2139C0.670642 12.1392 0.672988 12.0461 0.669739 11.9707C0.636391 11.2001 0.861425 10.4584 1.29474 9.80859L1.29962 9.80176C1.46852 9.53261 1.72269 9.21558 2.01349 8.95312C2.30914 8.68631 2.61425 8.50155 2.88458 8.45117C3.15556 8.40079 3.48379 8.39071 3.83673 8.39258C4.17778 8.39439 4.55385 8.40804 4.87286 8.39551C5.10403 8.38644 5.44025 8.3894 5.67853 8.41309C5.77563 8.52912 5.90588 8.69959 5.99493 8.81641C6.23393 9.12994 6.47267 9.46364 6.7381 9.7832L6.82892 9.8916L6.96954 9.88867C7.48871 9.8809 8.00793 9.87864 8.52716 9.88086H8.52814C8.57953 9.88083 8.81979 9.88955 9.00861 9.88574C9.10894 9.88371 9.21724 9.87765 9.31036 9.86426C9.35645 9.85762 9.40865 9.84828 9.45782 9.83203C9.49657 9.81923 9.58216 9.78772 9.64728 9.70996C9.83054 9.49068 10.0204 9.27451 10.2127 9.05664C10.4041 8.8398 10.5983 8.61981 10.7879 8.39648C10.8495 8.32395 10.8661 8.23816 10.8709 8.21387C10.8789 8.17372 10.8834 8.13223 10.8856 8.09961C10.8898 8.03503 10.8892 7.96498 10.8895 7.94434L10.8924 7.66602L10.6151 7.64746C10.291 7.62514 9.87155 7.64223 9.48419 7.65137C9.12163 7.65992 8.78477 7.65826 8.5213 7.62598C8.51907 7.62278 8.51592 7.61978 8.51349 7.61621C8.47208 7.55539 8.42128 7.46819 8.36798 7.37012C8.29728 7.23998 8.23164 7.10456 8.18732 7.00977C8.28469 6.80132 8.38381 6.6014 8.49689 6.41016C8.51053 6.38708 8.52045 6.37205 8.52814 6.3623C8.53075 6.359 8.53244 6.35618 8.534 6.35449C8.53605 6.35424 8.53916 6.35464 8.54279 6.35449C9.22917 6.32651 9.88695 6.35591 10.6004 6.34766L10.8973 6.34473L10.8924 6.04785L10.8875 5.78613L10.8856 5.69922L10.8367 5.62695L10.7303 5.48535C10.6155 5.34436 10.4815 5.20662 10.3943 5.10937C10.1287 4.81303 9.86764 4.53946 9.64337 4.24512L9.55353 4.12695L9.40411 4.12988C8.5958 4.14325 7.76836 4.13283 6.95099 4.13086H6.83282L6.74689 4.21289C6.60879 4.34472 6.45325 4.5666 6.36896 4.67578L5.86896 5.31641C5.83863 5.35536 5.79136 5.42061 5.73419 5.49219C5.70993 5.52256 5.68733 5.54847 5.66974 5.56836C5.64136 5.5768 5.59626 5.58822 5.53009 5.59668C5.44005 5.60817 5.33295 5.61462 5.21954 5.61719C4.99072 5.62237 4.76427 5.61224 4.62286 5.60937H4.62189C4.33763 5.5903 3.98907 5.61059 3.68536 5.61816C3.35625 5.62637 3.07023 5.62048 2.85822 5.56641C2.29307 5.42224 1.79912 4.99964 1.41779 4.43652C1.03777 3.87529 0.790186 3.20343 0.704895 2.61816C0.673602 2.40318 0.680621 2.22899 0.677551 1.9873C0.674746 1.76765 0.678795 1.62156 0.71759 1.52148C0.733421 1.48067 0.751794 1.45802 0.772278 1.44238C0.793157 1.42646 0.834023 1.40384 0.915833 1.39258C1.26246 1.37599 1.74196 1.39156 2.12482 1.3916Z" stroke="#001450" stroke-width="0.589167"/>
</g>
<defs>
<clipPath id="clip0_6701_9558">
<rect width="13.2563" height="13.2563" fill="white"/>
</clipPath>
</defs>
</svg>
