<svg width="18" height="18" viewBox="0 0 18 18" fill="none" xmlns="http://www.w3.org/2000/svg">
<g clip-path="url(#clip0_4220_5974)">
<path d="M2.37988 1.38379L5.66895 1.38281L8.14453 1.38086C8.75863 1.38045 9.41837 1.36308 9.95801 1.44336V1.44434C10.9984 1.60559 12.0068 1.93874 12.8975 2.46973C16.5344 4.63819 17.7073 9.52436 15.4453 13.1152L15.4443 13.1172C14.4096 14.7851 12.6528 16.0505 10.7422 16.5156C9.69247 16.7711 8.35003 16.7344 7.18359 16.7344L4.29102 16.7334H4.29004L2.10645 16.7373C1.82538 16.7379 1.52045 16.7557 1.18848 16.7432C0.852648 16.7305 0.60398 16.6859 0.469727 16.6123C0.484152 16.6202 0.432915 16.6032 0.412109 16.3857C0.407683 16.3394 0.405439 16.2903 0.404297 16.2393L0.404297 15.749C0.359018 14.7027 0.664605 13.6958 1.25293 12.8135L1.25977 12.8047C1.48907 12.4392 1.83354 12.0079 2.22852 11.6514C2.6301 11.2889 3.04494 11.0381 3.41211 10.9697C3.78015 10.9013 4.2257 10.8881 4.70508 10.8906C5.16818 10.8931 5.67816 10.9106 6.11133 10.8936C6.42731 10.8812 6.88791 10.8871 7.21191 10.9199C7.34332 11.0774 7.51588 11.3086 7.63574 11.4658C7.96019 11.8915 8.2842 12.3445 8.64453 12.7783L8.76758 12.9248L8.95898 12.9219C9.3115 12.9166 9.66405 12.913 10.0166 12.9111H11.0752C11.145 12.9111 11.4711 12.9222 11.7275 12.917C11.8639 12.9142 12.0112 12.9069 12.1377 12.8887C12.2001 12.8797 12.2703 12.8667 12.3369 12.8447C12.3896 12.8273 12.5063 12.7845 12.5947 12.6787C12.8435 12.381 13.1002 12.0878 13.3613 11.792C13.6214 11.4974 13.8859 11.1989 14.1436 10.8955C14.2274 10.7967 14.2504 10.6801 14.2568 10.6475C14.2676 10.5931 14.2725 10.5374 14.2754 10.4932C14.2812 10.4055 14.2809 10.3104 14.2813 10.2822L14.2861 9.9043L13.9082 9.87793C13.4683 9.84767 12.8988 9.87139 12.373 9.88379C11.8812 9.89539 11.424 9.89431 11.0664 9.85059C11.0631 9.8459 11.0593 9.84123 11.0557 9.83594C10.9994 9.75325 10.9289 9.63539 10.8564 9.50195C10.7607 9.32566 10.6725 9.14233 10.6123 9.01367C10.7446 8.73033 10.8785 8.45818 11.0322 8.19824C11.0507 8.16692 11.0648 8.14702 11.0752 8.13379C11.0785 8.12962 11.0809 8.12629 11.083 8.12402C11.0858 8.12368 11.0898 8.12325 11.0947 8.12305C12.027 8.08504 12.9206 8.12549 13.8896 8.11426L14.292 8.10937L14.2852 7.70605L14.2783 7.35156L14.2754 7.23242L14.209 7.13477L14.0654 6.94336C13.9095 6.75173 13.7269 6.56478 13.6084 6.43262C13.2477 6.03024 12.8943 5.65844 12.5898 5.25879L12.4668 5.09863L12.2646 5.10156C11.167 5.11972 10.0435 5.10619 8.93359 5.10352H8.77246L8.65625 5.21484C8.46964 5.39297 8.26034 5.69279 8.14551 5.8418L7.46484 6.71289V6.71387C7.42366 6.76676 7.35788 6.854 7.28027 6.95117C7.24701 6.99281 7.21639 7.02857 7.19238 7.05566C7.15374 7.06705 7.0929 7.08337 7.00391 7.09473C6.88165 7.11033 6.73601 7.11858 6.58203 7.12207C6.27144 7.12909 5.9644 7.11521 5.77246 7.11133H5.77148C5.38533 7.08535 4.91168 7.11275 4.49902 7.12305C4.0521 7.13419 3.66387 7.12617 3.37598 7.05273C2.60857 6.85696 1.93772 6.28323 1.41992 5.51855C0.9038 4.7563 0.567884 3.84366 0.452148 3.04883C0.409652 2.75681 0.418247 2.52078 0.414063 2.19238C0.410254 1.89416 0.417068 1.69643 0.469727 1.56055C0.491108 1.50543 0.515334 1.47434 0.542969 1.45312C0.570842 1.43185 0.625718 1.40223 0.733398 1.38672C1.20448 1.3638 1.85808 1.38374 2.37988 1.38379Z" stroke="white" stroke-width="0.8"/>
</g>
<defs>
<clipPath id="clip0_4220_5974">
<rect width="18" height="18" fill="white"/>
</clipPath>
</defs>
</svg>
