<svg width="20" height="20" viewBox="0 0 20 20" fill="none" xmlns="http://www.w3.org/2000/svg">
<path d="M11.6665 14.9999V4.99992C11.6665 4.55789 11.4909 4.13397 11.1783 3.82141C10.8658 3.50885 10.4419 3.33325 9.99984 3.33325H3.33317C2.89114 3.33325 2.46722 3.50885 2.15466 3.82141C1.8421 4.13397 1.6665 4.55789 1.6665 4.99992V14.1666C1.6665 14.3876 1.7543 14.5996 1.91058 14.7558C2.06686 14.9121 2.27882 14.9999 2.49984 14.9999H4.1665" stroke="#5A5A5A" stroke-width="1.66667" stroke-linecap="round" stroke-linejoin="round"/>
<path d="M12.5 15H7.5" stroke="#5A5A5A" stroke-width="1.66667" stroke-linecap="round" stroke-linejoin="round"/>
<path d="M15.8332 15.0001H17.4998C17.7209 15.0001 17.9328 14.9123 18.0891 14.756C18.2454 14.5997 18.3332 14.3878 18.3332 14.1667V11.1251C18.3328 10.936 18.2682 10.7526 18.1498 10.6051L15.2498 6.98008C15.1719 6.88248 15.073 6.80365 14.9605 6.74941C14.848 6.69518 14.7247 6.66693 14.5998 6.66675H11.6665" stroke="#5A5A5A" stroke-width="1.66667" stroke-linecap="round" stroke-linejoin="round"/>
<path d="M14.1667 16.6666C15.0871 16.6666 15.8333 15.9204 15.8333 14.9999C15.8333 14.0794 15.0871 13.3333 14.1667 13.3333C13.2462 13.3333 12.5 14.0794 12.5 14.9999C12.5 15.9204 13.2462 16.6666 14.1667 16.6666Z" stroke="#5A5A5A" stroke-width="1.66667" stroke-linecap="round" stroke-linejoin="round"/>
<path d="M5.83317 16.6666C6.75365 16.6666 7.49984 15.9204 7.49984 14.9999C7.49984 14.0794 6.75365 13.3333 5.83317 13.3333C4.9127 13.3333 4.1665 14.0794 4.1665 14.9999C4.1665 15.9204 4.9127 16.6666 5.83317 16.6666Z" stroke="#5A5A5A" stroke-width="1.66667" stroke-linecap="round" stroke-linejoin="round"/>
</svg>
