<svg width="15" height="15" viewBox="0 0 15 15" fill="none" xmlns="http://www.w3.org/2000/svg">
<path d="M10.8803 8.55466C10.7912 8.50453 10.6902 8.44768 10.5685 8.37445C10.5006 8.33343 10.4152 8.27735 10.3247 8.21797C9.86018 7.9131 9.50823 7.69731 9.20863 7.69731C9.13846 7.69731 9.07209 7.70919 9.01158 7.73253C8.74911 7.83361 8.53356 8.10364 8.32512 8.36475C8.24873 8.46041 8.13939 8.59738 8.07305 8.65859C7.80987 8.61074 7.25479 8.26688 6.6558 7.66788C6.0561 7.06819 5.71217 6.51247 5.66495 6.24993C5.72609 6.18334 5.86411 6.0732 5.96037 5.99631C6.22049 5.78864 6.48947 5.57391 6.59111 5.31224C6.72077 4.97604 6.48314 4.57396 6.10574 3.99901C6.04636 3.90852 5.99025 3.82305 5.94954 3.75566C5.87603 3.63349 5.81922 3.53242 5.76909 3.44333C5.56332 3.07764 5.42737 2.83594 4.91651 2.83594C4.58495 2.83594 4.11618 3.14925 3.79865 3.45996C3.33719 3.91161 3.08301 4.43305 3.08301 4.92925C3.08389 6.27693 3.83602 7.82155 5.14657 9.1686C5.14882 9.17085 5.15107 9.17145 5.15339 9.1737C6.50044 10.4843 8.04591 11.2339 9.39355 11.2339H9.39408C9.88961 11.2339 10.4112 10.9826 10.8628 10.5214C11.1738 10.2039 11.4875 9.73852 11.4875 9.40717C11.4876 8.89638 11.246 8.76047 10.8803 8.55466ZM9.39369 10.5376C8.24577 10.5367 6.84546 9.84107 5.6472 8.67659C4.48258 7.47818 3.78691 6.07777 3.78617 4.92995C3.78617 4.23565 4.68715 3.57552 4.92277 3.53934C4.9709 3.53955 4.99614 3.5424 5.00816 3.54444C5.03931 3.5803 5.10122 3.69034 5.15635 3.78832C5.20623 3.87698 5.26836 3.98737 5.34746 4.11882C5.39527 4.19803 5.45489 4.28884 5.518 4.38496C5.63743 4.56693 5.87751 4.93269 5.91797 5.08882C5.8503 5.18462 5.64031 5.35225 5.52176 5.44689C5.21833 5.68915 4.95627 5.89833 4.95627 6.19396C4.95701 6.90805 5.8768 7.88328 6.15869 8.16517C6.44057 8.44705 7.4158 9.36684 8.13141 9.36755C8.42514 9.3666 8.63344 9.10563 8.87468 8.80346C8.96982 8.68432 9.13846 8.47307 9.23465 8.40574C9.3906 8.44593 9.75682 8.68629 9.93893 8.80586C10.0351 8.86893 10.1258 8.92852 10.2055 8.97664C10.3365 9.05546 10.4469 9.11759 10.5356 9.16747C10.6335 9.2226 10.7436 9.28454 10.7794 9.31569C10.7815 9.32768 10.7843 9.35292 10.7845 9.40102C10.7481 9.63642 10.0877 10.5367 9.39369 10.5376Z" fill="white"/>
<path d="M14.2757 7.20309C14.2511 5.30321 13.4884 3.50793 12.1285 2.14791C10.7434 0.76282 8.91507 0 6.98029 0C5.11261 0 3.36541 0.718664 2.06049 2.02356C0.902508 3.18153 0.192071 4.72595 0.0599186 6.37235C-0.0654135 7.93441 0.332239 9.51518 1.18137 10.8443L0.0218443 13.9785C0.00217563 14.0317 -0.00434761 14.0888 0.00283055 14.1451C0.0100087 14.2013 0.0306755 14.2549 0.0630692 14.3015C0.0954629 14.348 0.138623 14.386 0.188871 14.4122C0.239118 14.4384 0.294963 14.4521 0.351645 14.4521C0.397911 14.4521 0.444598 14.4387 0.48886 14.4199L3.50875 13.1348C4.66159 13.8523 5.97981 14.2221 7.33339 14.2221H7.33354C9.20089 14.2221 10.9481 13.5121 12.2528 12.2073C13.582 10.8781 14.3005 9.10638 14.2757 7.20309ZM11.7556 11.7187C10.5835 12.8907 9.01302 13.5361 7.33336 13.5361C6.05462 13.5361 4.81051 13.1618 3.7355 12.4537C3.68713 12.4218 3.63164 12.4024 3.57395 12.3972C3.51627 12.3919 3.45818 12.401 3.40486 12.4237L0.963751 13.459L1.90242 10.9217C1.92178 10.8694 1.9284 10.8132 1.92173 10.7578C1.91507 10.7024 1.89532 10.6494 1.8641 10.6031C0.138774 8.04705 0.430465 4.64794 2.55766 2.52077C3.72977 1.34866 5.30041 0.703125 6.98029 0.703125C8.72724 0.703125 10.379 1.39279 11.6312 2.64509C12.8609 3.87471 13.5504 5.49668 13.5726 7.21223C13.5949 8.92427 12.9496 10.5247 11.7556 11.7187Z" fill="white"/>
</svg>
