<svg width="32" height="32" viewBox="0 0 32 32" fill="none" xmlns="http://www.w3.org/2000/svg">
<g clip-path="url(#clip0_2120_10538)">
<path d="M30.9123 10.1897C30.9058 10.1734 30.8985 10.1575 30.8904 10.1421C30.1931 8.36895 29.1841 6.7349 27.9113 5.31712C27.8702 5.27129 27.8205 5.23401 27.765 5.20741C27.7094 5.18081 27.6492 5.1654 27.5878 5.16208C27.5263 5.15876 27.4648 5.16759 27.4067 5.18806C27.3486 5.20853 27.2952 5.24024 27.2494 5.28137C27.2036 5.32249 27.1663 5.37222 27.1397 5.42773C27.1131 5.48324 27.0977 5.54345 27.0944 5.60491C27.0911 5.66637 27.0999 5.72788 27.1204 5.78594C27.1408 5.84399 27.1725 5.89744 27.2136 5.94325C29.6957 8.70881 31.0626 12.2804 31.0626 15.9999C31.0626 16.1103 31.0609 16.2204 31.0586 16.3304C31.0578 16.3692 31.0566 16.4079 31.0555 16.4466C31.0535 16.516 31.0508 16.5853 31.0479 16.6545C31.0457 16.7034 31.0439 16.7524 31.0413 16.8013C31.0392 16.8418 31.0364 16.8821 31.0339 16.9226C30.8766 19.4961 30.0641 21.9736 28.6816 24.1283C28.9844 22.9001 29.2939 21.4536 29.4872 20.0352C29.8956 17.0386 29.6537 15.1697 28.7479 14.3216C28.0096 13.6304 26.9886 14.2278 26.1681 14.7078C25.8383 14.9007 25.2859 15.2233 25.1092 15.1949C24.9584 15.1561 24.3965 14.6663 23.7087 13.4647C23.0959 12.3941 22.6938 11.2793 22.6593 10.5555C22.5818 8.92825 23.8582 6.99331 23.871 6.97425C23.923 6.89619 23.9504 6.80438 23.9498 6.7106C23.9492 6.61682 23.9206 6.52537 23.8676 6.448C23.7081 6.21525 23.3178 5.50081 23.4239 4.997C23.4731 4.7635 23.5672 4.31519 21.9742 2.16969C22.5889 2.435 23.1851 2.74134 23.7588 3.08663C23.7627 3.089 23.7668 3.09081 23.7707 3.093C24.4532 3.50535 25.102 3.97098 25.7112 4.48556C25.7582 4.52528 25.8126 4.55535 25.8712 4.57404C25.9299 4.59273 25.9916 4.59969 26.053 4.59451C26.1143 4.58934 26.174 4.57213 26.2287 4.54387C26.2834 4.51561 26.332 4.47685 26.3717 4.42981C26.4114 4.38278 26.4414 4.32839 26.4601 4.26974C26.4788 4.21109 26.4858 4.14934 26.4806 4.088C26.4754 4.02667 26.4582 3.96696 26.4299 3.91228C26.4017 3.85759 26.3629 3.80902 26.3159 3.76931C24.6664 2.37669 22.7894 1.34844 20.7371 0.713188C20.7291 0.710688 20.7209 0.709813 20.7129 0.707813C19.186 0.238427 17.5975 -0.00014446 16 6.56254e-08C15.8356 6.56254e-08 15.6717 0.00331256 15.5081 0.00825007C15.4903 0.00881257 15.4726 0.00962507 15.4548 0.0101876C15.3189 0.0146876 15.1834 0.0209376 15.0481 0.0288126L15.0093 0.0311876C11.1084 0.267938 7.47363 1.899 4.68638 4.68631C1.66438 7.70831 0 11.7262 0 16C0 19.7709 1.337 23.4325 3.76463 26.3105C3.80859 26.3628 3.86348 26.4047 3.92541 26.4335C3.98735 26.4623 4.05483 26.4771 4.12313 26.477C4.21242 26.4769 4.29984 26.4514 4.3751 26.4033C4.45036 26.3552 4.51032 26.2867 4.54793 26.2057C4.58554 26.1247 4.59923 26.0346 4.5874 25.9461C4.57556 25.8576 4.53869 25.7743 4.48112 25.7061C2.19594 22.9969 0.9375 19.5499 0.9375 16C0.9375 15.2411 0.993375 14.4908 1.10294 13.7537L1.10619 13.7688C1.11731 13.8184 1.129 13.8687 1.14125 13.9199C1.76775 16.5296 5.33781 18.1989 7.0535 19.0012C7.19169 19.0658 7.33887 19.1346 7.46131 19.194C7.29262 19.6248 7.04275 20.3716 6.95188 21.2062C6.756 23.0058 7.38544 24.3234 8.77206 25.0168C11.5076 26.3845 11.4151 27.1114 11.1403 29.2694C11.0967 29.6121 11.0668 29.9289 11.0492 30.2269C9.16665 29.5723 7.43307 28.5499 5.94931 27.2191C5.85657 27.1374 5.73527 27.0955 5.61184 27.1028C5.48841 27.11 5.37284 27.1658 5.2903 27.2578C5.20776 27.3499 5.16494 27.4708 5.17116 27.5943C5.17737 27.7178 5.23213 27.8338 5.3235 27.9171C7.05919 29.4742 9.11483 30.6322 11.3459 31.3097C11.352 31.3119 11.3576 31.3149 11.3638 31.3167C11.5667 31.3781 11.7714 31.4341 11.9769 31.4872C11.9967 31.4924 12.0166 31.4976 12.0364 31.5027C12.1644 31.5353 12.2928 31.5662 12.4216 31.5956C12.509 31.6156 12.5965 31.6351 12.6843 31.6536C12.7281 31.6629 12.772 31.6716 12.8159 31.6804C12.8958 31.6966 12.9757 31.7128 13.0559 31.7277C13.1159 31.7389 13.1761 31.749 13.2362 31.7595C13.3021 31.771 13.3678 31.7831 13.4337 31.7938C13.5601 31.8143 13.6869 31.8331 13.8139 31.8506C13.8453 31.8549 13.8767 31.8584 13.908 31.8625C14.0111 31.8761 14.1143 31.8889 14.2177 31.9004C14.2515 31.9042 14.2853 31.9074 14.3191 31.9109C14.4227 31.9218 14.5264 31.9319 14.6303 31.9408C14.6422 31.9418 14.6541 31.9433 14.666 31.9443C14.6707 31.9446 14.6754 31.9446 14.6801 31.9448C15.1176 31.9808 15.5577 32 16 32C20.2738 32 24.2917 30.3357 27.3137 27.3137C30.0729 24.5544 31.6994 20.9648 31.9616 17.1084C31.9628 17.0914 31.9636 17.0744 31.9647 17.0574C31.9713 16.9549 31.9776 16.8524 31.9823 16.7496C31.9846 16.6981 31.986 16.6465 31.9879 16.595C31.9905 16.5233 31.9936 16.4517 31.9953 16.3799C31.9983 16.2535 31.9999 16.1268 31.9999 16.0001C32 13.9957 31.6341 12.0409 30.9123 10.1897ZM11.3679 1.6605C11.1625 1.99156 10.9547 2.31737 10.759 2.57044C10.5021 2.90269 10.3634 2.98263 10.3191 3.00113C10.1274 2.90281 9.86363 2.66087 9.63781 2.33919C10.1998 2.07708 10.7776 1.85041 11.3679 1.6605ZM15.1471 30.5984C14.947 30.7351 14.7556 30.8657 14.5733 30.9948C14.5494 30.9926 14.5257 30.9898 14.5018 30.9874C14.4187 30.9794 14.3357 30.9707 14.2528 30.9613C14.173 30.952 14.0934 30.9416 14.0139 30.931C13.9847 30.9271 13.9554 30.9239 13.9263 30.9198C13.2672 30.8284 12.6148 30.6934 11.9736 30.5156C11.9857 30.1739 12.0176 29.8017 12.0703 29.3878C12.3832 26.9299 12.3869 25.776 9.19144 24.1782C8.17725 23.6711 7.73663 22.7123 7.88175 21.3284C7.99938 20.2068 8.46531 19.2262 8.46975 19.2169C8.48138 19.193 8.49081 19.1681 8.49819 19.1425C8.61456 18.7371 8.22656 18.5331 8.06094 18.446C7.91256 18.368 7.70875 18.2727 7.45069 18.152C5.99137 17.4696 2.574 15.8717 2.053 13.7015C2.04187 13.6549 2.03113 13.6089 2.02087 13.5632C1.68519 12.0713 1.89144 10.4906 2.60138 9.11225C3.97538 6.44513 6.16481 4.20712 8.797 2.76887C9.11919 3.26137 9.54744 3.67544 9.9445 3.86119C10.3914 4.07006 10.863 3.89269 11.3462 3.3335C11.6679 2.96112 11.9893 2.43969 12.3001 1.93544C12.4317 1.72188 12.5669 1.5025 12.6984 1.30119C13.6585 1.08699 14.6372 0.966926 15.6206 0.942688C15.7804 1.59 15.6886 2.5945 14.9596 3.66781C14.8637 3.80888 14.1816 3.87719 13.8903 3.90631C13.3399 3.96144 12.8647 4.009 12.5859 4.28788C12.2706 4.60306 12.3529 4.97975 12.397 5.18213C12.4472 5.412 12.4679 5.50712 12.0204 5.75938C10.7704 6.464 10.1898 7.54656 9.878 8.12819L9.83806 8.20238C9.80631 8.26125 9.57106 8.32913 9.41537 8.37394C8.95844 8.50562 8.26794 8.70469 8.03113 9.54606C7.96356 9.78619 7.90806 10.0379 7.85444 10.2813C7.76356 10.6938 7.59969 11.4374 7.40225 11.5433C7.36731 11.4569 7.33037 11.298 7.30412 11.1853C7.1975 10.7276 7.03644 10.036 6.35781 9.68637C5.95187 9.47725 5.56413 9.43237 5.20487 9.55281C4.59188 9.7585 4.24681 10.3876 3.9715 10.9611C3.54669 11.8461 3.96294 12.4507 4.29738 12.9364C4.63563 13.4276 4.95506 13.8915 4.77956 14.8055C4.69669 15.2372 4.98012 15.6907 5.64606 16.1922C6.2625 16.6565 7.17513 17.1292 8.02763 17.4259C8.76188 17.6814 9.76937 17.9189 10.3997 17.5991C11.2878 17.1484 12.1403 17.1582 13.0824 17.6301C13.9523 18.0658 14.7689 18.839 15.4893 19.5212C16.4265 20.4088 17.2359 21.1753 18.0889 21.1951C19.8548 21.2361 21.7561 22.6271 21.8509 23.0299C22.0021 24.0778 20.7251 25.1121 19.5983 26.0246C18.6627 26.7824 17.7789 27.4983 17.5614 28.303C17.3471 29.0957 16.1273 29.9289 15.1471 30.5984ZM27.1828 26.0914C27.0101 26.2823 26.8328 26.4688 26.6509 26.6509C23.8364 29.4654 20.1041 31.0279 16.1289 31.061C17.1628 30.3417 18.2008 29.5301 18.4663 28.5477C18.6046 28.0359 19.4097 27.3838 20.1883 26.7533C21.509 25.6836 23.0059 24.4712 22.7787 22.8963C22.6723 22.1583 21.5654 21.4518 21.0944 21.1824C20.1046 20.6161 19.017 20.2792 18.1108 20.2581H18.1107C17.6184 20.2466 16.8638 19.5319 16.1339 18.8407C14.6242 17.4111 12.5566 15.4533 9.97538 16.7633C9.69781 16.9042 8.82625 16.7863 7.6975 16.2884C6.44913 15.7377 5.79281 15.1481 5.70738 14.9437C5.9395 13.6684 5.43719 12.939 5.06944 12.405C4.74056 11.9274 4.636 11.7431 4.81656 11.3669C4.9555 11.0774 5.21419 10.5386 5.503 10.4417C5.544 10.4279 5.66862 10.3861 5.92837 10.5199C6.20125 10.6604 6.28869 10.9588 6.391 11.398C6.48881 11.8182 6.65156 12.5221 7.39944 12.4928C8.33494 12.4564 8.56594 11.4081 8.76975 10.4832C8.82056 10.2527 8.87306 10.0144 8.93338 9.80013C9.02019 9.49169 9.21575 9.40712 9.67481 9.27487C10.0176 9.17606 10.4443 9.05306 10.663 8.6475L10.7039 8.57131C10.9896 8.03863 11.4676 7.14706 12.4805 6.57613C12.9158 6.33081 13.1834 6.05719 13.2987 5.73975C13.4106 5.43144 13.3517 5.16125 13.3127 4.98244C13.3096 4.96838 13.3062 4.95262 13.3029 4.93706C13.4576 4.89181 13.7667 4.86088 13.9835 4.83919C14.6441 4.773 15.3929 4.69806 15.7349 4.19462C16.4422 3.15331 16.7435 1.94875 16.5783 0.948938C17.8484 0.99723 19.1073 1.20582 20.3251 1.56975C22.3281 4.07606 22.4896 4.72594 22.5018 4.82731C22.3604 5.5495 22.7061 6.313 22.9301 6.71156C22.5506 7.34625 21.6481 9.03238 21.7228 10.6002C21.7652 11.4905 22.2138 12.7536 22.9228 13.9789C23.9295 15.7186 24.6287 16.0669 24.9559 16.1198C25.4699 16.2028 26.0387 15.8696 26.6413 15.5171C27.1639 15.2115 27.8798 14.7929 28.1071 15.0061C28.9708 15.8147 28.7604 18.4249 28.5583 19.9089C28.2233 22.367 27.5059 24.9833 27.1828 26.0914Z" fill="#D0000A"/>
</g>
<defs>
<clipPath id="clip0_2120_10538">
<rect width="32" height="32" fill="white"/>
</clipPath>
</defs>
</svg>
