<svg width="32" height="24" viewBox="0 0 32 24" fill="none" xmlns="http://www.w3.org/2000/svg">
<g clip-path="url(#clip0_2053_16120)">
<path d="M25.4276 1.25H6.57219C3.13934 1.25 0.34668 4.05161 0.34668 7.49467V18.0053C0.34668 21.449 3.13934 24.25 6.57219 24.25H25.4276C28.8604 24.25 31.6531 21.4484 31.6531 18.0053V7.49467C31.6531 4.05161 28.8604 1.25 25.4276 1.25ZM30.3753 18.006C30.3753 20.745 28.1557 22.9728 25.4276 22.9728H6.57219C3.84405 22.9728 1.62449 20.7443 1.62449 18.006V7.49467C1.62449 4.75632 3.84405 2.52781 6.57219 2.52781H25.4276C28.1557 2.52781 30.3753 4.75632 30.3753 7.49467V18.006Z" fill="white"/>
<path d="M21.6608 12.5193L12.8087 7.33456C12.7116 7.27818 12.6013 7.24834 12.489 7.24805C12.3767 7.24775 12.2663 7.27701 12.1689 7.33287C12.0715 7.38874 11.9905 7.46925 11.934 7.56633C11.8775 7.6634 11.8476 7.77363 11.8472 7.88593V18.2548C11.8475 18.4241 11.9149 18.5864 12.0347 18.7062C12.1544 18.8259 12.3167 18.8933 12.4861 18.8937C12.5995 18.8936 12.7108 18.8634 12.8087 18.8061L21.6608 13.6227C21.7571 13.5664 21.8371 13.4858 21.8927 13.389C21.9482 13.2922 21.9775 13.1826 21.9775 13.071C21.9775 12.9594 21.9482 12.8497 21.8927 12.7529C21.8371 12.6561 21.7571 12.5756 21.6608 12.5193ZM13.125 17.1399V9.00019L20.0737 13.0707L13.125 17.1399Z" fill="white"/>
</g>
<defs>
<clipPath id="clip0_2053_16120">
<rect width="32" height="24" fill="white"/>
</clipPath>
</defs>
</svg>
